<?xml version="1.0" standalone="no"?>
<!DOCTYPE svg PUBLIC "-//W3C//DTD SVG 1.1//EN" "http://www.w3.org/Graphics/SVG/1.1/DTD/svg11.dtd" >
<svg xmlns="http://www.w3.org/2000/svg" xmlns:xlink="http://www.w3.org/1999/xlink" version="1.1">
<metadata>
Created by FontForge 20160407 at Wed Sep  7 15:07:34 2016
 By Jimmy Warting
Stem is a geometric sans-serif with semi-closed aperture and large x-height. 12 faces of it, including upright and true italic faces of different weights, are intended primarily for large point sizes. The Stem family will be supplemented with faces for text and caption setting. Design -- Alexandra Korolkova with the assistance of Maria Selezeneva and Isabella Chaeva. Released by ParaType in 2014.
</metadata>
<defs>
<font id="Stem-Medium" horiz-adv-x="620" >
  <font-face 
    font-family="Stem Medium"
    font-weight="500"
    font-stretch="normal"
    units-per-em="1000"
    panose-1="2 11 6 3 2 2 3 2 2 4"
    ascent="778"
    descent="-222"
    x-height="520"
    cap-height="700"
    bbox="-491 -278 1295 962"
    underline-thickness="50"
    underline-position="-100"
    stemh="106"
    stemv="114"
    unicode-range="U+0020-FEFF"
  />
<missing-glyph horiz-adv-x="236" 
 />
    <glyph glyph-name="uniF350.var.accented" unicode="&#xf350;`" horiz-adv-x="605" 
d="M-2 0l261 560h88l261 -560h-123l-53 109h-261l-53 -109h-120zM301 387l-89 -179h177zM437 769l-127 -158l-76 54l118 168z" />
    <glyph glyph-name="uniF355.var.accented" unicode="&#xf355;`" horiz-adv-x="550" 
d="M58 0v560h448v-109h-331v-114h309v-106h-309v-122h339v-109h-456zM417 769l-127 -158l-76 54l118 168z" />
    <glyph glyph-name="uniF358.var.accented" unicode="&#xf358;`" horiz-adv-x="638" 
d="M154 0h-96v560h117v-351l307 351h98v-560h-117v352zM444 769l-127 -158l-76 54l118 168z" />
    <glyph glyph-name="uniF35E.var.accented" unicode="&#xf35e;`" horiz-adv-x="665" 
d="M27 280c0 161 134 286 306 286c169 0 305 -120 305 -286c0 -165 -136 -286 -305 -286s-306 120 -306 286zM149 280c0 -107 86 -173 184 -173c101 0 183 66 183 173c0 108 -88 173 -183 173c-98 0 -184 -65 -184 -173zM474 769l-127 -158l-76 54l118 168z" />
    <glyph glyph-name="uniF363.var.accented" unicode="&#xf363;`" horiz-adv-x="609" 
d="M168 13l44 102c4 -3 13 -5 18 -5c15 0 32 8 47 33l3 5l-280 412h144l196 -292l147 292h123l-218 -429c-43 -84 -86 -131 -159 -131c-24 0 -46 3 -65 13zM441 769l-127 -158l-76 54l118 168z" />
    <glyph glyph-name="uniF36B.var.accented" unicode="&#xf36b;`" horiz-adv-x="742" 
d="M568 0v560h117v-560h-117zM272 261h-97v-152h95c86 0 130 19 130 79c0 50 -43 73 -128 73zM175 560v-189h99c166 0 248 -73 248 -183c0 -125 -96 -188 -255 -188h-209v560h117zM474 769l-127 -158l-76 54l118 168z" />
    <glyph glyph-name="uniF36D.var.accented" unicode="&#xf36d;`" horiz-adv-x="598" 
d="M174 231v109h275c-17 72 -84 117 -185 117c-57 0 -131 -19 -177 -73l-78 75c59 74 161 107 260 107c186 0 302 -110 302 -284c0 -166 -112 -288 -309 -288c-85 0 -192 24 -259 117l78 67c43 -57 119 -75 185 -75c102 0 172 51 184 128h-276zM401 769l-127 -158l-76 54
l118 168z" />
    <glyph glyph-name="uniF36E.var.accented" unicode="&#xf36e;`" horiz-adv-x="861" 
d="M58 0v560h117v-225h74c23 134 137 231 290 231c179 0 295 -120 295 -286c0 -165 -126 -286 -295 -286c-157 0 -272 89 -291 241h-73v-235h-117zM364 280c0 -107 76 -177 175 -177c106 0 173 70 173 177c0 108 -70 177 -173 177c-100 0 -175 -69 -175 -177zM584 769
l-127 -158l-76 54l118 168z" />
    <glyph glyph-name="uniF36F.var.accented" unicode="&#xf36f;`" horiz-adv-x="591" 
d="M417 0v188h-117l-160 -188h-139l180 209c-87 25 -138 81 -138 163c0 106 81 188 245 188h246v-560h-117zM273 297h144v154h-136c-84 0 -117 -29 -117 -78c0 -41 42 -75 109 -76zM437 769l-127 -158l-76 54l118 168z" />
    <glyph glyph-name="uniF371.var.accented" unicode="&#xf371;`" horiz-adv-x="550" 
d="M82 698c0 34 30 58 63 58c31 0 65 -24 65 -58c0 -37 -34 -60 -65 -60c-33 0 -63 23 -63 60zM366 698c0 34 31 58 66 58c33 0 65 -24 65 -58c0 -37 -31 -60 -65 -60c-35 0 -66 23 -66 60zM383 789l-102 -164l-57 21l60 173zM58 0v560h448v-109h-331v-114h309v-106h-309
v-122h339v-109h-456z" />
    <glyph glyph-name="afii10017.var.accented" unicode="&#x410;`" horiz-adv-x="704" 
d="M-1 0l307 700h92l307 -700h-127l-68 155h-319l-67 -155h-125zM350 525l-115 -266h230zM535 849l-220 -104l-43 76l210 128z" />
    <glyph glyph-name="afii10022.var.accented" unicode="&#x415;`" horiz-adv-x="645" 
d="M70 0v700h520v-114h-399v-176h373v-110h-373v-186h409v-114h-530zM515 849l-220 -104l-43 76l210 128z" />
    <glyph glyph-name="afii10026.var.accented" unicode="&#x418;`" horiz-adv-x="747" 
d="M171 0h-101v700h121v-485l384 485h102v-700h-121v485zM552 849l-220 -104l-43 76l210 128z" />
    <glyph glyph-name="afii10032.var.accented" unicode="&#x41e;`" horiz-adv-x="782" 
d="M33 350c0 202 157 358 358 358c199 0 358 -150 358 -358c0 -206 -159 -358 -358 -358c-198 0 -358 150 -358 358zM159 350c0 -145 108 -242 232 -242c130 0 232 97 232 242c0 146 -110 242 -232 242c-125 0 -232 -96 -232 -242zM555 849l-220 -104l-43 76l210 128z" />
    <glyph glyph-name="afii10037.var.accented" unicode="&#x423;`" horiz-adv-x="707" 
d="M196 14l47 101c7 -3 14 -5 23 -5c23 0 45 25 67 70l-333 520h149l246 -393l185 393h127l-259 -538c-49 -104 -98 -165 -185 -165c-22 0 -45 5 -67 17zM542 849l-220 -104l-43 76l210 128z" />
    <glyph glyph-name="afii10045.var.accented" unicode="&#x42b;`" horiz-adv-x="865" 
d="M675 0v700h121v-700h-121zM318 340h-127v-226h125c109 0 167 31 167 117c0 73 -57 109 -165 109zM191 700v-247h130c193 0 288 -87 288 -222c0 -153 -111 -231 -297 -231h-242v700h121zM609 849l-220 -104l-43 76l210 128z" />
    <glyph glyph-name="afii10047.var.accented" unicode="&#x42d;`" horiz-adv-x="701" 
d="M204 301v113h337c-19 110 -103 181 -234 181c-70 0 -159 -30 -214 -99l-80 78c68 91 187 134 300 134c219 0 355 -138 355 -355c0 -208 -132 -361 -363 -361c-100 0 -222 33 -298 141l82 69c50 -68 141 -97 221 -97c130 0 219 79 233 196h-339zM485 849l-220 -104l-43 76
l210 128z" />
    <glyph glyph-name="afii10048.var.accented" unicode="&#x42e;`" horiz-adv-x="997" 
d="M70 0v700h121v-291h89c25 171 159 299 340 299c207 0 344 -150 344 -358c0 -206 -146 -358 -344 -358c-186 0 -320 121 -341 312h-88v-304h-121zM400 350c0 -145 95 -245 220 -245c133 0 218 100 218 245c0 146 -89 245 -218 245c-126 0 -220 -99 -220 -245zM752 849
l-220 -104l-43 76l210 128z" />
    <glyph glyph-name="afii10049.var.accented" unicode="&#x42f;`" horiz-adv-x="691" 
d="M500 0v246h-155l-197 -246h-145l217 267c-106 27 -168 100 -168 205c0 127 92 228 284 228h285v-700h-121zM315 359h185v228h-173c-107 0 -149 -47 -149 -115c0 -61 52 -109 137 -113zM549 849l-220 -104l-43 76l210 128z" />
    <glyph glyph-name="afii10023.var.accented" unicode="&#x401;`" horiz-adv-x="645" 
d="M110 821c0 36 30 62 69 62c33 0 67 -26 67 -62c0 -37 -34 -62 -67 -62c-39 0 -69 25 -69 62zM425 821c0 36 32 62 69 62c34 0 67 -24 67 -62c0 -37 -33 -62 -67 -62c-37 0 -69 25 -69 62zM433 917l-94 -152l-66 17l52 168zM70 0v700h520v-114h-399v-176h373v-110h-373
v-186h409v-114h-530z" />
    <glyph glyph-name="afii10065.var.accented" unicode="&#x430;`" horiz-adv-x="534" 
d="M109 371l-56 84c49 48 133 77 218 77c137 0 213 -78 213 -214v-318h-114v57c-31 -34 -84 -63 -161 -63c-114 0 -189 64 -189 164c0 116 105 165 243 165c37 0 83 -6 107 -14c1 75 -28 117 -112 117c-57 0 -99 -17 -149 -55zM234 93c69 0 113 36 136 71v50
c-21 7 -58 14 -95 14c-82 0 -137 -17 -137 -69c0 -41 38 -66 96 -66zM418 755l-127 -157l-77 54l118 167z" />
    <glyph glyph-name="afii10070.var.accented" unicode="&#x435;`" horiz-adv-x="569" 
d="M449 166l70 -69c-53 -71 -126 -106 -211 -106c-167 0 -279 106 -279 270c0 152 93 271 267 271c140 0 244 -94 244 -238c0 -17 -2 -42 -6 -73h-386c9 -82 76 -124 162 -124c56 0 108 27 139 69zM291 429c-77 0 -127 -42 -142 -109h273c-9 72 -58 109 -131 109zM445 755
l-127 -157l-77 54l118 167z" />
    <glyph glyph-name="afii10074.var.accented" unicode="&#x438;`" horiz-adv-x="596" 
d="M152 0h-99v520h114v-339l276 339h99v-520h-114v338zM454 755l-127 -157l-77 54l118 167z" />
    <glyph glyph-name="afii10080.var.accented" unicode="&#x43e;`" horiz-adv-x="615" 
d="M29 261c0 157 113 271 278 271c164 0 279 -114 279 -271c0 -156 -115 -270 -279 -270c-162 0 -278 114 -278 270zM147 261c0 -94 65 -164 160 -164s161 64 161 164c0 101 -71 165 -161 165c-91 0 -160 -63 -160 -165zM459 755l-127 -157l-77 54l118 167z" />
    <glyph glyph-name="afii10085.var.accented" unicode="&#x443;`" horiz-adv-x="548" 
d="M75 -194l45 97c7 -4 14 -6 23 -6c29 0 56 23 82 87l18 47l-256 489h132l179 -351l138 351h122l-204 -505c-70 -172 -123 -224 -207 -224c-28 0 -52 5 -72 15zM431 755l-127 -157l-77 54l118 167z" />
    <glyph glyph-name="afii10093.var.accented" unicode="&#x44b;`" horiz-adv-x="696" 
d="M53 0v520h114v-151h90c168 0 220 -85 220 -183c0 -96 -59 -186 -228 -186h-196zM248 263h-81v-157h80c83 0 112 28 112 79s-31 78 -111 78zM529 0v520h114v-520h-114zM474 755l-127 -157l-77 54l118 167z" />
    <glyph glyph-name="afii10095.var.accented" unicode="&#x44d;`" horiz-adv-x="547" 
d="M155 216v99h243c-17 79 -75 111 -157 111c-52 0 -115 -20 -153 -76l-83 61c58 80 142 121 245 121c164 0 269 -105 269 -271c0 -153 -100 -270 -274 -270c-96 0 -195 32 -240 115l83 60c36 -50 89 -69 147 -69c93 0 152 47 165 119h-245zM393 755l-127 -157l-77 54
l118 167z" />
    <glyph glyph-name="afii10096.var.accented" unicode="&#x44e;`" horiz-adv-x="815" 
d="M53 0v520h114v-202h90c24 127 121 214 260 214c159 0 269 -114 269 -271c0 -156 -111 -270 -269 -270c-144 0 -242 91 -262 224h-88v-215h-114zM370 261c0 -100 63 -164 148 -164c88 0 150 64 150 164s-61 165 -150 165c-82 0 -148 -65 -148 -165zM575 755l-127 -157
l-77 54l118 167z" />
    <glyph glyph-name="afii10097.var.accented" unicode="&#x44f;`" horiz-adv-x="539" 
d="M272 520h214v-520h-114v171h-97l-132 -171h-133l150 190c-74 17 -119 78 -119 158c0 92 61 172 231 172zM159 344c0 -39 35 -67 100 -67h113v137h-110c-74 0 -103 -28 -103 -70zM452 755l-127 -157l-77 54l118 167z" />
    <glyph glyph-name="afii10071.var.accented" unicode="&#x451;`" horiz-adv-x="569" 
d="M89 672c0 34 30 58 63 58c31 0 64 -24 64 -58c0 -38 -33 -61 -64 -61c-33 0 -63 23 -63 61zM373 672c0 34 31 58 66 58c33 0 64 -24 64 -58c0 -38 -30 -61 -64 -61c-35 0 -66 23 -66 61zM390 762l-103 -164l-56 22l60 173zM449 166l70 -69c-53 -71 -126 -106 -211 -106
c-167 0 -279 106 -279 270c0 152 93 271 267 271c140 0 244 -94 244 -238c0 -17 -2 -42 -6 -73h-386c9 -82 76 -124 162 -124c56 0 108 27 139 69zM291 429c-77 0 -127 -42 -142 -109h273c-9 72 -58 109 -131 109z" />
    <glyph glyph-name="fi" unicode="fi" horiz-adv-x="579" 
d="M3 414v106h84v17c0 149 90 201 182 201c26 0 57 -5 78 -17l-40 -99c-10 8 -21 10 -32 10c-46 0 -74 -28 -74 -98v-14h133v-106h-133v-414h-114v414h-84zM396 0v520h114v-520h-114zM386 669c0 34 29 60 67 60c37 0 66 -26 66 -60c0 -36 -29 -62 -66 -62
c-40 0 -67 26 -67 62z" />
    <glyph glyph-name="fl" unicode="fl" horiz-adv-x="511" 
d="M338 0v606c-12 14 -31 26 -63 26c-46 0 -74 -28 -74 -98v-14h83v-106h-83v-414h-114v414h-84v106h84v17c0 149 90 201 182 201c39 0 76 -12 104 -32l79 29v-735h-114z" />
    <glyph glyph-name=".notdef" horiz-adv-x="236" 
 />
    <glyph glyph-name="space" unicode=" " horiz-adv-x="236" 
 />
    <glyph glyph-name="exclam" unicode="!" horiz-adv-x="309" 
d="M96 215v485h118v-485h-118zM73 73c0 35 32 73 81 73c46 0 80 -38 80 -73c0 -39 -34 -75 -80 -75c-49 0 -81 36 -81 75z" />
    <glyph glyph-name="quotedbl" unicode="&#x22;" horiz-adv-x="440" 
d="M73 452v248h116v-248h-116zM251 452v248h116v-248h-116z" />
    <glyph glyph-name="numbersign" unicode="#" horiz-adv-x="707" 
d="M290 16l64 175h-122l-77 -208l-102 33l65 175h-78v99h115l46 120h-161v99h197c25 66 55 147 77 208l102 -33l-66 -175h123l76 208l102 -32l-66 -176h82v-99h-118l-45 -120h163v-99h-200l-76 -208zM314 410l-46 -120h124l43 120h-121z" />
    <glyph glyph-name="dollar" unicode="$" 
d="M471 190c0 158 -432 64 -432 320c0 93 83 173 210 193v80h115v-78c91 -9 168 -45 220 -97l-66 -86c-60 50 -124 73 -208 73c-74 0 -146 -23 -146 -82c0 -141 432 -57 432 -314c0 -113 -102 -193 -232 -205v-86h-115v91c-97 17 -183 65 -230 121l72 85
c60 -63 149 -100 247 -100c84 0 133 32 133 85z" />
    <glyph glyph-name="percent" unicode="%" horiz-adv-x="907" 
d="M154 32l514 696l86 -62l-510 -686zM37 525c0 105 83 178 192 178s191 -73 191 -178c0 -104 -82 -177 -191 -177s-192 73 -192 177zM150 525c0 -50 38 -82 79 -82c43 0 78 32 78 82c0 49 -36 81 -78 81s-79 -32 -79 -81zM487 174c0 105 83 177 192 177
c108 0 191 -72 191 -177c0 -104 -83 -178 -191 -178c-109 0 -192 74 -192 178zM600 174c0 -49 38 -81 79 -81c42 0 78 32 78 81c0 50 -37 82 -78 82c-42 0 -79 -32 -79 -82z" />
    <glyph glyph-name="ampersand" unicode="&#x26;" horiz-adv-x="783" 
d="M780 0h-154c-39 28 -60 51 -88 77c-47 -45 -120 -86 -222 -86c-166 0 -272 83 -272 199c0 117 103 182 198 239c-40 51 -63 96 -63 148c0 72 57 132 165 132c116 0 168 -53 168 -132c0 -63 -49 -125 -115 -169c28 -46 80 -105 140 -169c41 57 70 145 70 244h116
c0 -111 -37 -251 -107 -334c47 -52 104 -104 164 -149zM321 100c54 0 108 25 134 57c-59 67 -116 133 -152 181c-84 -53 -131 -84 -131 -137c0 -49 48 -101 149 -101zM301 561c0 -27 21 -52 38 -74c31 22 51 48 51 75c0 26 -14 46 -44 46c-29 0 -45 -16 -45 -47z" />
    <glyph glyph-name="quotesingle" unicode="'" horiz-adv-x="262" 
d="M73 452v248h116v-248h-116z" />
    <glyph glyph-name="parenleft" unicode="(" horiz-adv-x="342" 
d="M332 -135l-77 -67c-167 144 -222 324 -222 465c0 140 55 314 222 465l76 -67c-134 -125 -182 -270 -182 -398c0 -147 71 -291 183 -398z" />
    <glyph glyph-name="parenright" unicode=")" horiz-adv-x="341" 
d="M88 -201l-78 67c125 109 182 269 182 397s-48 273 -181 398l76 67c166 -151 221 -325 221 -465c0 -141 -55 -321 -220 -464z" />
    <glyph glyph-name="asterisk" unicode="*" horiz-adv-x="500" 
d="M309 700l-5 -123l119 43l33 -107l-121 -34l79 -99l-96 -69l-68 100l-68 -101l-96 69l79 101l-121 34l33 107l121 -43l-4 122h115z" />
    <glyph glyph-name="plus" unicode="+" horiz-adv-x="599" 
d="M64 309v101h182v182h106v-182h184v-101h-184v-184h-106v184h-182z" />
    <glyph glyph-name="comma" unicode="," horiz-adv-x="254" 
d="M119 0c-49 -6 -73 40 -73 69c0 39 28 77 80 77c64 0 83 -57 83 -110c0 -94 -82 -163 -152 -178l-28 66c33 6 86 45 90 76z" />
    <glyph glyph-name="hyphen" unicode="-" horiz-adv-x="416" 
d="M69 227v101h278v-101h-278z" />
    <glyph glyph-name="period" unicode="." horiz-adv-x="251" 
d="M45 73c0 35 32 73 81 73c46 0 80 -38 80 -73c0 -39 -34 -75 -80 -75c-49 0 -81 36 -81 75z" />
    <glyph glyph-name="slash" unicode="/" horiz-adv-x="357" 
d="M-37 -164l328 881l102 -33l-329 -887z" />
    <glyph glyph-name="zero" unicode="0" horiz-adv-x="680" 
d="M37 350c0 206 107 357 302 357c197 0 304 -151 304 -357c0 -207 -105 -357 -302 -357c-196 0 -304 150 -304 357zM161 350c0 -155 67 -242 180 -242c120 0 178 87 178 242s-59 242 -180 242c-116 0 -178 -89 -178 -242z" />
    <glyph glyph-name="one" unicode="1" horiz-adv-x="397" 
d="M2 588l235 114h76v-702h-116v559l-154 -71z" />
    <glyph glyph-name="two" unicode="2" horiz-adv-x="618" 
d="M135 478l-105 42c35 122 145 187 279 187c161 0 252 -85 252 -207c0 -138 -78 -222 -252 -342l-80 -46h354v-112h-543v89l158 115c102 80 239 173 239 277c0 68 -49 110 -130 110c-93 0 -147 -54 -172 -113z" />
    <glyph glyph-name="three" unicode="3" horiz-adv-x="609" 
d="M141 500l-103 46c36 103 144 163 273 163c146 0 253 -69 253 -176c0 -80 -47 -141 -113 -160c59 -14 128 -58 128 -164c0 -135 -119 -217 -263 -217c-113 0 -250 49 -292 174l110 46c29 -64 105 -104 172 -104c82 0 148 36 148 100c0 75 -72 95 -170 95h-68v110h72
c92 0 152 41 152 95c0 56 -60 87 -139 87c-86 0 -129 -37 -160 -95z" />
    <glyph glyph-name="four" unicode="4" horiz-adv-x="668" 
d="M414 0v133h-396v78l413 489h100v-460h119v-107h-119v-133h-117zM178 240h236v269z" />
    <glyph glyph-name="five" unicode="5" horiz-adv-x="609" 
d="M58 317l32 383h457v-113h-351l-15 -155c28 14 64 25 124 25c172 0 262 -94 262 -230c0 -143 -113 -235 -269 -235c-107 0 -231 41 -275 170l112 41c24 -62 95 -95 169 -95c88 0 139 48 139 115c0 79 -57 125 -152 125c-59 0 -100 -15 -132 -41z" />
    <glyph glyph-name="six" unicode="6" horiz-adv-x="666" 
d="M37 331c0 252 148 378 335 378c111 0 183 -43 228 -91l-67 -85c-38 33 -94 59 -163 59c-113 0 -214 -74 -213 -221c43 63 125 107 212 107c168 0 267 -93 267 -236c0 -149 -117 -251 -280 -251c-190 0 -319 120 -319 340zM176 255c12 -73 63 -148 185 -148
c83 0 151 51 151 129c0 82 -54 129 -156 129c-87 0 -167 -65 -180 -110z" />
    <glyph glyph-name="seven" unicode="7" horiz-adv-x="574" 
d="M15 587v113h544v-76l-330 -624h-127l314 587h-401z" />
    <glyph glyph-name="eight" unicode="8" horiz-adv-x="678" 
d="M325 411h29c73 0 137 36 137 95c0 60 -55 92 -153 92c-85 0 -152 -32 -152 -91c0 -55 56 -96 139 -96zM352 308h-24c-102 0 -164 -46 -164 -102c0 -64 65 -105 175 -105c106 0 174 39 174 103c0 65 -58 104 -161 104zM340 -8c-176 0 -300 76 -300 203
c0 76 41 141 117 168c-73 31 -95 90 -95 149c0 118 102 196 277 196c180 0 277 -78 277 -196c0 -62 -35 -121 -105 -147c96 -24 127 -89 127 -166c0 -132 -130 -207 -298 -207z" />
    <glyph glyph-name="nine" unicode="9" horiz-adv-x="660" 
d="M623 369c0 -256 -143 -378 -325 -378c-111 0 -183 43 -228 91l67 85c38 -33 94 -59 163 -59c115 0 202 79 202 207c-35 -53 -118 -89 -206 -89c-164 0 -266 95 -266 232c0 149 129 251 279 251c186 0 314 -120 314 -340zM488 432c-1 73 -64 161 -178 161
c-81 0 -156 -51 -156 -129c0 -82 66 -129 156 -129c77 0 165 52 178 97z" />
    <glyph glyph-name="colon" unicode=":" horiz-adv-x="321" 
d="M80 73c0 35 32 73 81 73c46 0 80 -38 80 -73c0 -39 -34 -75 -80 -75c-49 0 -81 36 -81 75zM80 447c0 35 32 73 81 73c46 0 80 -38 80 -73c0 -39 -34 -75 -80 -75c-49 0 -81 36 -81 75z" />
    <glyph glyph-name="semicolon" unicode=";" horiz-adv-x="320" 
d="M150 0c-49 -6 -73 40 -73 69c0 39 28 77 80 77c64 0 83 -57 83 -110c0 -94 -82 -163 -152 -178l-28 66c33 6 86 45 90 76zM78 447c0 35 32 73 81 73c46 0 80 -38 80 -73c0 -39 -34 -75 -80 -75c-49 0 -81 36 -81 75z" />
    <glyph glyph-name="less" unicode="&#x3c;" horiz-adv-x="556" 
d="M481 53l-453 285v47l453 282v-123l-295 -183l295 -185v-123z" />
    <glyph glyph-name="equal" unicode="=" horiz-adv-x="579" 
d="M64 402v99h452v-99h-452zM64 217v99h452v-99h-452z" />
    <glyph glyph-name="greater" unicode="&#x3e;" horiz-adv-x="556" 
d="M528 338l-453 -285v123l297 185l-297 183v123l453 -282v-47z" />
    <glyph glyph-name="question" unicode="?" horiz-adv-x="610" 
d="M446 500c0 48 -35 92 -148 92c-86 0 -135 -47 -159 -113l-109 31c25 123 128 198 266 198c186 0 274 -78 274 -188c0 -208 -236 -180 -236 -272c0 -15 3 -20 4 -34l-109 -1c-5 17 -7 39 -7 54c0 140 224 128 224 233zM198 73c0 35 32 73 81 73c46 0 80 -38 80 -73
c0 -39 -34 -75 -80 -75c-49 0 -81 36 -81 75z" />
    <glyph glyph-name="at" unicode="@" horiz-adv-x="970" 
d="M587 0v33c-25 -23 -69 -41 -121 -41c-131 0 -226 96 -226 240c0 140 112 247 263 247c69 0 141 -18 198 -60v-313c71 11 110 68 110 174c0 178 -133 282 -317 282c-189 0 -334 -135 -334 -326c0 -185 137 -327 334 -327c46 0 88 5 132 19l8 -103
c-39 -11 -93 -19 -140 -19c-272 0 -443 189 -443 430c0 249 185 428 443 428s426 -153 426 -382c0 -137 -81 -282 -248 -282h-85zM486 94c40 0 82 27 101 58v202c-23 15 -56 23 -85 23c-83 0 -145 -63 -145 -149c0 -82 52 -134 129 -134z" />
    <glyph glyph-name="A" unicode="A" horiz-adv-x="704" 
d="M-1 0l307 700h92l307 -700h-127l-68 155h-319l-67 -155h-125zM350 525l-115 -266h230z" />
    <glyph glyph-name="B" unicode="B" horiz-adv-x="675" 
d="M70 0v700h297c187 0 244 -74 244 -176c0 -73 -33 -125 -84 -156c67 -21 108 -74 108 -164c0 -145 -112 -204 -274 -204h-291zM361 302h-170v-188h162c110 0 156 29 156 97c0 62 -42 91 -148 91zM351 586h-160v-174h173c77 0 122 32 122 85c0 59 -31 89 -135 89z" />
    <glyph glyph-name="C" unicode="C" horiz-adv-x="692" 
d="M606 200l71 -78c-58 -82 -165 -130 -284 -130c-220 0 -360 141 -360 358c0 200 141 358 358 358c127 0 227 -51 275 -121l-80 -76c-48 53 -113 81 -189 81c-144 0 -238 -96 -238 -242s100 -242 243 -242c88 0 156 35 204 92z" />
    <glyph glyph-name="D" unicode="D" horiz-adv-x="716" 
d="M70 0v700h219c291 0 394 -158 394 -341c0 -200 -123 -359 -407 -359h-206zM287 586h-96v-472h94c193 0 272 100 272 245c0 133 -71 227 -270 227z" />
    <glyph glyph-name="E" unicode="E" horiz-adv-x="645" 
d="M70 0v700h520v-114h-399v-176h373v-110h-373v-186h409v-114h-530z" />
    <glyph glyph-name="F" unicode="F" horiz-adv-x="615" 
d="M70 0v700h515v-114h-394v-198h368v-114h-368v-274h-121z" />
    <glyph glyph-name="G" unicode="G" horiz-adv-x="715" 
d="M380 264v110h302v-271c-65 -71 -170 -111 -276 -111c-216 0 -373 141 -373 358c0 200 150 358 360 358c118 0 221 -42 273 -113l-81 -77c-41 46 -104 74 -186 74c-145 0 -240 -94 -240 -242c0 -154 105 -242 249 -242c54 0 113 14 158 49v107h-186z" />
    <glyph glyph-name="H" unicode="H" horiz-adv-x="749" 
d="M558 0v297h-367v-297h-121v700h121v-289h367v289h121v-700h-121z" />
    <glyph glyph-name="I" unicode="I" horiz-adv-x="261" 
d="M70 0v700h121v-700h-121z" />
    <glyph glyph-name="J" unicode="J" horiz-adv-x="486" 
d="M419 700v-483c0 -146 -84 -225 -210 -225c-117 0 -184 65 -216 130l90 68c26 -44 65 -85 116 -85c66 1 99 32 99 135v460h121z" />
    <glyph glyph-name="K" unicode="K" horiz-adv-x="680" 
d="M70 0v700h121v-307l314 307h158l-318 -314l341 -386h-161l-271 305l-63 -61v-244h-121z" />
    <glyph glyph-name="L" unicode="L" horiz-adv-x="598" 
d="M70 0v700h121v-586h397v-114h-518z" />
    <glyph glyph-name="M" unicode="M" horiz-adv-x="844" 
d="M70 0v700h107l250 -325l241 325h106v-700h-121v485l-213 -278h-31l-218 279v-486h-121z" />
    <glyph glyph-name="N" unicode="N" horiz-adv-x="738" 
d="M668 0h-94l-386 477v-477h-118v700h94l386 -479v479h118v-700z" />
    <glyph glyph-name="O" unicode="O" horiz-adv-x="782" 
d="M33 350c0 202 157 358 358 358c199 0 358 -150 358 -358c0 -206 -159 -358 -358 -358c-198 0 -358 150 -358 358zM159 350c0 -145 108 -242 232 -242c130 0 232 97 232 242c0 146 -110 242 -232 242c-125 0 -232 -96 -232 -242z" />
    <glyph glyph-name="P" unicode="P" horiz-adv-x="678" 
d="M191 0h-121v700h283c236 0 291 -119 291 -230c0 -115 -74 -230 -292 -230h-161v-240zM357 587h-166v-234h159c118 0 168 46 168 118c0 67 -42 116 -161 116z" />
    <glyph glyph-name="Q" unicode="Q" horiz-adv-x="782" 
d="M33 350c0 202 157 358 358 358c199 0 358 -150 358 -358c0 -95 -34 -183 -102 -253l65 -79l-84 -68l-68 83c-50 -27 -107 -41 -169 -41c-207 0 -358 150 -358 358zM159 350c0 -145 101 -242 232 -242c34 0 67 8 98 24l-57 67l77 66l60 -73c34 39 54 94 54 158
c0 146 -102 242 -232 242c-131 0 -232 -96 -232 -242z" />
    <glyph glyph-name="R" unicode="R" horiz-adv-x="683" 
d="M191 0h-121v700h275c218 0 276 -106 276 -218c0 -96 -61 -175 -154 -202l210 -280h-147l-191 257h-148v-257zM342 586h-151v-215h157c92 0 147 42 147 111c0 61 -35 104 -153 104z" />
    <glyph glyph-name="S" unicode="S" horiz-adv-x="631" 
d="M476 190c0 158 -432 64 -432 320c0 108 112 198 274 198c114 0 210 -38 271 -100l-66 -86c-60 50 -124 73 -208 73c-74 0 -146 -23 -146 -82c0 -141 432 -57 432 -314c0 -123 -121 -207 -269 -207c-126 0 -248 57 -308 128l72 85c60 -63 149 -100 247 -100
c84 0 133 32 133 85z" />
    <glyph glyph-name="T" unicode="T" horiz-adv-x="593" 
d="M1 586v114h591v-114h-235v-586h-121v586h-235z" />
    <glyph glyph-name="U" unicode="U" horiz-adv-x="726" 
d="M662 700v-402c0 -218 -146 -305 -291 -305c-164 0 -308 104 -308 311v396h121v-381c0 -128 76 -213 187 -213c117 0 170 88 170 209v385h121z" />
    <glyph glyph-name="V" unicode="V" horiz-adv-x="722" 
d="M728 700l-316 -700h-86l-333 700h131l246 -525l230 525h128z" />
    <glyph glyph-name="W" unicode="W" horiz-adv-x="967" 
d="M966 700l-207 -700h-101l-171 487l-166 -487h-102l-218 700h126l149 -484l163 484h99l166 -482l142 482h120z" />
    <glyph glyph-name="X" unicode="X" horiz-adv-x="682" 
d="M667 700l-253 -345l262 -355h-148l-187 257l-187 -257h-147l262 355l-251 345h145l179 -245l179 245h146z" />
    <glyph glyph-name="Y" unicode="Y" horiz-adv-x="671" 
d="M678 700l-283 -397v-303h-121v303l-281 397h150l193 -279l197 279h145z" />
    <glyph glyph-name="Z" unicode="Z" horiz-adv-x="633" 
d="M29 586v114h574v-81l-418 -505h428v-114h-601v81l416 505h-399z" />
    <glyph glyph-name="bracketleft" unicode="[" horiz-adv-x="348" 
d="M60 -183v892h279v-112h-158v-668h158v-112h-279z" />
    <glyph glyph-name="backslash" unicode="\" horiz-adv-x="357" 
d="M65 717l328 -881l-101 -39l-329 887z" />
    <glyph glyph-name="bracketright" unicode="]" horiz-adv-x="348" 
d="M288 709v-892h-279v112h158v668h-158v112h279z" />
    <glyph glyph-name="asciicircum" unicode="^" horiz-adv-x="515" 
d="M23 412l200 295h71l198 -295h-131l-103 158l-105 -158h-130z" />
    <glyph glyph-name="underscore" unicode="_" horiz-adv-x="332" 
d="M0 -183v103h332v-103h-332z" />
    <glyph glyph-name="grave" unicode="`" horiz-adv-x="367" 
d="M300 598l-137 154l89 67l115 -167z" />
    <glyph glyph-name="a" unicode="a" horiz-adv-x="534" 
d="M109 371l-56 84c49 48 133 77 218 77c137 0 213 -78 213 -214v-318h-114v57c-31 -34 -84 -63 -161 -63c-114 0 -189 64 -189 164c0 116 105 165 243 165c37 0 83 -6 107 -14c1 75 -28 117 -112 117c-57 0 -99 -17 -149 -55zM234 93c69 0 113 36 136 71v50
c-21 7 -58 14 -95 14c-82 0 -137 -17 -137 -69c0 -41 38 -66 96 -66z" />
    <glyph glyph-name="b" unicode="b" horiz-adv-x="590" 
d="M53 82v648h114v-257c37 38 89 59 151 59c156 0 243 -109 243 -263c0 -172 -109 -278 -271 -278c-91 0 -181 31 -237 91zM297 426c-57 0 -106 -36 -130 -80v-201c31 -35 79 -48 126 -48c85 0 150 58 150 166c0 105 -59 163 -146 163z" />
    <glyph glyph-name="c" unicode="c" horiz-adv-x="538" 
d="M451 171l81 -52c-43 -84 -133 -128 -223 -128c-167 0 -280 106 -280 270c0 154 110 271 274 271c107 0 189 -49 223 -118l-85 -56c-35 47 -74 68 -133 68c-94 0 -161 -67 -161 -165c0 -94 68 -164 173 -164c59 0 102 30 131 74z" />
    <glyph glyph-name="d" unicode="d" horiz-adv-x="593" 
d="M426 0v57c-18 -25 -69 -65 -146 -65c-147 0 -251 97 -251 267c0 161 117 273 259 273c74 0 114 -18 138 -39v237h114v-730h-114zM301 98c59 0 108 42 125 81v190c-24 34 -61 57 -119 57c-87 0 -160 -61 -160 -165c0 -102 64 -163 154 -163z" />
    <glyph glyph-name="e" unicode="e" horiz-adv-x="569" 
d="M449 166l70 -69c-53 -71 -126 -106 -211 -106c-167 0 -279 106 -279 270c0 152 93 271 267 271c140 0 244 -94 244 -238c0 -17 -2 -42 -6 -73h-386c9 -82 76 -124 162 -124c56 0 108 27 139 69zM291 429c-77 0 -127 -42 -142 -109h273c-9 72 -58 109 -131 109z" />
    <glyph glyph-name="f" unicode="f" horiz-adv-x="343" 
d="M3 414v106h84v17c0 149 90 201 182 201c56 0 107 -23 134 -61l-64 -72c-12 15 -31 27 -64 27c-46 0 -74 -28 -74 -98v-14h146v-106h-146v-414h-114v414h-84z" />
    <glyph glyph-name="g" unicode="g" horiz-adv-x="589" 
d="M536 520v-478c0 -174 -97 -251 -240 -251c-118 0 -205 51 -236 134l99 43c19 -36 61 -71 128 -71c93 0 135 47 135 124v23c-20 -31 -61 -53 -138 -53c-150 0 -255 97 -255 270c0 168 119 268 256 268c71 0 113 -20 137 -43v34h114zM303 97c61 0 104 38 119 79v192
c-21 32 -60 55 -120 55c-84 0 -155 -56 -155 -164c0 -103 60 -162 156 -162z" />
    <glyph glyph-name="h" unicode="h" horiz-adv-x="584" 
d="M53 0v730h114v-255c40 40 96 56 151 56c137 0 216 -73 216 -238v-293h-114v286c0 98 -40 139 -126 139c-56 0 -102 -34 -127 -86v-339h-114z" />
    <glyph glyph-name="i" unicode="i" horiz-adv-x="239" 
d="M63 0v520h114v-520h-114zM53 669c0 34 29 60 67 60c37 0 66 -26 66 -60c0 -36 -29 -62 -66 -62c-40 0 -67 26 -67 62z" />
    <glyph glyph-name="j" unicode="j" horiz-adv-x="239" 
d="M178 520v-521c0 -130 -55 -208 -172 -208c-74 0 -135 28 -166 100l97 43c12 -19 26 -37 60 -37c44 0 67 34 67 105v518h114zM54 670c0 34 27 60 67 60c37 0 65 -26 65 -60c0 -37 -26 -63 -65 -63c-40 0 -67 26 -67 63z" />
    <glyph glyph-name="k" unicode="k" horiz-adv-x="528" 
d="M53 0v730h114v-415l210 205h147l-237 -229l249 -291h-145l-191 216l-33 -26v-190h-114z" />
    <glyph glyph-name="l" unicode="l" horiz-adv-x="220" 
d="M53 0v730h114v-730h-114z" />
    <glyph glyph-name="m" unicode="m" horiz-adv-x="851" 
d="M801 345v-345h-114v313c0 63 -20 112 -87 112c-53 0 -94 -31 -116 -80v-345h-114v338c0 51 -31 87 -85 87c-61 0 -102 -45 -118 -85v-340h-114v520h114v-45c28 39 82 56 142 56c66 0 110 -18 141 -64c40 47 91 64 157 64c119 0 194 -58 194 -186z" />
    <glyph glyph-name="n" unicode="n" horiz-adv-x="586" 
d="M53 0v520h114v-47c41 40 88 58 160 58c135 0 209 -71 209 -237v-294h-114v285c0 100 -42 140 -128 140c-56 0 -104 -34 -127 -88v-337h-114z" />
    <glyph glyph-name="o" unicode="o" horiz-adv-x="615" 
d="M29 261c0 157 113 271 278 271c164 0 279 -114 279 -271c0 -156 -115 -270 -279 -270c-162 0 -278 114 -278 270zM147 261c0 -94 65 -164 160 -164s161 64 161 164c0 101 -71 165 -161 165c-91 0 -160 -63 -160 -165z" />
    <glyph glyph-name="p" unicode="p" horiz-adv-x="592" 
d="M53 -200v720h114v-47c33 41 92 59 144 59c156 0 252 -109 252 -263c0 -159 -104 -278 -260 -278c-58 0 -113 15 -136 43v-234h-114zM299 426c-66 0 -111 -40 -132 -85v-180c25 -42 72 -64 123 -64c93 0 155 66 155 163c0 105 -56 166 -146 166z" />
    <glyph glyph-name="q" unicode="q" horiz-adv-x="589" 
d="M422 -200v241c-22 -26 -68 -50 -137 -50c-151 0 -256 106 -256 270c0 160 122 268 274 268c55 0 93 -11 119 -33v24h114v-720h-114zM301 97c53 0 101 28 121 69v209c-26 34 -67 48 -118 48c-86 0 -157 -66 -157 -164c0 -102 67 -162 154 -162z" />
    <glyph glyph-name="r" unicode="r" horiz-adv-x="363" 
d="M53 0v520h114v-35c14 27 56 46 94 46c52 0 80 -17 103 -46l-65 -83c-10 15 -26 23 -52 23c-35 0 -68 -24 -80 -73v-352h-114z" />
    <glyph glyph-name="s" unicode="s" horiz-adv-x="496" 
d="M356 148c0 78 -315 51 -315 229c0 96 80 155 214 155c92 0 176 -43 210 -92l-78 -74c-31 36 -86 60 -151 60c-42 0 -77 -11 -77 -47c0 -72 315 -47 315 -230c0 -109 -99 -158 -214 -158c-116 0 -204 54 -241 125l90 62c29 -46 94 -81 162 -81c44 0 85 14 85 51z" />
    <glyph glyph-name="t" unicode="t" horiz-adv-x="413" 
d="M3 414v106h90v107h114v-107h168v-106h-168v-201c0 -84 20 -113 67 -113c32 0 56 21 74 44l68 -64c-28 -49 -88 -86 -159 -86c-99 0 -164 63 -164 187v233h-90z" />
    <glyph glyph-name="u" unicode="u" horiz-adv-x="578" 
d="M525 523v-523h-114v55c-32 -36 -80 -64 -145 -64c-144 0 -216 73 -216 233v299h114v-288c0 -76 23 -138 113 -138c60 0 105 32 134 90v336h114z" />
    <glyph glyph-name="v" unicode="v" horiz-adv-x="519" 
d="M538 520l-231 -520h-84l-242 520h129l157 -347l150 347h121z" />
    <glyph glyph-name="w" unicode="w" horiz-adv-x="755" 
d="M765 520l-168 -520h-91l-126 338l-127 -338h-89l-174 520h118l108 -329l122 329h86l124 -330l101 330h116z" />
    <glyph glyph-name="x" unicode="x" horiz-adv-x="555" 
d="M548 520l-199 -251l209 -269h-141l-141 185l-144 -185h-135l208 267l-198 253h140l132 -167l132 167h137z" />
    <glyph glyph-name="y" unicode="y" horiz-adv-x="548" 
d="M75 -194l45 97c7 -4 14 -6 23 -6c29 0 56 23 82 87l18 47l-256 489h132l179 -351l138 351h122l-204 -505c-70 -172 -123 -224 -207 -224c-28 0 -52 5 -72 15z" />
    <glyph glyph-name="z" unicode="z" horiz-adv-x="504" 
d="M36 414v106h448v-73l-292 -341h287v-106h-459v74l292 340h-276z" />
    <glyph glyph-name="braceleft" unicode="{" horiz-adv-x="345" 
d="M96 -38v165c0 63 -29 85 -83 85v101c53 0 83 12 83 79v165c0 108 44 152 158 152h78v-101h-55c-50 0 -66 -24 -66 -79v-161c0 -48 -18 -87 -58 -103c40 -13 58 -49 58 -106v-167c0 -56 16 -74 66 -74h55v-101h-90c-95 0 -146 42 -146 145z" />
    <glyph glyph-name="bar" unicode="|" horiz-adv-x="312" 
d="M97 0v700h118v-700h-118z" />
    <glyph glyph-name="braceright" unicode="}" horiz-adv-x="345" 
d="M249 127v-165c0 -103 -50 -145 -146 -145h-90v101h55c50 0 66 18 66 74v167c0 57 18 93 58 106c-40 16 -58 55 -58 103v161c0 55 -15 79 -65 79h-56v101h78c115 0 158 -44 158 -152v-165c0 -67 30 -79 83 -79v-101c-54 0 -83 -22 -83 -85z" />
    <glyph glyph-name="asciitilde" unicode="~" horiz-adv-x="570" 
d="M84 280l-58 77c45 44 95 89 171 84c77 -5 131 -66 195 -66c35 0 74 22 102 59l50 -80c-42 -48 -99 -77 -146 -77c-94 0 -140 67 -211 67c-36 0 -72 -26 -103 -64z" />
    <glyph glyph-name="uni00A0" unicode="&#xa0;" horiz-adv-x="236" 
 />
    <glyph glyph-name="exclamdown" unicode="&#xa1;" horiz-adv-x="309" 
d="M96 -182v485h118v-485h-118zM73 445c0 39 32 75 81 75c46 0 80 -36 80 -75c0 -35 -34 -73 -80 -73c-49 0 -81 38 -81 73z" />
    <glyph glyph-name="cent" unicode="&#xa2;" horiz-adv-x="538" 
d="M451 171l81 -52c-35 -69 -101 -111 -173 -123v-196h-120v198c-128 25 -210 123 -210 263c0 133 82 238 210 264v175h120v-173c79 -14 139 -57 167 -113l-85 -56c-27 36 -56 57 -95 64v-323c46 7 80 34 105 72zM147 261c0 -72 40 -130 106 -153v309
c-64 -21 -106 -79 -106 -156z" />
    <glyph glyph-name="sterling" unicode="&#xa3;" horiz-adv-x="595" 
d="M64 260v96h57c-16 40 -36 79 -36 144c0 107 85 207 225 207c83 0 161 -30 213 -89l-64 -91c-52 52 -103 67 -151 67c-54 0 -101 -38 -101 -102c0 -47 24 -86 41 -136h168v-96h-148c1 -7 1 -13 1 -21c0 -39 -12 -77 -29 -98c57 -2 117 -41 176 -41c43 0 64 14 99 55
l59 -79c-42 -51 -95 -77 -157 -77c-84 0 -145 45 -223 45c-39 0 -77 -13 -119 -54l-53 85c33 33 66 52 96 62c22 28 33 60 33 98c0 10 -1 17 -2 25h-85z" />
    <glyph glyph-name="currency" unicode="&#xa4;" horiz-adv-x="630" 
d="M75 347c0 47 12 91 37 130l-86 87l74 73l88 -87c33 20 78 35 127 35c51 0 92 -13 127 -35l93 91l74 -73l-91 -92c23 -37 38 -85 38 -129c0 -45 -14 -91 -38 -128l87 -88l-73 -74l-89 89c-34 -23 -78 -36 -128 -36c-52 0 -93 12 -129 36l-93 -93l-72 73l91 93
c-23 37 -37 83 -37 128zM189 347c0 -73 52 -131 126 -131c75 0 127 58 127 131c0 76 -53 133 -127 133c-75 0 -126 -58 -126 -133z" />
    <glyph glyph-name="yen" unicode="&#xa5;" horiz-adv-x="671" 
d="M109 302v99h95l-211 299h150l193 -279l197 279h145l-213 -299h96v-99h-166v-85h166v-99h-166v-118h-121v118h-165v99h165v85h-165z" />
    <glyph glyph-name="brokenbar" unicode="&#xa6;" horiz-adv-x="312" 
d="M215 403h-118v297h118v-297zM97 297h118v-297h-118v297z" />
    <glyph glyph-name="section" unicode="&#xa7;" horiz-adv-x="507" 
d="M44 258c0 79 38 138 101 167c-30 24 -55 63 -55 117c0 95 77 158 175 158c81 0 132 -47 162 -86l-75 -68c-21 25 -45 42 -81 42c-34 0 -61 -26 -61 -58c0 -43 28 -63 64 -78c114 -10 189 -90 189 -194c0 -77 -42 -139 -102 -169c31 -25 54 -65 54 -112
c0 -96 -73 -160 -174 -160c-82 0 -132 45 -162 84l70 81c20 -29 50 -53 92 -53c33 0 59 24 59 60c0 34 -31 61 -69 74c-116 10 -187 89 -187 195zM159 258c0 -56 43 -97 94 -97c53 0 94 41 94 97c0 55 -41 97 -94 97c-52 0 -94 -42 -94 -97z" />
    <glyph glyph-name="dieresis" unicode="&#xa8;" horiz-adv-x="473" 
d="M126 672c0 34 30 58 63 58c31 0 64 -24 64 -58c0 -38 -33 -61 -64 -61c-33 0 -63 23 -63 61zM343 672c0 34 31 58 66 58c32 0 64 -24 64 -58c0 -38 -30 -61 -64 -61c-35 0 -66 23 -66 61z" />
    <glyph glyph-name="copyright" unicode="&#xa9;" horiz-adv-x="966" 
d="M52 232c0 236 185 425 431 425s431 -177 431 -425c0 -244 -185 -426 -431 -426s-431 172 -431 426zM157 232c0 -183 142 -327 326 -327c189 0 326 142 326 327c0 192 -133 326 -326 326c-184 0 -326 -146 -326 -326zM629 157l62 -71c-39 -57 -120 -94 -191 -94
c-149 0 -254 96 -254 244c0 136 104 243 241 243c73 0 147 -28 194 -85l-71 -68c-30 31 -69 50 -114 50c-79 0 -130 -57 -130 -137c0 -90 60 -146 140 -146c38 0 81 15 123 64z" />
    <glyph glyph-name="ordfeminine" unicode="&#xaa;" horiz-adv-x="455" 
d="M104 533l-36 72c40 26 93 42 165 43c101 0 158 -52 158 -140v-209h-101v36c-18 -23 -46 -40 -106 -40c-83 0 -137 43 -137 108c0 76 76 107 174 107c26 0 52 -3 69 -8c0 38 -16 58 -74 58c-35 0 -73 -9 -112 -27zM212 379c41 0 65 19 78 36v19c-14 4 -36 10 -72 10
c-38 0 -66 -11 -66 -34c0 -21 19 -31 60 -31z" />
    <glyph glyph-name="guillemotleft" unicode="&#xab;" horiz-adv-x="553" 
d="M222 38l-185 218v6l185 212l78 -69l-127 -147l127 -148zM432 38l-184 218v6l185 212l78 -69l-127 -147l127 -148z" />
    <glyph glyph-name="logicalnot" unicode="&#xac;" horiz-adv-x="545" 
d="M35 310v99h475v-219h-96v120h-379z" />
    <glyph glyph-name="uni00AD" unicode="&#xad;" horiz-adv-x="416" 
d="M69 227v101h278v-101h-278z" />
    <glyph glyph-name="registered" unicode="&#xae;" horiz-adv-x="577" 
d="M38 485c0 134 112 243 251 243c137 0 250 -109 250 -243c0 -137 -113 -246 -250 -246c-139 0 -251 109 -251 246zM82 484c0 -115 93 -201 206 -201c114 0 207 97 207 201c0 113 -98 201 -207 201c-115 0 -206 -94 -206 -201zM254 341h-83v290h110c99 0 129 -45 129 -96
c0 -41 -22 -71 -51 -84l66 -110h-94l-46 81h-31v-81zM321 527c0 21 -12 30 -37 30h-30v-59h32c20 0 35 11 35 29z" />
    <glyph glyph-name="macron" unicode="&#xaf;" horiz-adv-x="451" 
d="M170 625v95h281v-95h-281z" />
    <glyph glyph-name="degree" unicode="&#xb0;" horiz-adv-x="410" 
d="M38 551c0 91 75 162 167 162s167 -69 167 -161c0 -89 -75 -162 -167 -162s-167 71 -167 161zM146 551c0 -34 28 -56 59 -56s59 22 59 56c0 35 -28 57 -59 57s-59 -22 -59 -57z" />
    <glyph glyph-name="plusminus" unicode="&#xb1;" horiz-adv-x="552" 
d="M51 382v98h175v183h99v-183h177v-98h-177v-109h-99v109h-175zM51 139v99h451v-99h-451z" />
    <glyph glyph-name="twosuperior" unicode="&#xb2;" horiz-adv-x="421" 
d="M110 568l-75 46c30 71 98 110 182 110c96 0 155 -50 155 -123c0 -81 -56 -137 -113 -174l-52 -33h181v-94h-345v81l88 54c73 45 136 94 136 142c0 35 -20 53 -59 53c-49 0 -80 -27 -98 -62z" />
    <glyph glyph-name="threesuperior" unicode="&#xb3;" horiz-adv-x="429" 
d="M106 579l-70 54c33 54 94 92 180 92c99 0 161 -41 161 -105c0 -48 -22 -76 -63 -96c33 -10 73 -35 73 -99c0 -80 -76 -130 -177 -130c-75 0 -147 30 -183 104l78 48c14 -35 54 -58 105 -58c47 0 71 13 71 41c0 32 -31 41 -73 41h-47v81h39c46 0 71 15 71 43
c0 23 -19 36 -57 36c-54 0 -82 -17 -108 -52z" />
    <glyph glyph-name="acute" unicode="&#xb4;" horiz-adv-x="447" 
d="M431 755l-127 -157l-77 54l118 167z" />
    <glyph glyph-name="mu" unicode="&#xb5;" horiz-adv-x="583" 
d="M530 520v-520h-114v44c-30 -29 -81 -53 -150 -53c-39 0 -75 12 -99 32v-222h-114v719h114v-285c0 -95 34 -138 117 -138c51 0 104 27 132 59v364h114z" />
    <glyph glyph-name="mu" unicode="&#x3bc;" horiz-adv-x="583" 
d="M530 520v-520h-114v44c-30 -29 -81 -53 -150 -53c-39 0 -75 12 -99 32v-222h-114v719h114v-285c0 -95 34 -138 117 -138c51 0 104 27 132 59v364h114z" />
    <glyph glyph-name="paragraph" unicode="&#xb6;" horiz-adv-x="446" 
d="M32 470c0 143 87 230 225 230h164v-101h-86v-577c0 -116 -30 -213 -168 -213c-48 0 -101 20 -133 55l50 87c26 -20 51 -29 79 -29c43 0 56 33 56 100v222c-107 14 -187 95 -187 226z" />
    <glyph glyph-name="periodcentered" unicode="&#xb7;" horiz-adv-x="236" 
d="M39 301c0 29 28 61 70 61c38 0 67 -32 67 -61c0 -34 -29 -64 -67 -64c-42 0 -70 30 -70 64z" />
    <glyph glyph-name="cedilla" unicode="&#xb8;" horiz-adv-x="448" 
d="M192 -166l35 59c18 -14 45 -25 78 -25c30 0 40 7 40 21c0 17 -18 23 -50 23h-13v88h63v-32c68 -4 103 -36 103 -85c0 -51 -44 -90 -137 -90c-60 0 -96 23 -119 41z" />
    <glyph glyph-name="onesuperior" unicode="&#xb9;" horiz-adv-x="315" 
d="M10 653l162 68h77v-421h-105v305l-97 -40z" />
    <glyph glyph-name="ordmasculine" unicode="&#xba;" horiz-adv-x="462" 
d="M47 472c0 106 75 176 184 176c110 0 185 -70 185 -176c0 -104 -75 -177 -185 -177c-109 0 -184 73 -184 177zM152 472c0 -49 37 -80 79 -80c47 0 80 31 80 80s-37 78 -80 78c-45 0 -79 -29 -79 -78z" />
    <glyph glyph-name="guillemotright" unicode="&#xbb;" horiz-adv-x="553" 
d="M511 256l-184 -218l-79 72l128 148l-127 147l77 69l185 -212v-6zM301 256l-185 -218l-78 72l127 148l-127 147l77 69l186 -212v-6z" />
    <glyph glyph-name="onequarter" unicode="&#xbc;" horiz-adv-x="886" 
d="M110 48l549 672l83 -66l-547 -676zM27 653l162 68h77v-421h-105v305l-97 -40zM685 0v76h-246v73l258 271h87v-253h76v-91h-76v-76h-99zM560 167h125v126z" />
    <glyph glyph-name="onehalf" unicode="&#xbd;" horiz-adv-x="938" 
d="M110 48l549 672l83 -66l-547 -676zM27 653l162 68h77v-421h-105v305l-97 -40zM614 268l-75 46c30 71 98 110 182 110c96 0 155 -50 155 -123c0 -81 -56 -137 -113 -174l-52 -33h181v-94h-345v81l88 54c73 45 136 94 136 142c0 35 -20 53 -59 53c-49 0 -80 -27 -98 -62z
" />
    <glyph glyph-name="threequarters" unicode="&#xbe;" horiz-adv-x="943" 
d="M167 48l549 672l83 -66l-547 -676zM741 0v76h-246v73l258 271h87v-253h76v-91h-76v-76h-99zM616 167h125v126zM106 579l-70 54c33 54 94 92 180 92c99 0 161 -41 161 -105c0 -48 -22 -76 -63 -96c33 -10 73 -35 73 -99c0 -80 -76 -130 -177 -130c-75 0 -147 30 -183 104
l78 48c14 -35 54 -58 105 -58c47 0 71 13 71 41c0 32 -31 41 -73 41h-47v81h39c46 0 71 15 71 43c0 23 -19 36 -57 36c-54 0 -82 -17 -108 -52z" />
    <glyph glyph-name="questiondown" unicode="&#xbf;" horiz-adv-x="610" 
d="M164 18c0 -48 35 -92 148 -92c86 0 135 47 159 113l109 -31c-25 -123 -128 -198 -266 -198c-186 0 -274 78 -274 188c0 208 236 180 236 272c0 15 -3 20 -4 34l109 1c5 -17 7 -39 7 -54c0 -140 -224 -128 -224 -233zM412 445c0 -35 -32 -73 -81 -73c-46 0 -80 38 -80 73
c0 39 34 75 80 75c49 0 81 -36 81 -75z" />
    <glyph glyph-name="Agrave" unicode="&#xc0;" horiz-adv-x="704" 
d="M-1 0l307 700h92l307 -700h-127l-68 155h-319l-67 -155h-125zM350 525l-115 -266h230zM395 745l-219 104l53 100l210 -128z" />
    <glyph glyph-name="Aacute" unicode="&#xc1;" horiz-adv-x="704" 
d="M-1 0l307 700h92l307 -700h-127l-68 155h-319l-67 -155h-125zM350 525l-115 -266h230zM552 849l-220 -104l-43 76l210 128z" />
    <glyph glyph-name="Acircumflex" unicode="&#xc2;" horiz-adv-x="704" 
d="M-1 0l307 700h92l307 -700h-127l-68 155h-319l-67 -155h-125zM350 525l-115 -266h230zM350 929l184 -111l-47 -69l-139 73l-138 -73l-40 67l176 113h4z" />
    <glyph glyph-name="Atilde" unicode="&#xc3;" horiz-adv-x="704" 
d="M-1 0l307 700h92l307 -700h-127l-68 155h-319l-67 -155h-125zM350 525l-115 -266h230zM204 779l-36 72c29 34 77 56 115 56c60 0 91 -36 145 -36c23 0 51 4 76 31l31 -72c-28 -41 -72 -60 -117 -60c-52 0 -91 36 -148 36c-21 0 -43 -8 -66 -27z" />
    <glyph glyph-name="Adieresis" unicode="&#xc4;" horiz-adv-x="704" 
d="M-1 0l307 700h92l307 -700h-127l-68 155h-319l-67 -155h-125zM350 525l-115 -266h230zM162 828c0 36 30 62 70 62c32 0 66 -26 66 -62c0 -38 -34 -62 -66 -62c-40 0 -70 24 -70 62zM405 828c0 36 32 62 69 62c33 0 66 -25 66 -62c0 -38 -33 -62 -66 -62
c-37 0 -69 24 -69 62z" />
    <glyph glyph-name="Aring" unicode="&#xc5;" horiz-adv-x="704" 
d="M-1 0l307 700h92l307 -700h-127l-68 155h-319l-67 -155h-125zM350 525l-115 -266h230zM213 838c0 75 64 109 137 109c77 0 142 -33 142 -109c0 -72 -62 -111 -142 -111c-77 0 -137 38 -137 111zM300 838c0 -28 20 -45 52 -45s53 17 53 45s-22 42 -53 42
c-32 0 -52 -15 -52 -42z" />
    <glyph glyph-name="AE" unicode="&#xc6;" horiz-adv-x="1133" 
d="M558 0v155h-308l-118 -155h-132l520 700h558v-114h-399v-176h373v-110h-373v-186h409v-114h-530zM324 259h234v314z" />
    <glyph glyph-name="Ccedilla" unicode="&#xc7;" horiz-adv-x="692" 
d="M254 -163l41 56c18 -14 46 -25 79 -25c29 0 39 7 39 21c0 17 -18 23 -50 23h-12v82c-196 17 -318 153 -318 356c0 200 141 358 358 358c127 0 227 -51 275 -121l-80 -76c-48 53 -113 81 -189 81c-144 0 -238 -96 -238 -242s100 -242 243 -242c88 0 156 35 204 92l71 -78
c-55 -77 -153 -124 -263 -129v-25c77 -4 109 -36 109 -85c0 -51 -36 -90 -129 -90c-75 0 -115 22 -140 44z" />
    <glyph glyph-name="Egrave" unicode="&#xc8;" horiz-adv-x="645" 
d="M70 0v700h520v-114h-399v-176h373v-110h-373v-186h409v-114h-530zM385 745l-219 104l53 100l210 -128z" />
    <glyph glyph-name="Eacute" unicode="&#xc9;" horiz-adv-x="645" 
d="M70 0v700h520v-114h-399v-176h373v-110h-373v-186h409v-114h-530zM515 849l-220 -104l-43 76l210 128z" />
    <glyph glyph-name="Ecircumflex" unicode="&#xca;" horiz-adv-x="645" 
d="M70 0v700h520v-114h-399v-176h373v-110h-373v-186h409v-114h-530zM336 929l184 -111l-47 -69l-139 73l-138 -73l-40 67l176 113h4z" />
    <glyph glyph-name="Edieresis" unicode="&#xcb;" horiz-adv-x="645" 
d="M70 0v700h520v-114h-399v-176h373v-110h-373v-186h409v-114h-530zM144 828c0 36 30 62 70 62c32 0 66 -26 66 -62c0 -38 -34 -62 -66 -62c-40 0 -70 24 -70 62zM387 828c0 36 32 62 69 62c33 0 66 -25 66 -62c0 -38 -33 -62 -66 -62c-37 0 -69 24 -69 62z" />
    <glyph glyph-name="Igrave" unicode="&#xcc;" horiz-adv-x="261" 
d="M70 0v700h121v-700h-121zM164 745l-219 104l53 100l210 -128z" />
    <glyph glyph-name="Iacute" unicode="&#xcd;" horiz-adv-x="261" 
d="M70 0v700h121v-700h-121zM325 849l-220 -104l-43 76l210 128z" />
    <glyph glyph-name="Icircumflex" unicode="&#xce;" horiz-adv-x="261" 
d="M70 0v700h121v-700h-121zM129 929l184 -111l-47 -69l-139 73l-138 -73l-40 67l176 113h4z" />
    <glyph glyph-name="Idieresis" unicode="&#xcf;" horiz-adv-x="261" 
d="M70 0v700h121v-700h-121zM-59 828c0 36 30 62 70 62c32 0 66 -26 66 -62c0 -38 -34 -62 -66 -62c-40 0 -70 24 -70 62zM184 828c0 36 32 62 69 62c33 0 66 -25 66 -62c0 -38 -33 -62 -66 -62c-37 0 -69 24 -69 62z" />
    <glyph glyph-name="Eth" unicode="&#xd0;" horiz-adv-x="778" 
d="M15 298v101h117v301h218c292 0 394 -158 394 -341c0 -200 -123 -359 -406 -359h-206v298h-117zM348 586h-95v-187h174v-101h-174v-184h94c193 0 271 100 271 245c0 133 -70 227 -270 227z" />
    <glyph glyph-name="Ntilde" unicode="&#xd1;" horiz-adv-x="738" 
d="M668 0h-94l-386 477v-477h-118v700h94l386 -479v479h118v-700zM222 779l-36 72c29 34 77 56 115 56c60 0 91 -36 145 -36c23 0 51 4 76 31l31 -72c-28 -41 -72 -60 -117 -60c-52 0 -91 36 -148 36c-21 0 -43 -8 -66 -27z" />
    <glyph glyph-name="Ograve" unicode="&#xd2;" horiz-adv-x="782" 
d="M33 350c0 202 157 358 358 358c199 0 358 -150 358 -358c0 -206 -159 -358 -358 -358c-198 0 -358 150 -358 358zM159 350c0 -145 108 -242 232 -242c130 0 232 97 232 242c0 146 -110 242 -232 242c-125 0 -232 -96 -232 -242zM438 745l-219 104l53 100l210 -128z" />
    <glyph glyph-name="Oacute" unicode="&#xd3;" horiz-adv-x="782" 
d="M33 350c0 202 157 358 358 358c199 0 358 -150 358 -358c0 -206 -159 -358 -358 -358c-198 0 -358 150 -358 358zM159 350c0 -145 108 -242 232 -242c130 0 232 97 232 242c0 146 -110 242 -232 242c-125 0 -232 -96 -232 -242zM582 849l-220 -104l-43 76l210 128z" />
    <glyph glyph-name="Ocircumflex" unicode="&#xd4;" horiz-adv-x="782" 
d="M33 350c0 202 157 358 358 358c199 0 358 -150 358 -358c0 -206 -159 -358 -358 -358c-198 0 -358 150 -358 358zM159 350c0 -145 108 -242 232 -242c130 0 232 97 232 242c0 146 -110 242 -232 242c-125 0 -232 -96 -232 -242zM389 929l184 -111l-47 -69l-139 73
l-138 -73l-40 67l176 113h4z" />
    <glyph glyph-name="Otilde" unicode="&#xd5;" horiz-adv-x="782" 
d="M33 350c0 202 157 358 358 358c199 0 358 -150 358 -358c0 -206 -159 -358 -358 -358c-198 0 -358 150 -358 358zM159 350c0 -145 108 -242 232 -242c130 0 232 97 232 242c0 146 -110 242 -232 242c-125 0 -232 -96 -232 -242zM243 779l-36 72c29 34 77 56 115 56
c60 0 91 -36 145 -36c23 0 51 4 76 31l31 -72c-28 -41 -72 -60 -117 -60c-52 0 -91 36 -148 36c-21 0 -43 -8 -66 -27z" />
    <glyph glyph-name="Odieresis" unicode="&#xd6;" horiz-adv-x="782" 
d="M33 350c0 202 157 358 358 358c199 0 358 -150 358 -358c0 -206 -159 -358 -358 -358c-198 0 -358 150 -358 358zM159 350c0 -145 108 -242 232 -242c130 0 232 97 232 242c0 146 -110 242 -232 242c-125 0 -232 -96 -232 -242zM202 828c0 36 30 62 70 62
c32 0 66 -26 66 -62c0 -38 -34 -62 -66 -62c-40 0 -70 24 -70 62zM445 828c0 36 32 62 69 62c33 0 66 -25 66 -62c0 -38 -33 -62 -66 -62c-37 0 -69 24 -69 62z" />
    <glyph glyph-name="multiply" unicode="&#xd7;" horiz-adv-x="599" 
d="M93 488l72 72l129 -129l130 129l72 -72l-129 -130l129 -129l-72 -72l-130 130l-129 -130l-72 72l130 129z" />
    <glyph glyph-name="Oslash" unicode="&#xd8;" horiz-adv-x="782" 
d="M73 47l50 61c-56 62 -90 146 -90 242c0 202 157 358 358 358c67 0 129 -17 183 -48l48 59l83 -66l-48 -59c57 -63 92 -147 92 -244c0 -206 -159 -358 -358 -358c-67 0 -129 17 -183 47l-50 -62zM623 350c0 57 -17 107 -45 146l-294 -363c32 -16 69 -25 107 -25
c130 0 232 97 232 242zM159 350c0 -57 16 -106 43 -145l295 361c-33 17 -69 26 -106 26c-125 0 -232 -96 -232 -242z" />
    <glyph glyph-name="Ugrave" unicode="&#xd9;" horiz-adv-x="726" 
d="M662 700v-402c0 -218 -146 -305 -291 -305c-164 0 -308 104 -308 311v396h121v-381c0 -128 76 -213 187 -213c117 0 170 88 170 209v385h121zM411 745l-219 104l53 100l210 -128z" />
    <glyph glyph-name="Uacute" unicode="&#xda;" horiz-adv-x="726" 
d="M662 700v-402c0 -218 -146 -305 -291 -305c-164 0 -308 104 -308 311v396h121v-381c0 -128 76 -213 187 -213c117 0 170 88 170 209v385h121zM555 849l-220 -104l-43 76l210 128z" />
    <glyph glyph-name="Ucircumflex" unicode="&#xdb;" horiz-adv-x="726" 
d="M662 700v-402c0 -218 -146 -305 -291 -305c-164 0 -308 104 -308 311v396h121v-381c0 -128 76 -213 187 -213c117 0 170 88 170 209v385h121zM361 929l184 -111l-47 -69l-139 73l-138 -73l-40 67l176 113h4z" />
    <glyph glyph-name="Udieresis" unicode="&#xdc;" horiz-adv-x="726" 
d="M662 700v-402c0 -218 -146 -305 -291 -305c-164 0 -308 104 -308 311v396h121v-381c0 -128 76 -213 187 -213c117 0 170 88 170 209v385h121zM174 828c0 36 30 62 70 62c32 0 66 -26 66 -62c0 -38 -34 -62 -66 -62c-40 0 -70 24 -70 62zM417 828c0 36 32 62 69 62
c33 0 66 -25 66 -62c0 -38 -33 -62 -66 -62c-37 0 -69 24 -69 62z" />
    <glyph glyph-name="Yacute" unicode="&#xdd;" horiz-adv-x="671" 
d="M678 700l-283 -397v-303h-121v303l-281 397h150l193 -279l197 279h145zM532 849l-220 -104l-43 76l210 128z" />
    <glyph glyph-name="Thorn" unicode="&#xde;" horiz-adv-x="658" 
d="M191 0h-121v700h121v-107h142c236 0 291 -119 291 -230c0 -115 -74 -230 -292 -230h-141v-133zM337 480h-146v-233h139c118 -1 168 46 168 117c0 67 -42 116 -161 116z" />
    <glyph glyph-name="germandbls" unicode="&#xdf;" horiz-adv-x="561" 
d="M283 738c143 0 214 -80 214 -207c0 -62 -29 -123 -86 -150c86 -23 120 -85 120 -174c0 -132 -72 -217 -218 -217c-42 0 -80 7 -108 21l28 103c24 -11 44 -17 76 -17c65 0 107 40 107 108c0 66 -42 105 -130 105h-50v107h25c89 0 121 53 121 107c0 69 -44 108 -107 108
c-61 0 -108 -31 -108 -176v-456h-114v461c0 205 99 277 230 277z" />
    <glyph glyph-name="agrave" unicode="&#xe0;" horiz-adv-x="534" 
d="M109 371l-56 84c49 48 133 77 218 77c137 0 213 -78 213 -214v-318h-114v57c-31 -34 -84 -63 -161 -63c-114 0 -189 64 -189 164c0 116 105 165 243 165c37 0 83 -6 107 -14c1 75 -28 117 -112 117c-57 0 -99 -17 -149 -55zM234 93c69 0 113 36 136 71v50
c-21 7 -58 14 -95 14c-82 0 -137 -17 -137 -69c0 -41 38 -66 96 -66zM269 598l-137 154l89 67l115 -167z" />
    <glyph glyph-name="aacute" unicode="&#xe1;" horiz-adv-x="534" 
d="M109 371l-56 84c49 48 133 77 218 77c137 0 213 -78 213 -214v-318h-114v57c-31 -34 -84 -63 -161 -63c-114 0 -189 64 -189 164c0 116 105 165 243 165c37 0 83 -6 107 -14c1 75 -28 117 -112 117c-57 0 -99 -17 -149 -55zM234 93c69 0 113 36 136 71v50
c-21 7 -58 14 -95 14c-82 0 -137 -17 -137 -69c0 -41 38 -66 96 -66zM408 755l-127 -157l-77 54l118 167z" />
    <glyph glyph-name="acircumflex" unicode="&#xe2;" horiz-adv-x="534" 
d="M109 371l-56 84c49 48 133 77 218 77c137 0 213 -78 213 -214v-318h-114v57c-31 -34 -84 -63 -161 -63c-114 0 -189 64 -189 164c0 116 105 165 243 165c37 0 83 -6 107 -14c1 75 -28 117 -112 117c-57 0 -99 -17 -149 -55zM234 93c69 0 113 36 136 71v50
c-21 7 -58 14 -95 14c-82 0 -137 -17 -137 -69c0 -41 38 -66 96 -66zM269 790l157 -131l-57 -70l-102 88l-106 -85l-52 68l156 130h4z" />
    <glyph glyph-name="atilde" unicode="&#xe3;" horiz-adv-x="534" 
d="M109 371l-56 84c49 48 133 77 218 77c137 0 213 -78 213 -214v-318h-114v57c-31 -34 -84 -63 -161 -63c-114 0 -189 64 -189 164c0 116 105 165 243 165c37 0 83 -6 107 -14c1 75 -28 117 -112 117c-57 0 -99 -17 -149 -55zM234 93c69 0 113 36 136 71v50
c-21 7 -58 14 -95 14c-82 0 -137 -17 -137 -69c0 -41 38 -66 96 -66zM142 612l-49 53c37 47 82 71 122 71c47 0 78 -44 120 -44c28 0 46 11 66 30l40 -58c-35 -43 -78 -66 -116 -66c-48 0 -77 43 -119 43c-22 0 -45 -13 -64 -29z" />
    <glyph glyph-name="adieresis" unicode="&#xe4;" horiz-adv-x="534" 
d="M109 371l-56 84c49 48 133 77 218 77c137 0 213 -78 213 -214v-318h-114v57c-31 -34 -84 -63 -161 -63c-114 0 -189 64 -189 164c0 116 105 165 243 165c37 0 83 -6 107 -14c1 75 -28 117 -112 117c-57 0 -99 -17 -149 -55zM234 93c69 0 113 36 136 71v50
c-21 7 -58 14 -95 14c-82 0 -137 -17 -137 -69c0 -41 38 -66 96 -66zM91 672c0 34 30 58 63 58c31 0 64 -24 64 -58c0 -38 -33 -61 -64 -61c-33 0 -63 23 -63 61zM308 672c0 34 31 58 66 58c32 0 64 -24 64 -58c0 -38 -30 -61 -64 -61c-35 0 -66 23 -66 61z" />
    <glyph glyph-name="aring" unicode="&#xe5;" horiz-adv-x="534" 
d="M109 371l-56 84c49 48 133 77 218 77c137 0 213 -78 213 -214v-318h-114v57c-31 -34 -84 -63 -161 -63c-114 0 -189 64 -189 164c0 116 105 165 243 165c37 0 83 -6 107 -14c1 75 -28 117 -112 117c-57 0 -99 -17 -149 -55zM234 93c69 0 113 36 136 71v50
c-21 7 -58 14 -95 14c-82 0 -137 -17 -137 -69c0 -41 38 -66 96 -66zM145 701c0 64 52 117 122 117c71 0 124 -53 124 -117s-53 -115 -124 -115c-70 0 -122 51 -122 115zM222 702c0 -27 18 -46 46 -46c27 0 46 17 46 46s-18 46 -46 46s-46 -18 -46 -46z" />
    <glyph glyph-name="ae" unicode="&#xe6;" horiz-adv-x="908" 
d="M788 166l70 -69c-53 -71 -126 -106 -211 -106c-95 0 -172 34 -221 94c-53 -64 -121 -91 -204 -91c-127 0 -202 66 -202 164c0 116 105 165 243 165c37 0 84 -6 108 -14c1 75 -29 117 -113 117c-57 0 -99 -17 -149 -55l-56 84c49 48 133 77 218 77c78 0 136 -26 171 -72
c45 45 110 72 193 72c140 0 244 -94 244 -238c0 -17 -2 -42 -6 -73h-386c9 -82 76 -124 162 -124c56 0 108 27 139 69zM234 93c71 0 119 44 137 81v40c-21 7 -59 14 -96 14c-82 0 -137 -17 -137 -69c0 -41 38 -66 96 -66zM630 429c-77 0 -127 -42 -142 -109h273
c-9 72 -57 109 -131 109z" />
    <glyph glyph-name="ccedilla" unicode="&#xe7;" horiz-adv-x="538" 
d="M171 -166l35 59c18 -14 45 -25 78 -25c30 0 40 7 40 21c0 17 -18 23 -50 23h-13v82c-141 18 -232 119 -232 267c0 154 110 271 274 271c107 0 189 -49 223 -118l-85 -56c-35 47 -74 68 -133 68c-94 0 -161 -67 -161 -165c0 -94 68 -164 173 -164c59 0 102 30 131 74
l81 -52c-41 -80 -123 -123 -208 -127v-24c68 -4 103 -36 103 -85c0 -51 -44 -90 -137 -90c-60 0 -96 23 -119 41z" />
    <glyph glyph-name="egrave" unicode="&#xe8;" horiz-adv-x="569" 
d="M449 166l70 -69c-53 -71 -126 -106 -211 -106c-167 0 -279 106 -279 270c0 152 93 271 267 271c140 0 244 -94 244 -238c0 -17 -2 -42 -6 -73h-386c9 -82 76 -124 162 -124c56 0 108 27 139 69zM291 429c-77 0 -127 -42 -142 -109h273c-9 72 -58 109 -131 109zM299 598
l-137 154l89 67l115 -167z" />
    <glyph glyph-name="eacute" unicode="&#xe9;" horiz-adv-x="569" 
d="M449 166l70 -69c-53 -71 -126 -106 -211 -106c-167 0 -279 106 -279 270c0 152 93 271 267 271c140 0 244 -94 244 -238c0 -17 -2 -42 -6 -73h-386c9 -82 76 -124 162 -124c56 0 108 27 139 69zM291 429c-77 0 -127 -42 -142 -109h273c-9 72 -58 109 -131 109zM425 755
l-127 -157l-77 54l118 167z" />
    <glyph glyph-name="ecircumflex" unicode="&#xea;" horiz-adv-x="569" 
d="M449 166l70 -69c-53 -71 -126 -106 -211 -106c-167 0 -279 106 -279 270c0 152 93 271 267 271c140 0 244 -94 244 -238c0 -17 -2 -42 -6 -73h-386c9 -82 76 -124 162 -124c56 0 108 27 139 69zM291 429c-77 0 -127 -42 -142 -109h273c-9 72 -58 109 -131 109zM300 790
l157 -131l-57 -70l-102 88l-106 -85l-52 68l156 130h4z" />
    <glyph glyph-name="edieresis" unicode="&#xeb;" horiz-adv-x="569" 
d="M449 166l70 -69c-53 -71 -126 -106 -211 -106c-167 0 -279 106 -279 270c0 152 93 271 267 271c140 0 244 -94 244 -238c0 -17 -2 -42 -6 -73h-386c9 -82 76 -124 162 -124c56 0 108 27 139 69zM291 429c-77 0 -127 -42 -142 -109h273c-9 72 -58 109 -131 109zM111 672
c0 34 30 58 63 58c31 0 64 -24 64 -58c0 -38 -33 -61 -64 -61c-33 0 -63 23 -63 61zM328 672c0 34 31 58 66 58c32 0 64 -24 64 -58c0 -38 -30 -61 -64 -61c-35 0 -66 23 -66 61z" />
    <glyph glyph-name="igrave" unicode="&#xec;" horiz-adv-x="253" 
d="M70 0v520h114v-520h-114zM138 598l-137 154l89 67l115 -167z" />
    <glyph glyph-name="iacute" unicode="&#xed;" horiz-adv-x="253" 
d="M70 0v520h114v-520h-114zM257 755l-127 -157l-77 54l118 167z" />
    <glyph glyph-name="icircumflex" unicode="&#xee;" horiz-adv-x="253" 
d="M70 0v520h114v-520h-114zM128 790l157 -131l-57 -70l-102 88l-106 -85l-52 68l156 130h4z" />
    <glyph glyph-name="idieresis" unicode="&#xef;" horiz-adv-x="253" 
d="M70 0v520h114v-520h-114zM-46 672c0 34 30 58 63 58c31 0 64 -24 64 -58c0 -38 -33 -61 -64 -61c-33 0 -63 23 -63 61zM171 672c0 34 31 58 66 58c32 0 64 -24 64 -58c0 -38 -30 -61 -64 -61c-35 0 -66 23 -66 61z" />
    <glyph glyph-name="eth" unicode="&#xf0;" horiz-adv-x="615" 
d="M288 783l80 -32l-23 -52c155 -69 241 -205 241 -396c0 -198 -115 -312 -279 -312c-162 0 -278 114 -278 270c0 157 113 261 278 261c49 0 99 -15 129 -42c-25 53 -71 98 -132 129l-26 -58l-80 32l25 56c-25 6 -51 10 -79 12l26 95c33 -4 64 -10 93 -18zM146 261
c0 -94 66 -164 161 -164c99 0 162 64 162 185c0 26 -2 58 -12 80c-28 37 -79 60 -135 60c-106 0 -176 -59 -176 -161z" />
    <glyph glyph-name="ntilde" unicode="&#xf1;" horiz-adv-x="586" 
d="M53 0v520h114v-47c41 40 88 58 160 58c135 0 209 -71 209 -237v-294h-114v285c0 100 -42 140 -128 140c-56 0 -104 -34 -127 -88v-337h-114zM167 612l-49 53c37 47 82 71 122 71c47 0 78 -44 120 -44c28 0 46 11 66 30l40 -58c-35 -43 -78 -66 -116 -66
c-48 0 -77 43 -119 43c-22 0 -45 -13 -64 -29z" />
    <glyph glyph-name="ograve" unicode="&#xf2;" horiz-adv-x="615" 
d="M29 261c0 157 113 271 278 271c164 0 279 -114 279 -271c0 -156 -115 -270 -279 -270c-162 0 -278 114 -278 270zM147 261c0 -94 65 -164 160 -164s161 64 161 164c0 101 -71 165 -161 165c-91 0 -160 -63 -160 -165zM308 598l-137 154l89 67l115 -167z" />
    <glyph glyph-name="oacute" unicode="&#xf3;" horiz-adv-x="615" 
d="M29 261c0 157 113 271 278 271c164 0 279 -114 279 -271c0 -156 -115 -270 -279 -270c-162 0 -278 114 -278 270zM147 261c0 -94 65 -164 160 -164s161 64 161 164c0 101 -71 165 -161 165c-91 0 -160 -63 -160 -165zM441 755l-127 -157l-77 54l118 167z" />
    <glyph glyph-name="ocircumflex" unicode="&#xf4;" horiz-adv-x="615" 
d="M29 261c0 157 113 271 278 271c164 0 279 -114 279 -271c0 -156 -115 -270 -279 -270c-162 0 -278 114 -278 270zM147 261c0 -94 65 -164 160 -164s161 64 161 164c0 101 -71 165 -161 165c-91 0 -160 -63 -160 -165zM309 790l157 -131l-57 -70l-102 88l-106 -85l-52 68
l156 130h4z" />
    <glyph glyph-name="otilde" unicode="&#xf5;" horiz-adv-x="615" 
d="M29 261c0 157 113 271 278 271c164 0 279 -114 279 -271c0 -156 -115 -270 -279 -270c-162 0 -278 114 -278 270zM147 261c0 -94 65 -164 160 -164s161 64 161 164c0 101 -71 165 -161 165c-91 0 -160 -63 -160 -165zM182 612l-49 53c37 47 82 71 122 71
c47 0 78 -44 120 -44c28 0 46 11 66 30l40 -58c-35 -43 -78 -66 -116 -66c-48 0 -77 43 -119 43c-22 0 -45 -13 -64 -29z" />
    <glyph glyph-name="odieresis" unicode="&#xf6;" horiz-adv-x="615" 
d="M29 261c0 157 113 271 278 271c164 0 279 -114 279 -271c0 -156 -115 -270 -279 -270c-162 0 -278 114 -278 270zM147 261c0 -94 65 -164 160 -164s161 64 161 164c0 101 -71 165 -161 165c-91 0 -160 -63 -160 -165zM134 672c0 34 30 58 63 58c31 0 64 -24 64 -58
c0 -38 -33 -61 -64 -61c-33 0 -63 23 -63 61zM351 672c0 34 31 58 66 58c32 0 64 -24 64 -58c0 -38 -30 -61 -64 -61c-35 0 -66 23 -66 61z" />
    <glyph glyph-name="divide" unicode="&#xf7;" horiz-adv-x="566" 
d="M217 552c0 28 26 59 67 59c38 0 64 -31 64 -59c0 -31 -26 -60 -64 -60c-41 0 -67 29 -67 60zM217 167c0 29 26 59 67 59c38 0 64 -30 64 -59c0 -32 -26 -61 -64 -61c-41 0 -67 29 -67 61zM44 309v101h478v-101h-478z" />
    <glyph glyph-name="oslash" unicode="&#xf8;" horiz-adv-x="615" 
d="M29 261c0 157 113 271 278 271c48 0 93 -10 131 -28l51 62l82 -66l-49 -60c41 -47 64 -109 64 -179c0 -156 -115 -270 -279 -270c-47 0 -91 9 -128 27l-52 -64l-84 70l49 59c-40 47 -63 108 -63 178zM147 261c0 -32 7 -61 21 -85l197 240c-18 6 -38 10 -58 10
c-91 0 -160 -63 -160 -165zM468 261c0 33 -8 62 -21 86l-197 -241c18 -6 36 -9 57 -9c95 0 161 64 161 164z" />
    <glyph glyph-name="ugrave" unicode="&#xf9;" horiz-adv-x="578" 
d="M525 523v-523h-114v55c-32 -36 -80 -64 -145 -64c-144 0 -216 73 -216 233v299h114v-288c0 -76 23 -138 113 -138c60 0 105 32 134 90v336h114zM304 598l-137 154l89 67l115 -167z" />
    <glyph glyph-name="uacute" unicode="&#xfa;" horiz-adv-x="578" 
d="M525 523v-523h-114v55c-32 -36 -80 -64 -145 -64c-144 0 -216 73 -216 233v299h114v-288c0 -76 23 -138 113 -138c60 0 105 32 134 90v336h114zM417 755l-127 -157l-77 54l118 167z" />
    <glyph glyph-name="ucircumflex" unicode="&#xfb;" horiz-adv-x="578" 
d="M525 523v-523h-114v55c-32 -36 -80 -64 -145 -64c-144 0 -216 73 -216 233v299h114v-288c0 -76 23 -138 113 -138c60 0 105 32 134 90v336h114zM291 790l157 -131l-57 -70l-102 88l-106 -85l-52 68l156 130h4z" />
    <glyph glyph-name="udieresis" unicode="&#xfc;" horiz-adv-x="578" 
d="M525 523v-523h-114v55c-32 -36 -80 -64 -145 -64c-144 0 -216 73 -216 233v299h114v-288c0 -76 23 -138 113 -138c60 0 105 32 134 90v336h114zM113 672c0 34 30 58 63 58c31 0 64 -24 64 -58c0 -38 -33 -61 -64 -61c-33 0 -63 23 -63 61zM330 672c0 34 31 58 66 58
c32 0 64 -24 64 -58c0 -38 -30 -61 -64 -61c-35 0 -66 23 -66 61z" />
    <glyph glyph-name="yacute" unicode="&#xfd;" horiz-adv-x="548" 
d="M75 -194l45 97c7 -4 14 -6 23 -6c29 0 56 23 82 87l18 47l-256 489h132l179 -351l138 351h122l-204 -505c-70 -172 -123 -224 -207 -224c-28 0 -52 5 -72 15zM412 755l-127 -157l-77 54l118 167z" />
    <glyph glyph-name="thorn" unicode="&#xfe;" horiz-adv-x="590" 
d="M53 -200v930h112v-257c33 41 92 59 144 59c156 0 252 -109 252 -263c0 -159 -104 -278 -260 -278c-58 0 -113 15 -136 43v-234h-112zM297 426c-66 0 -111 -40 -132 -85v-180c25 -42 72 -64 123 -64c93 0 155 66 155 163c0 105 -56 166 -146 166z" />
    <glyph glyph-name="ydieresis" unicode="&#xff;" horiz-adv-x="548" 
d="M75 -194l45 97c7 -4 14 -6 23 -6c29 0 56 23 82 87l18 47l-256 489h132l179 -351l138 351h122l-204 -505c-70 -172 -123 -224 -207 -224c-28 0 -52 5 -72 15zM101 672c0 34 30 58 63 58c31 0 64 -24 64 -58c0 -38 -33 -61 -64 -61c-33 0 -63 23 -63 61zM318 672
c0 34 31 58 66 58c32 0 64 -24 64 -58c0 -38 -30 -61 -64 -61c-35 0 -66 23 -66 61z" />
    <glyph glyph-name="Amacron" unicode="&#x100;" horiz-adv-x="704" 
d="M-1 0l307 700h92l307 -700h-127l-68 155h-319l-67 -155h-125zM350 525l-115 -266h230zM198 780v95h307v-95h-307z" />
    <glyph glyph-name="amacron" unicode="&#x101;" horiz-adv-x="534" 
d="M109 371l-56 84c49 48 133 77 218 77c137 0 213 -78 213 -214v-318h-114v57c-31 -34 -84 -63 -161 -63c-114 0 -189 64 -189 164c0 116 105 165 243 165c37 0 83 -6 107 -14c1 75 -28 117 -112 117c-57 0 -99 -17 -149 -55zM234 93c69 0 113 36 136 71v50
c-21 7 -58 14 -95 14c-82 0 -137 -17 -137 -69c0 -41 38 -66 96 -66zM127 625v95h281v-95h-281z" />
    <glyph glyph-name="Abreve" unicode="&#x102;" horiz-adv-x="704" 
d="M-1 0l307 700h92l307 -700h-127l-68 155h-319l-67 -155h-125zM350 525l-115 -266h230zM161 865l52 59c24 -26 67 -61 143 -61c66 0 113 30 140 61l45 -58c-34 -56 -106 -105 -185 -105c-95 0 -164 56 -195 104z" />
    <glyph glyph-name="abreve" unicode="&#x103;" horiz-adv-x="534" 
d="M109 371l-56 84c49 48 133 77 218 77c137 0 213 -78 213 -214v-318h-114v57c-31 -34 -84 -63 -161 -63c-114 0 -189 64 -189 164c0 116 105 165 243 165c37 0 83 -6 107 -14c1 75 -28 117 -112 117c-57 0 -99 -17 -149 -55zM234 93c69 0 113 36 136 71v50
c-21 7 -58 14 -95 14c-82 0 -137 -17 -137 -69c0 -41 38 -66 96 -66zM99 717l51 58c21 -24 60 -55 112 -55c51 0 92 26 115 53l40 -55c-29 -44 -76 -95 -159 -95c-86 0 -141 64 -159 94z" />
    <glyph glyph-name="Aogonek" unicode="&#x104;" horiz-adv-x="704" 
d="M669 -97l31 -73c-17 -16 -57 -30 -101 -30c-69 -1 -133 27 -133 93c0 56 47 93 109 112l-65 150h-319l-67 -155h-125l307 700h92l307 -700h-21c-55 -1 -105 -36 -105 -70c0 -27 21 -37 44 -37c18 0 29 2 46 10zM350 525l-115 -266h230z" />
    <glyph glyph-name="aogonek" unicode="&#x105;" horiz-adv-x="534" 
d="M462 -96l34 -73c-17 -16 -55 -31 -101 -31c-67 0 -130 29 -130 96c0 55 47 91 105 110v47c-31 -34 -84 -59 -161 -59c-114 0 -189 64 -189 164c0 116 105 165 243 165c37 0 83 -6 107 -14c1 75 -28 117 -112 117c-57 0 -99 -17 -149 -55l-56 84c49 48 133 77 218 77
c137 0 213 -78 213 -214v-318h-3c-50 0 -99 -33 -99 -68c0 -23 16 -37 37 -37c15 0 26 1 43 9zM234 93c69 0 113 36 136 71v50c-21 7 -58 14 -95 14c-82 0 -137 -17 -137 -69c0 -41 38 -66 96 -66z" />
    <glyph glyph-name="Cacute" unicode="&#x106;" horiz-adv-x="692" 
d="M606 200l71 -78c-58 -82 -165 -130 -284 -130c-220 0 -360 141 -360 358c0 200 141 358 358 358c127 0 227 -51 275 -121l-80 -76c-48 53 -113 81 -189 81c-144 0 -238 -96 -238 -242s100 -242 243 -242c88 0 156 35 204 92zM565 849l-220 -104l-43 76l210 128z" />
    <glyph glyph-name="cacute" unicode="&#x107;" horiz-adv-x="538" 
d="M451 171l81 -52c-43 -84 -133 -128 -223 -128c-167 0 -280 106 -280 270c0 154 110 271 274 271c107 0 189 -49 223 -118l-85 -56c-35 47 -74 68 -133 68c-94 0 -161 -67 -161 -165c0 -94 68 -164 173 -164c59 0 102 30 131 74zM447 755l-127 -157l-77 54l118 167z" />
    <glyph glyph-name="Ccircumflex" unicode="&#x108;" horiz-adv-x="692" 
d="M606 200l71 -78c-58 -82 -165 -130 -284 -130c-220 0 -360 141 -360 358c0 200 141 358 358 358c127 0 227 -51 275 -121l-80 -76c-48 53 -113 81 -189 81c-144 0 -238 -96 -238 -242s100 -242 243 -242c88 0 156 35 204 92zM376 929l184 -111l-47 -69l-139 73l-138 -73
l-40 67l176 113h4z" />
    <glyph glyph-name="ccircumflex" unicode="&#x109;" horiz-adv-x="538" 
d="M451 171l81 -52c-43 -84 -133 -128 -223 -128c-167 0 -280 106 -280 270c0 154 110 271 274 271c107 0 189 -49 223 -118l-85 -56c-35 47 -74 68 -133 68c-94 0 -161 -67 -161 -165c0 -94 68 -164 173 -164c59 0 102 30 131 74zM301 790l157 -131l-57 -70l-102 88
l-106 -85l-52 68l156 130h4z" />
    <glyph glyph-name="Cdotaccent" unicode="&#x10a;" horiz-adv-x="692" 
d="M606 200l71 -78c-58 -82 -165 -130 -284 -130c-220 0 -360 141 -360 358c0 200 141 358 358 358c127 0 227 -51 275 -121l-80 -76c-48 53 -113 81 -189 81c-144 0 -238 -96 -238 -242s100 -242 243 -242c88 0 156 35 204 92zM314 827c0 34 28 60 67 60
c37 0 66 -26 66 -60c0 -36 -29 -62 -66 -62c-41 0 -67 26 -67 62z" />
    <glyph glyph-name="cdotaccent" unicode="&#x10b;" horiz-adv-x="538" 
d="M451 171l81 -52c-43 -84 -133 -128 -223 -128c-167 0 -280 106 -280 270c0 154 110 271 274 271c107 0 189 -49 223 -118l-85 -56c-35 47 -74 68 -133 68c-94 0 -161 -67 -161 -165c0 -94 68 -164 173 -164c59 0 102 30 131 74zM233 671c0 34 29 59 67 59
c37 0 66 -25 66 -59c0 -37 -29 -63 -66 -63c-40 0 -67 26 -67 63z" />
    <glyph glyph-name="Ccaron" unicode="&#x10c;" horiz-adv-x="692" 
d="M606 200l71 -78c-58 -82 -165 -130 -284 -130c-220 0 -360 141 -360 358c0 200 141 358 358 358c127 0 227 -51 275 -121l-80 -76c-48 53 -113 81 -189 81c-144 0 -238 -96 -238 -242s100 -242 243 -242c88 0 156 35 204 92zM375 750l-183 111l46 68l139 -79l138 79
l41 -67l-177 -112h-4z" />
    <glyph glyph-name="ccaron" unicode="&#x10d;" horiz-adv-x="538" 
d="M451 171l81 -52c-43 -84 -133 -128 -223 -128c-167 0 -280 106 -280 270c0 154 110 271 274 271c107 0 189 -49 223 -118l-85 -56c-35 47 -74 68 -133 68c-94 0 -161 -67 -161 -165c0 -94 68 -164 173 -164c59 0 102 30 131 74zM301 609l-157 131l57 69l102 -87l106 85
l52 -68l-156 -130h-4z" />
    <glyph glyph-name="Dcaron" unicode="&#x10e;" horiz-adv-x="716" 
d="M70 0v700h219c291 0 394 -158 394 -341c0 -200 -123 -359 -407 -359h-206zM287 586h-96v-472h94c193 0 272 100 272 245c0 133 -71 227 -270 227zM302 750l-183 111l46 68l139 -79l138 79l41 -67l-177 -112h-4z" />
    <glyph glyph-name="dcaron" unicode="&#x10f;" horiz-adv-x="633" 
d="M426 0v57c-18 -25 -69 -65 -146 -65c-147 0 -251 97 -251 267c0 161 117 273 259 273c74 0 114 -18 138 -39v237h114v-730h-114zM301 98c59 0 108 42 125 81v190c-24 34 -61 57 -119 57c-87 0 -160 -61 -160 -165c0 -102 64 -163 154 -163zM603 731h119
c9 -16 13 -40 13 -67c0 -75 -57 -137 -108 -168l-49 44c34 30 48 76 48 106c0 34 -10 68 -23 85z" />
    <glyph glyph-name="Dcroat" unicode="&#x110;" horiz-adv-x="778" 
d="M15 298v101h117v301h218c292 0 394 -158 394 -341c0 -200 -123 -359 -406 -359h-206v298h-117zM348 586h-95v-187h174v-101h-174v-184h94c193 0 271 100 271 245c0 133 -70 227 -270 227z" />
    <glyph glyph-name="dcroat" unicode="&#x111;" horiz-adv-x="593" 
d="M314 566v101h112v63h114v-63h52v-101h-52v-566h-114v57c-18 -25 -69 -65 -146 -65c-147 0 -251 97 -251 267c0 161 117 273 259 273c74 0 114 -18 138 -39v73h-112zM301 98c59 0 108 42 125 81v190c-24 34 -61 57 -119 57c-87 0 -160 -61 -160 -165
c0 -102 64 -163 154 -163z" />
    <glyph glyph-name="Emacron" unicode="&#x112;" horiz-adv-x="645" 
d="M70 0v700h520v-114h-399v-176h373v-110h-373v-186h409v-114h-530zM173 780v95h307v-95h-307z" />
    <glyph glyph-name="emacron" unicode="&#x113;" horiz-adv-x="569" 
d="M449 166l70 -69c-53 -71 -126 -106 -211 -106c-167 0 -279 106 -279 270c0 152 93 271 267 271c140 0 244 -94 244 -238c0 -17 -2 -42 -6 -73h-386c9 -82 76 -124 162 -124c56 0 108 27 139 69zM291 429c-77 0 -127 -42 -142 -109h273c-9 72 -58 109 -131 109zM147 625
v95h281v-95h-281z" />
    <glyph glyph-name="Edotaccent" unicode="&#x116;" horiz-adv-x="645" 
d="M70 0v700h520v-114h-399v-176h373v-110h-373v-186h409v-114h-530zM264 827c0 34 28 60 67 60c37 0 66 -26 66 -60c0 -36 -29 -62 -66 -62c-41 0 -67 26 -67 62z" />
    <glyph glyph-name="edotaccent" unicode="&#x117;" horiz-adv-x="569" 
d="M449 166l70 -69c-53 -71 -126 -106 -211 -106c-167 0 -279 106 -279 270c0 152 93 271 267 271c140 0 244 -94 244 -238c0 -17 -2 -42 -6 -73h-386c9 -82 76 -124 162 -124c56 0 108 27 139 69zM291 429c-77 0 -127 -42 -142 -109h273c-9 72 -58 109 -131 109zM227 671
c0 34 29 59 67 59c37 0 66 -25 66 -59c0 -37 -29 -63 -66 -63c-40 0 -67 26 -67 63z" />
    <glyph glyph-name="Eogonek" unicode="&#x118;" horiz-adv-x="645" 
d="M70 0v700h520v-114h-399v-176h373v-110h-373v-186h409v-114h-5c-56 0 -109 -35 -109 -70c0 -27 21 -37 44 -37c18 0 29 2 46 10l31 -73c-17 -16 -57 -30 -101 -30c-69 -1 -133 27 -133 93c0 51 39 86 93 107h-396z" />
    <glyph glyph-name="eogonek" unicode="&#x119;" horiz-adv-x="569" 
d="M449 166l70 -69c-25 -34 -55 -60 -88 -77c-37 -31 -69 -62 -69 -88c0 -23 16 -37 37 -37c15 0 25 1 42 9l35 -73c-17 -16 -56 -31 -101 -31c-67 0 -130 29 -130 92c0 46 34 74 78 100c-5 -1 -10 -1 -15 -1c-167 0 -279 106 -279 270c0 152 93 271 267 271
c140 0 244 -94 244 -238c0 -17 -2 -42 -6 -73h-386c9 -82 76 -124 162 -124c56 0 108 27 139 69zM291 429c-77 0 -127 -42 -142 -109h273c-9 72 -58 109 -131 109z" />
    <glyph glyph-name="Ecaron" unicode="&#x11a;" horiz-adv-x="645" 
d="M70 0v700h520v-114h-399v-176h373v-110h-373v-186h409v-114h-530zM335 750l-183 111l46 68l139 -79l138 79l41 -67l-177 -112h-4z" />
    <glyph glyph-name="ecaron" unicode="&#x11b;" horiz-adv-x="569" 
d="M449 166l70 -69c-53 -71 -126 -106 -211 -106c-167 0 -279 106 -279 270c0 152 93 271 267 271c140 0 244 -94 244 -238c0 -17 -2 -42 -6 -73h-386c9 -82 76 -124 162 -124c56 0 108 27 139 69zM291 429c-77 0 -127 -42 -142 -109h273c-9 72 -58 109 -131 109zM283 609
l-157 131l57 69l102 -87l106 85l52 -68l-156 -130h-4z" />
    <glyph glyph-name="Gcircumflex" unicode="&#x11c;" horiz-adv-x="715" 
d="M380 264v110h302v-271c-65 -71 -170 -111 -276 -111c-216 0 -373 141 -373 358c0 200 150 358 360 358c118 0 221 -42 273 -113l-81 -77c-41 46 -104 74 -186 74c-145 0 -240 -94 -240 -242c0 -154 105 -242 249 -242c54 0 113 14 158 49v107h-186zM376 929l184 -111
l-47 -69l-139 73l-138 -73l-40 67l176 113h4z" />
    <glyph glyph-name="gcircumflex" unicode="&#x11d;" horiz-adv-x="589" 
d="M536 520v-478c0 -174 -97 -251 -240 -251c-118 0 -205 51 -236 134l99 43c19 -36 61 -71 128 -71c93 0 135 47 135 124v23c-20 -31 -61 -53 -138 -53c-150 0 -255 97 -255 270c0 168 119 268 256 268c71 0 113 -20 137 -43v34h114zM303 97c61 0 104 38 119 79v192
c-21 32 -60 55 -120 55c-84 0 -155 -56 -155 -164c0 -103 60 -162 156 -162zM303 790l157 -131l-57 -70l-102 88l-106 -85l-52 68l156 130h4z" />
    <glyph glyph-name="Gbreve" unicode="&#x11e;" horiz-adv-x="715" 
d="M380 264v110h302v-271c-65 -71 -170 -111 -276 -111c-216 0 -373 141 -373 358c0 200 150 358 360 358c118 0 221 -42 273 -113l-81 -77c-41 46 -104 74 -186 74c-145 0 -240 -94 -240 -242c0 -154 105 -242 249 -242c54 0 113 14 158 49v107h-186zM199 865l52 59
c24 -26 67 -61 143 -61c66 0 113 30 140 61l45 -58c-34 -56 -106 -105 -185 -105c-95 0 -164 56 -195 104z" />
    <glyph glyph-name="gbreve" unicode="&#x11f;" horiz-adv-x="589" 
d="M536 520v-478c0 -174 -97 -251 -240 -251c-118 0 -205 51 -236 134l99 43c19 -36 61 -71 128 -71c93 0 135 47 135 124v23c-20 -31 -61 -53 -138 -53c-150 0 -255 97 -255 270c0 168 119 268 256 268c71 0 113 -20 137 -43v34h114zM303 97c61 0 104 38 119 79v192
c-21 32 -60 55 -120 55c-84 0 -155 -56 -155 -164c0 -103 60 -162 156 -162zM136 717l51 58c21 -24 60 -55 112 -55c51 0 92 26 115 53l40 -55c-29 -44 -76 -95 -159 -95c-86 0 -141 64 -159 94z" />
    <glyph glyph-name="Gdotaccent" unicode="&#x120;" horiz-adv-x="715" 
d="M380 264v110h302v-271c-65 -71 -170 -111 -276 -111c-216 0 -373 141 -373 358c0 200 150 358 360 358c118 0 221 -42 273 -113l-81 -77c-41 46 -104 74 -186 74c-145 0 -240 -94 -240 -242c0 -154 105 -242 249 -242c54 0 113 14 158 49v107h-186zM317 827
c0 34 28 60 67 60c37 0 66 -26 66 -60c0 -36 -29 -62 -66 -62c-41 0 -67 26 -67 62z" />
    <glyph glyph-name="gdotaccent" unicode="&#x121;" horiz-adv-x="589" 
d="M536 520v-478c0 -174 -97 -251 -240 -251c-118 0 -205 51 -236 134l99 43c19 -36 61 -71 128 -71c93 0 135 47 135 124v23c-20 -31 -61 -53 -138 -53c-150 0 -255 97 -255 270c0 168 119 268 256 268c71 0 113 -20 137 -43v34h114zM303 97c61 0 104 38 119 79v192
c-21 32 -60 55 -120 55c-84 0 -155 -56 -155 -164c0 -103 60 -162 156 -162zM238 671c0 34 29 59 67 59c37 0 66 -25 66 -59c0 -37 -29 -63 -66 -63c-40 0 -67 26 -67 63z" />
    <glyph glyph-name="Gcommaaccent" unicode="&#x122;" horiz-adv-x="715" 
d="M380 264v110h302v-271c-65 -71 -170 -111 -276 -111c-216 0 -373 141 -373 358c0 200 150 358 360 358c118 0 221 -42 273 -113l-81 -77c-41 46 -104 74 -186 74c-145 0 -240 -94 -240 -242c0 -154 105 -242 249 -242c54 0 113 14 158 49v107h-186zM340 -100l94 62
c25 -20 45 -50 45 -87c0 -76 -52 -129 -92 -153l-53 41c21 21 35 49 35 78c0 26 -13 42 -29 59z" />
    <glyph glyph-name="gcommaaccent" unicode="&#x123;" horiz-adv-x="589" 
d="M377 633l-94 -61c-25 20 -46 49 -46 86c0 77 52 130 92 154l54 -41c-21 -22 -36 -49 -36 -78c0 -26 14 -43 30 -60zM536 520v-478c0 -174 -97 -251 -240 -251c-118 0 -205 51 -236 134l99 43c19 -36 61 -71 128 -71c93 0 135 47 135 124v23c-20 -31 -61 -53 -138 -53
c-150 0 -255 97 -255 270c0 168 119 268 256 268c71 0 113 -20 137 -43v34h114zM303 97c61 0 104 38 119 79v192c-21 32 -60 55 -120 55c-84 0 -155 -56 -155 -164c0 -103 60 -162 156 -162z" />
    <glyph glyph-name="Hcircumflex" unicode="&#x124;" horiz-adv-x="749" 
d="M558 0v297h-367v-297h-121v700h121v-289h367v289h121v-700h-121zM372 929l184 -111l-47 -69l-139 73l-138 -73l-40 67l176 113h4z" />
    <glyph glyph-name="hcircumflex" unicode="&#x125;" horiz-adv-x="584" 
d="M53 0v730h114v-255c40 40 96 56 151 56c137 0 216 -73 216 -238v-293h-114v286c0 98 -40 139 -126 139c-56 0 -102 -34 -127 -86v-339h-114zM117 919l184 -111l-47 -69l-139 73l-138 -73l-40 67l176 113h4z" />
    <glyph glyph-name="Hbar" unicode="&#x126;" horiz-adv-x="749" 
d="M0 509v96h70v95h121v-95h367v95h121v-95h70v-96h-70v-509h-121v297h-367v-297h-121v509h-70zM191 411h367v98h-367v-98z" />
    <glyph glyph-name="hbar" unicode="&#x127;" horiz-adv-x="584" 
d="M0 566v101h53v63h114v-63h111v-101h-111v-91c40 40 96 56 151 56c137 0 216 -73 216 -238v-293h-114v286c0 98 -40 139 -126 139c-56 0 -102 -34 -127 -86v-339h-114v566h-53z" />
    <glyph glyph-name="Imacron" unicode="&#x12a;" horiz-adv-x="261" 
d="M70 0v700h121v-700h-121zM-23 780v95h307v-95h-307z" />
    <glyph glyph-name="imacron" unicode="&#x12b;" horiz-adv-x="253" 
d="M70 0v520h114v-520h-114zM-13 625v95h281v-95h-281z" />
    <glyph glyph-name="Iogonek" unicode="&#x12e;" horiz-adv-x="275" 
d="M176 -97l31 -73c-17 -16 -57 -30 -101 -30c-69 -1 -133 27 -133 93c0 54 44 91 104 111v696h121v-700h-7c-55 -1 -105 -36 -105 -70c0 -27 21 -37 44 -37c18 0 29 2 46 10z" />
    <glyph glyph-name="iogonek" unicode="&#x12f;" horiz-adv-x="253" 
d="M161 -96l34 -73c-17 -16 -55 -31 -101 -31c-67 0 -130 29 -130 96c0 55 47 92 106 110v514h114v-520h-4c-50 0 -99 -33 -99 -68c0 -23 16 -37 37 -37c15 0 26 1 43 9zM60 669c0 34 29 60 67 60c37 0 66 -26 66 -60c0 -36 -29 -62 -66 -62c-40 0 -67 26 -67 62z" />
    <glyph glyph-name="Idotaccent" unicode="&#x130;" horiz-adv-x="261" 
d="M70 0v700h121v-700h-121zM65 827c0 34 28 60 67 60c37 0 66 -26 66 -60c0 -36 -29 -62 -66 -62c-41 0 -67 26 -67 62z" />
    <glyph glyph-name="dotlessi" unicode="&#x131;" horiz-adv-x="253" 
d="M70 0v520h114v-520h-114z" />
    <glyph glyph-name="Jcircumflex" unicode="&#x134;" horiz-adv-x="486" 
d="M419 700v-483c0 -146 -84 -225 -210 -225c-117 0 -184 65 -216 130l90 68c26 -44 65 -85 116 -85c66 1 99 32 99 135v460h121zM348 929l184 -111l-47 -69l-139 73l-138 -73l-40 67l176 113h4z" />
    <glyph glyph-name="jcircumflex" unicode="&#x135;" horiz-adv-x="254" 
d="M186 520v-521c0 -130 -55 -208 -172 -208c-74 0 -135 28 -166 100l97 43c12 -19 26 -37 60 -37c44 0 67 34 67 105v518h114zM128 790l157 -131l-57 -70l-102 88l-106 -85l-52 68l156 130h4z" />
    <glyph glyph-name="Kcommaaccent" unicode="&#x136;" horiz-adv-x="680" 
d="M70 0v700h121v-307l314 307h158l-318 -314l341 -386h-161l-271 305l-63 -61v-244h-121zM252 -100l94 62c25 -20 45 -50 45 -87c0 -76 -52 -129 -92 -153l-53 41c21 21 35 49 35 78c0 26 -13 42 -29 59z" />
    <glyph glyph-name="kcommaaccent" unicode="&#x137;" horiz-adv-x="528" 
d="M53 0v730h114v-415l210 205h147l-237 -229l249 -291h-145l-191 216l-33 -26v-190h-114zM180 -100l95 62c24 -20 45 -50 45 -87c0 -76 -52 -129 -92 -153l-53 41c21 21 35 49 35 78c0 26 -14 42 -30 59z" />
    <glyph glyph-name="Lacute" unicode="&#x139;" horiz-adv-x="598" 
d="M70 0v700h121v-586h397v-114h-518zM482 849l-220 -104l-43 76l210 128z" />
    <glyph glyph-name="lacute" unicode="&#x13a;" horiz-adv-x="220" 
d="M53 0v730h114v-730h-114zM315 862l-220 -104l-43 76l210 128z" />
    <glyph glyph-name="Lcommaaccent" unicode="&#x13b;" horiz-adv-x="598" 
d="M70 0v700h121v-586h397v-114h-518zM260 -100l94 62c25 -20 45 -50 45 -87c0 -76 -52 -129 -92 -153l-53 41c21 21 35 49 35 78c0 26 -13 42 -29 59z" />
    <glyph glyph-name="lcommaaccent" unicode="&#x13c;" horiz-adv-x="220" 
d="M53 0v730h114v-730h-114zM42 -100l95 62c24 -20 45 -50 45 -87c0 -76 -52 -129 -92 -153l-53 41c21 21 35 49 35 78c0 26 -14 42 -30 59z" />
    <glyph glyph-name="Lcaron" unicode="&#x13d;" horiz-adv-x="598" 
d="M70 0v700h121v-586h397v-114h-518zM376 701h119c9 -16 13 -40 13 -67c0 -75 -57 -137 -108 -168l-49 44c34 30 48 76 48 106c0 34 -10 68 -23 85z" />
    <glyph glyph-name="lcaron" unicode="&#x13e;" horiz-adv-x="254" 
d="M53 0v730h114v-730h-114zM223 731h119c9 -16 13 -40 13 -67c0 -75 -57 -137 -108 -168l-49 44c34 30 48 76 48 106c0 34 -10 68 -23 85z" />
    <glyph glyph-name="Ldot" unicode="&#x13f;" horiz-adv-x="598" 
d="M70 0v700h121v-586h397v-114h-518zM353 389c0 29 28 61 70 61c38 0 67 -32 67 -61c0 -34 -29 -64 -67 -64c-42 0 -70 30 -70 64z" />
    <glyph glyph-name="ldot" unicode="&#x140;" horiz-adv-x="319" 
d="M53 0v730h114v-730h-114zM203 352c0 29 28 61 70 61c38 0 67 -32 67 -61c0 -34 -29 -64 -67 -64c-42 0 -70 30 -70 64z" />
    <glyph glyph-name="Lslash" unicode="&#x141;" horiz-adv-x="609" 
d="M0 127v124l81 59v390h121v-302l193 140v-123l-193 -141v-160h397v-114h-518v186z" />
    <glyph glyph-name="lslash" unicode="&#x142;" horiz-adv-x="312" 
d="M0 167v124l97 70v369h114v-286l101 74v-123l-101 -74v-321h-114v238z" />
    <glyph glyph-name="Nacute" unicode="&#x143;" horiz-adv-x="738" 
d="M668 0h-94l-386 477v-477h-118v700h94l386 -479v479h118v-700zM562 849l-220 -104l-43 76l210 128z" />
    <glyph glyph-name="nacute" unicode="&#x144;" horiz-adv-x="586" 
d="M53 0v520h114v-47c41 40 88 58 160 58c135 0 209 -71 209 -237v-294h-114v285c0 100 -42 140 -128 140c-56 0 -104 -34 -127 -88v-337h-114zM427 755l-127 -157l-77 54l118 167z" />
    <glyph glyph-name="Ncommaaccent" unicode="&#x145;" horiz-adv-x="738" 
d="M668 0h-94l-386 477v-477h-118v700h94l386 -479v479h118v-700zM313 -100l94 62c25 -20 45 -50 45 -87c0 -76 -52 -129 -92 -153l-53 41c21 21 35 49 35 78c0 26 -13 42 -29 59z" />
    <glyph glyph-name="ncommaaccent" unicode="&#x146;" horiz-adv-x="586" 
d="M53 0v520h114v-47c41 40 88 58 160 58c135 0 209 -71 209 -237v-294h-114v285c0 100 -42 140 -128 140c-56 0 -104 -34 -127 -88v-337h-114zM216 -100l95 62c24 -20 45 -50 45 -87c0 -76 -52 -129 -92 -153l-53 41c21 21 35 49 35 78c0 26 -14 42 -30 59z" />
    <glyph glyph-name="Ncaron" unicode="&#x147;" horiz-adv-x="738" 
d="M668 0h-94l-386 477v-477h-118v700h94l386 -479v479h118v-700zM370 750l-183 111l46 68l139 -79l138 79l41 -67l-177 -112h-4z" />
    <glyph glyph-name="ncaron" unicode="&#x148;" horiz-adv-x="586" 
d="M53 0v520h114v-47c41 40 88 58 160 58c135 0 209 -71 209 -237v-294h-114v285c0 100 -42 140 -128 140c-56 0 -104 -34 -127 -88v-337h-114zM292 609l-157 131l57 69l102 -87l106 85l52 -68l-156 -130h-4z" />
    <glyph glyph-name="Omacron" unicode="&#x14c;" horiz-adv-x="782" 
d="M33 350c0 202 157 358 358 358c199 0 358 -150 358 -358c0 -206 -159 -358 -358 -358c-198 0 -358 150 -358 358zM159 350c0 -145 108 -242 232 -242c130 0 232 97 232 242c0 146 -110 242 -232 242c-125 0 -232 -96 -232 -242zM237 780v95h307v-95h-307z" />
    <glyph glyph-name="omacron" unicode="&#x14d;" horiz-adv-x="615" 
d="M29 261c0 157 113 271 278 271c164 0 279 -114 279 -271c0 -156 -115 -270 -279 -270c-162 0 -278 114 -278 270zM147 261c0 -94 65 -164 160 -164s161 64 161 164c0 101 -71 165 -161 165c-91 0 -160 -63 -160 -165zM167 625v95h281v-95h-281z" />
    <glyph glyph-name="Ohungarumlaut" unicode="&#x150;" horiz-adv-x="782" 
d="M33 350c0 202 157 358 358 358c199 0 358 -150 358 -358c0 -206 -159 -358 -358 -358c-198 0 -358 150 -358 358zM159 350c0 -145 108 -242 232 -242c130 0 232 97 232 242c0 146 -110 242 -232 242c-125 0 -232 -96 -232 -242zM660 845l-187 -106l-47 53l157 129z
M457 864l-163 -125l-48 49l117 133z" />
    <glyph glyph-name="ohungarumlaut" unicode="&#x151;" horiz-adv-x="615" 
d="M29 261c0 157 113 271 278 271c164 0 279 -114 279 -271c0 -156 -115 -270 -279 -270c-162 0 -278 114 -278 270zM147 261c0 -94 65 -164 160 -164s161 64 161 164c0 101 -71 165 -161 165c-91 0 -160 -63 -160 -165zM530 755l-138 -157l-61 45l124 170zM366 766
l-127 -168l-62 46l114 175z" />
    <glyph glyph-name="OE" unicode="&#x152;" horiz-adv-x="1156" 
d="M582 0v54c-54 -39 -120 -62 -191 -62c-198 0 -358 150 -358 358c0 202 157 358 358 358c72 0 137 -21 191 -60v52h520v-114h-399v-176h373v-110h-373v-186h409v-114h-530zM391 108c80 0 149 37 191 99v283c-43 64 -114 102 -191 102c-125 0 -232 -96 -232 -242
c0 -145 108 -242 232 -242z" />
    <glyph glyph-name="oe" unicode="&#x153;" horiz-adv-x="957" 
d="M837 166l70 -69c-53 -71 -125 -106 -211 -106c-80 0 -148 24 -196 68c-49 -43 -116 -68 -193 -68c-162 0 -278 114 -278 270c0 157 113 271 278 271c76 0 142 -25 190 -67c45 42 107 67 187 67c140 0 244 -94 244 -238c0 -17 -1 -42 -6 -73h-386c10 -82 76 -124 162 -124
c56 0 108 27 139 69zM314 97c54 0 98 21 124 49c-14 34 -21 72 -21 115c0 40 7 77 19 111c-28 34 -73 54 -129 54c-91 0 -161 -63 -161 -165c0 -94 66 -164 168 -164zM679 429c-77 0 -126 -42 -142 -109h273c-9 72 -57 109 -131 109z" />
    <glyph glyph-name="Racute" unicode="&#x154;" horiz-adv-x="683" 
d="M191 0h-121v700h275c218 0 276 -106 276 -218c0 -96 -61 -175 -154 -202l210 -280h-147l-191 257h-148v-257zM342 586h-151v-215h157c92 0 147 42 147 111c0 61 -35 104 -153 104zM492 849l-220 -104l-43 76l210 128z" />
    <glyph glyph-name="racute" unicode="&#x155;" horiz-adv-x="363" 
d="M53 0v520h114v-35c14 27 56 46 94 46c52 0 80 -17 103 -46l-65 -83c-10 15 -26 23 -52 23c-35 0 -68 -24 -80 -73v-352h-114zM322 755l-127 -157l-77 54l118 167z" />
    <glyph glyph-name="Rcommaaccent" unicode="&#x156;" horiz-adv-x="683" 
d="M191 0h-121v700h275c218 0 276 -106 276 -218c0 -96 -61 -175 -154 -202l210 -280h-147l-191 257h-148v-257zM342 586h-151v-215h157c92 0 147 42 147 111c0 61 -35 104 -153 104zM267 -100l94 62c25 -20 45 -50 45 -87c0 -76 -52 -129 -92 -153l-53 41
c21 21 35 49 35 78c0 26 -13 42 -29 59z" />
    <glyph glyph-name="rcommaaccent" unicode="&#x157;" horiz-adv-x="363" 
d="M53 0v520h114v-35c14 27 56 46 94 46c52 0 80 -17 103 -46l-65 -83c-10 15 -26 23 -52 23c-35 0 -68 -24 -80 -73v-352h-114zM71 -100l95 62c24 -20 45 -50 45 -87c0 -76 -52 -129 -92 -153l-53 41c21 21 35 49 35 78c0 26 -14 42 -30 59z" />
    <glyph glyph-name="Rcaron" unicode="&#x158;" horiz-adv-x="683" 
d="M191 0h-121v700h275c218 0 276 -106 276 -218c0 -96 -61 -175 -154 -202l210 -280h-147l-191 257h-148v-257zM342 586h-151v-215h157c92 0 147 42 147 111c0 61 -35 104 -153 104zM312 750l-183 111l46 68l139 -79l138 79l41 -67l-177 -112h-4z" />
    <glyph glyph-name="rcaron" unicode="&#x159;" horiz-adv-x="363" 
d="M53 0v520h114v-35c14 27 56 46 94 46c52 0 80 -17 103 -46l-65 -83c-10 15 -26 23 -52 23c-35 0 -68 -24 -80 -73v-352h-114zM190 609l-157 131l57 69l102 -87l106 85l52 -68l-156 -130h-4z" />
    <glyph glyph-name="Sacute" unicode="&#x15a;" horiz-adv-x="631" 
d="M476 190c0 158 -432 64 -432 320c0 108 112 198 274 198c114 0 210 -38 271 -100l-66 -86c-60 50 -124 73 -208 73c-74 0 -146 -23 -146 -82c0 -141 432 -57 432 -314c0 -123 -121 -207 -269 -207c-126 0 -248 57 -308 128l72 85c60 -63 149 -100 247 -100
c84 0 133 32 133 85zM513 849l-220 -104l-43 76l210 128z" />
    <glyph glyph-name="sacute" unicode="&#x15b;" horiz-adv-x="496" 
d="M356 148c0 78 -315 51 -315 229c0 96 80 155 214 155c92 0 176 -43 210 -92l-78 -74c-31 36 -86 60 -151 60c-42 0 -77 -11 -77 -47c0 -72 315 -47 315 -230c0 -109 -99 -158 -214 -158c-116 0 -204 54 -241 125l90 62c29 -46 94 -81 162 -81c44 0 85 14 85 51zM389 755
l-127 -157l-77 54l118 167z" />
    <glyph glyph-name="Scircumflex" unicode="&#x15c;" horiz-adv-x="631" 
d="M476 190c0 158 -432 64 -432 320c0 108 112 198 274 198c114 0 210 -38 271 -100l-66 -86c-60 50 -124 73 -208 73c-74 0 -146 -23 -146 -82c0 -141 432 -57 432 -314c0 -123 -121 -207 -269 -207c-126 0 -248 57 -308 128l72 85c60 -63 149 -100 247 -100
c84 0 133 32 133 85zM320 929l184 -111l-47 -69l-139 73l-138 -73l-40 67l176 113h4z" />
    <glyph glyph-name="scircumflex" unicode="&#x15d;" horiz-adv-x="496" 
d="M356 148c0 78 -315 51 -315 229c0 96 80 155 214 155c92 0 176 -43 210 -92l-78 -74c-31 36 -86 60 -151 60c-42 0 -77 -11 -77 -47c0 -72 315 -47 315 -230c0 -109 -99 -158 -214 -158c-116 0 -204 54 -241 125l90 62c29 -46 94 -81 162 -81c44 0 85 14 85 51zM257 790
l157 -131l-57 -70l-102 88l-106 -85l-52 68l156 130h4z" />
    <glyph glyph-name="Scedilla" unicode="&#x15e;" horiz-adv-x="611" 
d="M177 -163l41 56c18 -14 46 -25 79 -25c29 0 39 7 39 21c0 17 -18 23 -50 23h-12v83c-108 13 -205 71 -247 136l75 87c51 -64 133 -113 231 -113c71 0 123 32 123 85c0 146 -412 64 -412 320c0 108 102 198 264 198c114 0 208 -37 264 -111l-80 -78
c-41 43 -103 76 -187 76c-62 0 -136 -23 -136 -82c0 -141 412 -69 412 -314c0 -119 -104 -201 -244 -207v-24c77 -4 109 -36 109 -85c0 -51 -36 -90 -129 -90c-75 0 -115 22 -140 44z" />
    <glyph glyph-name="scedilla" unicode="&#x15f;" horiz-adv-x="496" 
d="M130 -166l35 59c18 -14 45 -25 78 -25c30 0 40 7 40 21c0 17 -18 23 -50 23h-13v81c-96 11 -169 60 -201 123l90 62c29 -46 94 -81 162 -81c44 0 85 14 85 51c0 78 -315 51 -315 229c0 96 80 155 214 155c92 0 176 -43 210 -92l-78 -74c-31 36 -86 60 -151 60
c-42 0 -77 -11 -77 -47c0 -72 315 -47 315 -230c0 -102 -86 -151 -191 -157v-24c68 -4 103 -36 103 -85c0 -51 -44 -90 -137 -90c-60 0 -96 23 -119 41z" />
    <glyph glyph-name="Scaron" unicode="&#x160;" horiz-adv-x="631" 
d="M476 190c0 158 -432 64 -432 320c0 108 112 198 274 198c114 0 210 -38 271 -100l-66 -86c-60 50 -124 73 -208 73c-74 0 -146 -23 -146 -82c0 -141 432 -57 432 -314c0 -123 -121 -207 -269 -207c-126 0 -248 57 -308 128l72 85c60 -63 149 -100 247 -100
c84 0 133 32 133 85zM316 750l-183 111l46 68l139 -79l138 79l41 -67l-177 -112h-4z" />
    <glyph glyph-name="scaron" unicode="&#x161;" horiz-adv-x="496" 
d="M356 148c0 78 -315 51 -315 229c0 96 80 155 214 155c92 0 176 -43 210 -92l-78 -74c-31 36 -86 60 -151 60c-42 0 -77 -11 -77 -47c0 -72 315 -47 315 -230c0 -109 -99 -158 -214 -158c-116 0 -204 54 -241 125l90 62c29 -46 94 -81 162 -81c44 0 85 14 85 51zM247 609
l-157 131l57 69l102 -87l106 85l52 -68l-156 -130h-4z" />
    <glyph glyph-name="Tcedilla" unicode="&#x162;" horiz-adv-x="593" 
d="M1 586v114h591v-114h-235v-586h-29v-32c75 -4 107 -36 107 -85c0 -51 -36 -90 -129 -90c-75 0 -115 22 -140 44l41 56c18 -14 46 -25 79 -25c29 0 39 7 39 21c0 17 -18 23 -50 23h-11v88h-28v586h-235z" />
    <glyph glyph-name="tcedilla" unicode="&#x163;" horiz-adv-x="413" 
d="M125 -166l35 59c18 -14 45 -25 78 -25c30 0 40 7 40 21c0 17 -18 23 -50 23h-13v86c-75 16 -122 77 -122 183v233h-90v106h90v107h114v-107h168v-106h-168v-201c0 -84 20 -113 67 -113c32 0 56 21 74 44l68 -64c-25 -44 -77 -79 -138 -85v-27c68 -4 103 -36 103 -85
c0 -51 -44 -90 -137 -90c-60 0 -96 23 -119 41z" />
    <glyph glyph-name="Tcaron" unicode="&#x164;" horiz-adv-x="593" 
d="M1 586v114h591v-114h-235v-586h-121v586h-235zM298 750l-183 111l46 68l139 -79l138 79l41 -67l-177 -112h-4z" />
    <glyph glyph-name="tcaron" unicode="&#x165;" horiz-adv-x="413" 
d="M3 414v106h91v107h112v-414c0 -84 21 -113 68 -113c32 0 56 21 74 44l68 -64c-28 -49 -88 -86 -159 -86c-99 0 -163 63 -163 187v233h-91zM280 711h119c9 -16 13 -40 13 -67c0 -75 -57 -137 -108 -168l-49 44c34 30 48 76 48 106c0 34 -10 68 -23 85z" />
    <glyph glyph-name="Umacron" unicode="&#x16a;" horiz-adv-x="726" 
d="M662 700v-402c0 -218 -146 -305 -291 -305c-164 0 -308 104 -308 311v396h121v-381c0 -128 76 -213 187 -213c117 0 170 88 170 209v385h121zM209 780v95h307v-95h-307z" />
    <glyph glyph-name="umacron" unicode="&#x16b;" horiz-adv-x="578" 
d="M525 523v-523h-114v55c-32 -36 -80 -64 -145 -64c-144 0 -216 73 -216 233v299h114v-288c0 -76 23 -138 113 -138c60 0 105 32 134 90v336h114zM149 625v95h281v-95h-281z" />
    <glyph glyph-name="Ubreve" unicode="&#x16c;" horiz-adv-x="726" 
d="M662 700v-402c0 -218 -146 -305 -291 -305c-164 0 -308 104 -308 311v396h121v-381c0 -128 76 -213 187 -213c117 0 170 88 170 209v385h121zM173 865l52 59c24 -26 67 -61 143 -61c66 0 113 30 140 61l45 -58c-34 -56 -106 -105 -185 -105c-95 0 -164 56 -195 104z" />
    <glyph glyph-name="ubreve" unicode="&#x16d;" horiz-adv-x="578" 
d="M525 523v-523h-114v55c-32 -36 -80 -64 -145 -64c-144 0 -216 73 -216 233v299h114v-288c0 -76 23 -138 113 -138c60 0 105 32 134 90v336h114zM127 717l51 58c21 -24 60 -55 112 -55c51 0 92 26 115 53l40 -55c-29 -44 -76 -95 -159 -95c-86 0 -141 64 -159 94z" />
    <glyph glyph-name="Uring" unicode="&#x16e;" horiz-adv-x="726" 
d="M662 700v-402c0 -218 -146 -305 -291 -305c-164 0 -308 104 -308 311v396h121v-381c0 -128 76 -213 187 -213c117 0 170 88 170 209v385h121zM224 838c0 75 64 109 137 109c77 0 142 -33 142 -109c0 -72 -62 -111 -142 -111c-77 0 -137 38 -137 111zM311 838
c0 -28 20 -45 52 -45s53 17 53 45s-22 42 -53 42c-32 0 -52 -15 -52 -42z" />
    <glyph glyph-name="uring" unicode="&#x16f;" horiz-adv-x="578" 
d="M525 523v-523h-114v55c-32 -36 -80 -64 -145 -64c-144 0 -216 73 -216 233v299h114v-288c0 -76 23 -138 113 -138c60 0 105 32 134 90v336h114zM167 701c0 64 52 117 122 117c71 0 124 -53 124 -117s-53 -115 -124 -115c-70 0 -122 51 -122 115zM244 702
c0 -27 18 -46 46 -46c27 0 46 17 46 46s-18 46 -46 46s-46 -18 -46 -46z" />
    <glyph glyph-name="Uhungarumlaut" unicode="&#x170;" horiz-adv-x="726" 
d="M662 700v-402c0 -218 -146 -305 -291 -305c-164 0 -308 104 -308 311v396h121v-381c0 -128 76 -213 187 -213c117 0 170 88 170 209v385h121zM626 845l-187 -106l-47 53l157 129zM423 864l-163 -125l-48 49l117 133z" />
    <glyph glyph-name="uhungarumlaut" unicode="&#x171;" horiz-adv-x="578" 
d="M525 523v-523h-114v55c-32 -36 -80 -64 -145 -64c-144 0 -216 73 -216 233v299h114v-288c0 -76 23 -138 113 -138c60 0 105 32 134 90v336h114zM506 755l-138 -157l-61 45l124 170zM342 766l-127 -168l-62 46l114 175z" />
    <glyph glyph-name="Uogonek" unicode="&#x172;" horiz-adv-x="726" 
d="M662 700v-402c0 -185 -105 -276 -226 -299c-19 -16 -31 -37 -31 -59c0 -37 21 -47 44 -47c18 0 29 2 46 10l31 -73c-17 -16 -57 -30 -101 -30c-69 -1 -133 27 -133 93c0 42 29 74 70 100c-160 4 -299 107 -299 311v396h121v-381c0 -128 76 -213 187 -213
c117 0 170 88 170 209v385h121z" />
    <glyph glyph-name="uogonek" unicode="&#x173;" horiz-adv-x="578" 
d="M503 -96l34 -73c-17 -16 -55 -31 -101 -31c-67 0 -130 29 -130 96c0 55 47 91 105 110v49c-32 -36 -80 -64 -145 -64c-144 0 -216 73 -216 233v299h114v-288c0 -76 23 -138 113 -138c60 0 105 32 134 90v336h114v-523h-11c-47 -3 -91 -35 -91 -68c0 -23 16 -37 37 -37
c15 0 26 1 43 9z" />
    <glyph glyph-name="Ydieresis" unicode="&#x178;" horiz-adv-x="671" 
d="M678 700l-283 -397v-303h-121v303l-281 397h150l193 -279l197 279h145zM146 828c0 36 30 62 70 62c32 0 66 -26 66 -62c0 -38 -34 -62 -66 -62c-40 0 -70 24 -70 62zM389 828c0 36 32 62 69 62c33 0 66 -25 66 -62c0 -38 -33 -62 -66 -62c-37 0 -69 24 -69 62z" />
    <glyph glyph-name="Zacute" unicode="&#x179;" horiz-adv-x="633" 
d="M29 586v114h574v-81l-418 -505h428v-114h-601v81l416 505h-399zM495 849l-220 -104l-43 76l210 128z" />
    <glyph glyph-name="zacute" unicode="&#x17a;" horiz-adv-x="504" 
d="M36 414v106h448v-73l-292 -341h287v-106h-459v74l292 340h-276zM389 755l-127 -157l-77 54l118 167z" />
    <glyph glyph-name="Zdotaccent" unicode="&#x17b;" horiz-adv-x="633" 
d="M29 586v114h574v-81l-418 -505h428v-114h-601v81l416 505h-399zM250 827c0 34 28 60 67 60c37 0 66 -26 66 -60c0 -36 -29 -62 -66 -62c-41 0 -67 26 -67 62z" />
    <glyph glyph-name="zdotaccent" unicode="&#x17c;" horiz-adv-x="504" 
d="M36 414v106h448v-73l-292 -341h287v-106h-459v74l292 340h-276zM185 671c0 34 29 59 67 59c37 0 66 -25 66 -59c0 -37 -29 -63 -66 -63c-40 0 -67 26 -67 63z" />
    <glyph glyph-name="Zcaron" unicode="&#x17d;" horiz-adv-x="633" 
d="M29 586v114h574v-81l-418 -505h428v-114h-601v81l416 505h-399zM317 750l-183 111l46 68l139 -79l138 79l41 -67l-177 -112h-4z" />
    <glyph glyph-name="zcaron" unicode="&#x17e;" horiz-adv-x="504" 
d="M36 414v106h448v-73l-292 -341h287v-106h-459v74l292 340h-276zM251 609l-157 131l57 69l102 -87l106 85l52 -68l-156 -130h-4z" />
    <glyph glyph-name="uni018F" unicode="&#x18f;" horiz-adv-x="761" 
d="M27 312c0 36 7 75 16 102h558c-19 110 -104 181 -234 181c-70 0 -160 -30 -214 -99l-81 78c68 91 187 134 301 134c219 0 354 -138 354 -355c0 -208 -132 -361 -358 -361c-238 0 -341 177 -342 320zM602 301h-454c10 -111 83 -196 225 -196c127 0 219 78 229 196z" />
    <glyph glyph-name="florin" unicode="&#x192;" horiz-adv-x="555" 
d="M335 481l-5 -24h144v-105h-162l-61 -342c-20 -111 -56 -218 -184 -218c-48 0 -92 18 -121 48l38 88c21 -20 47 -30 73 -30c42 0 65 29 76 89l66 365h-134v105h153l7 42c18 114 68 210 204 210c63 0 100 -17 127 -40l-41 -90c-22 15 -45 24 -78 24
c-60 0 -84 -36 -102 -122z" />
    <glyph glyph-name="uni01DD" unicode="&#x1dd;" horiz-adv-x="569" 
d="M120 357l-70 69c54 70 129 106 234 106c144 0 256 -106 256 -270c0 -152 -93 -271 -267 -271c-140 0 -244 96 -244 240c0 17 1 42 6 73h386c-10 82 -77 122 -140 122c-79 0 -130 -27 -161 -69zM278 94c77 0 129 44 142 111h-273c8 -70 57 -111 131 -111z" />
    <glyph glyph-name="Scommaaccent" unicode="&#x218;" horiz-adv-x="631" 
d="M476 190c0 158 -432 64 -432 320c0 108 112 198 274 198c114 0 210 -38 271 -100l-66 -86c-60 50 -124 73 -208 73c-74 0 -146 -23 -146 -82c0 -141 432 -57 432 -314c0 -123 -121 -207 -269 -207c-126 0 -248 57 -308 128l72 85c60 -63 149 -100 247 -100
c84 0 133 32 133 85zM249 -100l94 62c25 -20 45 -50 45 -87c0 -76 -52 -129 -92 -153l-53 41c21 21 35 49 35 78c0 26 -13 42 -29 59z" />
    <glyph glyph-name="scommaaccent" unicode="&#x219;" horiz-adv-x="496" 
d="M356 148c0 78 -315 51 -315 229c0 96 80 155 214 155c92 0 176 -43 210 -92l-78 -74c-31 36 -86 60 -151 60c-42 0 -77 -11 -77 -47c0 -72 315 -47 315 -230c0 -109 -99 -158 -214 -158c-116 0 -204 54 -241 125l90 62c29 -46 94 -81 162 -81c44 0 85 14 85 51zM181 -100
l95 62c24 -20 45 -50 45 -87c0 -76 -52 -129 -92 -153l-53 41c21 21 35 49 35 78c0 26 -14 42 -30 59z" />
    <glyph glyph-name="Tcommaaccent" unicode="&#x21a;" horiz-adv-x="593" 
d="M1 586v114h591v-114h-235v-586h-121v586h-235zM230 -100l94 62c25 -20 45 -50 45 -87c0 -76 -52 -129 -92 -153l-53 41c21 21 35 49 35 78c0 26 -13 42 -29 59z" />
    <glyph glyph-name="tcommaaccent" unicode="&#x21b;" horiz-adv-x="413" 
d="M3 414v106h90v107h114v-107h168v-106h-168v-201c0 -84 20 -113 67 -113c32 0 56 21 74 44l68 -64c-28 -49 -88 -86 -159 -86c-99 0 -164 63 -164 187v233h-90zM163 -100l95 62c24 -20 45 -50 45 -87c0 -76 -52 -129 -92 -153l-53 41c21 21 35 49 35 78
c0 26 -14 42 -30 59z" />
    <glyph glyph-name="uni0237" unicode="&#x237;" horiz-adv-x="254" 
d="M186 520v-521c0 -130 -55 -208 -172 -208c-74 0 -135 28 -166 100l97 43c12 -19 26 -37 60 -37c44 0 67 34 67 105v518h114z" />
    <glyph glyph-name="uni0259" unicode="&#x259;" horiz-adv-x="569" 
d="M120 357l-70 69c54 70 129 106 234 106c144 0 256 -106 256 -270c0 -152 -93 -271 -267 -271c-140 0 -244 96 -244 240c0 17 1 42 6 73h386c-10 82 -77 122 -140 122c-79 0 -130 -27 -161 -69zM278 94c77 0 129 44 142 111h-273c8 -70 57 -111 131 -111z" />
    <glyph glyph-name="afii57929" unicode="&#x2bc;" horiz-adv-x="198" 
d="M58 677l95 60c31 -26 45 -62 45 -100c0 -75 -57 -133 -108 -165l-49 45c30 25 47 58 47 87s-16 56 -30 73z" />
    <glyph glyph-name="circumflex" unicode="&#x2c6;" horiz-adv-x="461" 
d="M304 790l157 -131l-57 -70l-102 88l-106 -85l-52 68l156 130h4z" />
    <glyph glyph-name="caron" unicode="&#x2c7;" horiz-adv-x="458" 
d="M298 609l-157 131l57 69l102 -87l106 85l52 -68l-156 -130h-4z" />
    <glyph glyph-name="breve" unicode="&#x2d8;" horiz-adv-x="462" 
d="M144 717l51 58c21 -24 60 -55 112 -55c51 0 92 26 115 53l40 -55c-29 -44 -76 -95 -159 -95c-86 0 -141 64 -159 94z" />
    <glyph glyph-name="dotaccent" unicode="&#x2d9;" horiz-adv-x="250" 
d="M60 671c0 34 29 59 67 59c37 0 66 -25 66 -59c0 -37 -29 -63 -66 -63c-40 0 -67 26 -67 63z" />
    <glyph glyph-name="ring" unicode="&#x2da;" horiz-adv-x="430" 
d="M184 701c0 64 52 117 122 117c71 0 124 -53 124 -117s-53 -115 -124 -115c-70 0 -122 51 -122 115zM261 702c0 -27 18 -46 46 -46c27 0 46 17 46 46s-18 46 -46 46s-46 -18 -46 -46z" />
    <glyph glyph-name="ogonek" unicode="&#x2db;" horiz-adv-x="384" 
d="M350 -96l34 -73c-17 -16 -55 -31 -101 -31c-67 0 -130 29 -130 96c0 88 122 128 216 127v-23c-50 0 -99 -33 -99 -68c0 -23 16 -37 37 -37c15 0 26 1 43 9z" />
    <glyph glyph-name="tilde" unicode="&#x2dc;" horiz-adv-x="466" 
d="M167 612l-49 53c37 47 82 71 122 71c47 0 78 -44 120 -44c28 0 46 11 66 30l40 -58c-35 -43 -78 -66 -116 -66c-48 0 -77 43 -119 43c-22 0 -45 -13 -64 -29z" />
    <glyph glyph-name="hungarumlaut" unicode="&#x2dd;" horiz-adv-x="537" 
d="M537 755l-138 -157l-61 45l124 170zM373 766l-127 -168l-62 46l114 175z" />
    <glyph glyph-name="gravecomb" unicode="&#x300;" horiz-adv-x="0" 
d="M-275 598l-137 154l89 67l115 -167z" />
    <glyph glyph-name="acutecomb" unicode="&#x301;" horiz-adv-x="0" 
d="M-168 755l-127 -157l-77 54l118 167z" />
    <glyph glyph-name="uni0394" unicode="&#x394;" horiz-adv-x="726" 
d="M18 0l303 707h78l309 -707h-690zM360 509l-173 -406h350z" />
    <glyph glyph-name="uni0394" unicode="&#x2206;" horiz-adv-x="726" 
d="M18 0l303 707h78l309 -707h-690zM360 509l-173 -406h350z" />
    <glyph glyph-name="uni03A9" unicode="&#x3a9;" horiz-adv-x="821" 
d="M59 0v117h124c-49 20 -121 119 -121 259c0 203 150 334 349 334c202 0 348 -131 348 -334c0 -148 -77 -233 -129 -259h132v-117h-312v117c96 29 184 126 184 249c0 116 -87 227 -223 227c-141 0 -224 -103 -224 -229c0 -123 88 -224 183 -247v-117h-311z" />
    <glyph glyph-name="uni03A9" unicode="&#x2126;" horiz-adv-x="821" 
d="M59 0v117h124c-49 20 -121 119 -121 259c0 203 150 334 349 334c202 0 348 -131 348 -334c0 -148 -77 -233 -129 -259h132v-117h-312v117c96 29 184 126 184 249c0 116 -87 227 -223 227c-141 0 -224 -103 -224 -229c0 -123 88 -224 183 -247v-117h-311z" />
    <glyph glyph-name="pi" unicode="&#x3c0;" horiz-adv-x="667" 
d="M42 414v106h583v-106h-94v-257c0 -45 13 -61 41 -61c20 0 39 10 56 22l26 -86c-30 -24 -74 -42 -120 -42c-74 0 -116 44 -116 151v273h-162v-63c0 -292 -64 -360 -224 -360l-9 109c72 1 117 26 119 232l1 82h-101z" />
    <glyph glyph-name="afii10023" unicode="&#x401;" horiz-adv-x="645" 
d="M70 0v700h520v-114h-399v-176h373v-110h-373v-186h409v-114h-530zM136 828c0 36 30 62 70 62c32 0 66 -26 66 -62c0 -38 -34 -62 -66 -62c-40 0 -70 24 -70 62zM379 828c0 36 32 62 69 62c33 0 66 -25 66 -62c0 -38 -33 -62 -66 -62c-37 0 -69 24 -69 62z" />
    <glyph glyph-name="afii10051" unicode="&#x402;" horiz-adv-x="754" 
d="M598 203c0 84 -44 129 -117 130c-53 0 -102 -26 -127 -66v-267h-121v587h-232v113h587v-113h-234v-190c28 26 82 49 150 49c112 0 216 -60 216 -226c0 -164 -95 -229 -192 -229c-57 0 -99 23 -123 58l68 80c13 -14 24 -25 53 -25c45 0 72 35 72 99z" />
    <glyph glyph-name="afii10052" unicode="&#x403;" horiz-adv-x="580" 
d="M70 0v700h510v-114h-389v-586h-121zM502 849l-220 -104l-43 76l210 128z" />
    <glyph glyph-name="afii10053" unicode="&#x404;" horiz-adv-x="687" 
d="M483 413v-113h-326c17 -134 121 -195 241 -195c85 0 147 45 181 99l93 -50c-47 -112 -176 -162 -266 -162c-224 0 -373 141 -373 358c0 207 144 358 366 358c86 0 207 -36 260 -125l-89 -66c-37 51 -104 78 -179 78c-116 0 -208 -68 -232 -182h324z" />
    <glyph glyph-name="afii10054" unicode="&#x405;" horiz-adv-x="631" 
d="M476 190c0 158 -432 64 -432 320c0 108 112 198 274 198c114 0 210 -38 271 -100l-66 -86c-60 50 -124 73 -208 73c-74 0 -146 -23 -146 -82c0 -141 432 -57 432 -314c0 -123 -121 -207 -269 -207c-126 0 -248 57 -308 128l72 85c60 -63 149 -100 247 -100
c84 0 133 32 133 85z" />
    <glyph glyph-name="afii10055" unicode="&#x406;" horiz-adv-x="261" 
d="M70 0v700h121v-700h-121z" />
    <glyph glyph-name="afii10056" unicode="&#x407;" horiz-adv-x="275" 
d="M-12 805c0 33 28 58 64 58c33 0 65 -25 65 -58c0 -35 -32 -59 -65 -59c-36 0 -64 24 -64 59zM158 805c0 33 30 58 66 58c34 0 63 -25 63 -58c0 -35 -29 -59 -63 -59c-36 0 -66 24 -66 59zM77 0v700h121v-700h-121z" />
    <glyph glyph-name="afii10057" unicode="&#x408;" horiz-adv-x="486" 
d="M419 700v-483c0 -146 -84 -225 -210 -225c-117 0 -184 65 -216 130l90 68c26 -44 65 -85 116 -85c66 1 99 32 99 135v460h121z" />
    <glyph glyph-name="afii10058" unicode="&#x409;" horiz-adv-x="1046" 
d="M510 586h-250v-94c0 -393 -107 -498 -218 -496c-13 0 -29 2 -42 3v117c77 -9 142 36 142 429v155h489v-250h118c195 0 274 -85 274 -219c0 -153 -112 -231 -286 -231h-227v586zM747 336h-116v-222h110c100 0 156 32 156 117c0 73 -52 105 -150 105z" />
    <glyph glyph-name="afii10059" unicode="&#x40a;" horiz-adv-x="1047" 
d="M637 432h118c183 0 269 -75 269 -211c0 -153 -107 -221 -280 -221h-228v318h-325v-318h-121v700h121v-268h325v268h121v-268zM754 318h-117v-204h111c99 0 150 27 150 105c0 72 -47 99 -144 99z" />
    <glyph glyph-name="afii10060" unicode="&#x40b;" horiz-adv-x="735" 
d="M1 586v114h587v-114h-234v-185c32 23 76 45 135 45c127 0 213 -67 213 -234v-212h-121v195c0 75 -28 138 -111 138c-42 0 -89 -23 -116 -59v-274h-121v586h-232z" />
    <glyph glyph-name="afii10061" unicode="&#x40c;" horiz-adv-x="680" 
d="M70 0v700h121v-307l314 307h158l-318 -314l341 -386h-161l-271 305l-63 -61v-244h-121zM497 849l-220 -104l-43 76l210 128z" />
    <glyph glyph-name="afii10062" unicode="&#x40e;" horiz-adv-x="707" 
d="M196 14l47 101c7 -3 14 -5 23 -5c23 0 45 25 67 70l-333 520h149l246 -393l185 393h127l-259 -538c-49 -104 -98 -165 -185 -165c-22 0 -45 5 -67 17zM160 908h114c15 -41 44 -59 86 -59c43 0 77 18 86 59h114c-7 -90 -90 -158 -196 -158c-121 0 -187 67 -204 158z" />
    <glyph glyph-name="afii10145" unicode="&#x40f;" horiz-adv-x="733" 
d="M70 0v700h121v-587h351v587h121v-700h-238v-144h-117v144h-238z" />
    <glyph glyph-name="afii10017" unicode="&#x410;" horiz-adv-x="704" 
d="M-1 0l307 700h92l307 -700h-127l-68 155h-319l-67 -155h-125zM350 525l-115 -266h230z" />
    <glyph glyph-name="afii10018" unicode="&#x411;" horiz-adv-x="662" 
d="M582 700v-114h-391v-159h193c166 0 248 -76 248 -208c0 -152 -104 -219 -284 -219h-278v700h512zM360 313h-169v-199h163c101 0 153 31 153 104c0 66 -45 95 -147 95z" />
    <glyph glyph-name="afii10019" unicode="&#x412;" horiz-adv-x="675" 
d="M70 0v700h297c187 0 244 -74 244 -176c0 -73 -33 -125 -84 -156c67 -21 108 -74 108 -164c0 -145 -112 -204 -274 -204h-291zM361 302h-170v-188h162c110 0 156 29 156 97c0 62 -42 91 -148 91zM351 586h-160v-174h173c77 0 122 32 122 85c0 59 -31 89 -135 89z" />
    <glyph glyph-name="afii10020" unicode="&#x413;" horiz-adv-x="580" 
d="M70 0v700h510v-114h-389v-586h-121z" />
    <glyph glyph-name="afii10021" unicode="&#x414;" horiz-adv-x="743" 
d="M0 -123v236h75c46 69 78 174 78 485v102h495v-587h85v-236h-117v123h-499v-123h-117zM268 587v-44c0 -217 -23 -348 -67 -430h326v474h-259z" />
    <glyph glyph-name="afii10022" unicode="&#x415;" horiz-adv-x="645" 
d="M70 0v700h520v-114h-399v-176h373v-110h-373v-186h409v-114h-530z" />
    <glyph glyph-name="afii10024" unicode="&#x416;" horiz-adv-x="948" 
d="M288 381l-286 319h148l263 -291v291h121v-292l262 292h150l-289 -318l291 -382h-145l-239 315l-30 -31v-284h-121v284l-33 32l-241 -316h-139z" />
    <glyph glyph-name="afii10025" unicode="&#x417;" horiz-adv-x="650" 
d="M332 -10c-146 0 -261 50 -325 149l94 66c52 -67 123 -102 228 -102c99 0 162 48 162 108c0 56 -60 89 -163 89h-117v114h111c85 0 145 36 145 90c0 69 -75 93 -156 93c-92 0 -146 -37 -189 -90l-94 65c56 77 150 138 300 138c145 0 261 -72 261 -199
c0 -62 -39 -113 -97 -143c85 -28 121 -93 121 -156c0 -140 -124 -222 -281 -222z" />
    <glyph glyph-name="afii10026" unicode="&#x418;" horiz-adv-x="747" 
d="M171 0h-101v700h121v-485l384 485h102v-700h-121v485z" />
    <glyph glyph-name="afii10027" unicode="&#x419;" horiz-adv-x="747" 
d="M171 0h-101v700h121v-485l384 485h102v-700h-121v485zM174 908h114c15 -41 44 -59 86 -59c43 0 77 18 86 59h114c-7 -90 -90 -158 -196 -158c-121 0 -187 67 -204 158z" />
    <glyph glyph-name="afii10028" unicode="&#x41a;" horiz-adv-x="680" 
d="M70 0v700h121v-307l314 307h158l-318 -314l341 -386h-161l-271 305l-63 -61v-244h-121z" />
    <glyph glyph-name="afii10029" unicode="&#x41b;" horiz-adv-x="718" 
d="M527 0v587h-267v-95c0 -393 -107 -498 -218 -496c-13 0 -29 2 -42 3v117c77 -9 142 36 142 429v155h506v-700h-121z" />
    <glyph glyph-name="afii10030" unicode="&#x41c;" horiz-adv-x="844" 
d="M70 0v700h107l250 -325l241 325h106v-700h-121v485l-213 -278h-31l-218 279v-486h-121z" />
    <glyph glyph-name="afii10031" unicode="&#x41d;" horiz-adv-x="749" 
d="M558 0v297h-367v-297h-121v700h121v-289h367v289h121v-700h-121z" />
    <glyph glyph-name="afii10032" unicode="&#x41e;" horiz-adv-x="782" 
d="M33 350c0 202 157 358 358 358c199 0 358 -150 358 -358c0 -206 -159 -358 -358 -358c-198 0 -358 150 -358 358zM159 350c0 -145 108 -242 232 -242c130 0 232 97 232 242c0 146 -110 242 -232 242c-125 0 -232 -96 -232 -242z" />
    <glyph glyph-name="afii10033" unicode="&#x41f;" horiz-adv-x="746" 
d="M555 0v586h-364v-586h-121v700h606v-700h-121z" />
    <glyph glyph-name="afii10034" unicode="&#x420;" horiz-adv-x="678" 
d="M191 0h-121v700h283c236 0 291 -119 291 -230c0 -115 -74 -230 -292 -230h-161v-240zM357 587h-166v-234h159c118 0 168 46 168 118c0 67 -42 116 -161 116z" />
    <glyph glyph-name="afii10035" unicode="&#x421;" horiz-adv-x="692" 
d="M606 200l71 -78c-58 -82 -165 -130 -284 -130c-220 0 -360 141 -360 358c0 200 141 358 358 358c127 0 227 -51 275 -121l-80 -76c-48 53 -113 81 -189 81c-144 0 -238 -96 -238 -242s100 -242 243 -242c88 0 156 35 204 92z" />
    <glyph glyph-name="afii10036" unicode="&#x422;" horiz-adv-x="593" 
d="M1 586v114h591v-114h-235v-586h-121v586h-235z" />
    <glyph glyph-name="afii10037" unicode="&#x423;" horiz-adv-x="707" 
d="M196 14l47 101c7 -3 14 -5 23 -5c23 0 45 25 67 70l-333 520h149l246 -393l185 393h127l-259 -538c-49 -104 -98 -165 -185 -165c-22 0 -45 5 -67 17z" />
    <glyph glyph-name="afii10038" unicode="&#x424;" horiz-adv-x="877" 
d="M379 -15v83h-4c-207 0 -348 115 -348 292c0 189 150 292 352 292v63h120v-63c185 0 352 -95 352 -292c0 -176 -141 -292 -347 -292h-5v-83h-120zM501 539h-2v-358h5c130 0 221 61 221 179c0 113 -75 179 -224 179zM153 360c0 -101 78 -179 222 -179h4v358
c-129 0 -226 -56 -226 -179z" />
    <glyph glyph-name="afii10039" unicode="&#x425;" horiz-adv-x="682" 
d="M667 700l-253 -345l262 -355h-148l-187 257l-187 -257h-147l262 355l-251 345h145l179 -245l179 245h146z" />
    <glyph glyph-name="afii10040" unicode="&#x426;" horiz-adv-x="747" 
d="M70 0v700h121v-586h340v586h121v-586h85v-237h-117v123h-550z" />
    <glyph glyph-name="afii10041" unicode="&#x427;" horiz-adv-x="696" 
d="M627 700v-700h-121v281c-39 -22 -121 -44 -193 -44c-152 0 -270 67 -270 235v228h121v-159c0 -139 53 -191 168 -191c56 0 125 17 174 49v301h121z" />
    <glyph glyph-name="afii10042" unicode="&#x428;" horiz-adv-x="925" 
d="M70 0v700h121v-586h211v586h121v-586h211v586h121v-700h-785z" />
    <glyph glyph-name="afii10043" unicode="&#x429;" horiz-adv-x="950" 
d="M70 0v700h121v-586h211v586h121v-586h211v586h121v-586h85v-237h-117v123h-753z" />
    <glyph glyph-name="afii10044" unicode="&#x42a;" horiz-adv-x="749" 
d="M0 587v113h282v-247h156c193 0 288 -77 288 -222c0 -157 -111 -231 -297 -231h-268v587h-161zM436 340h-154v-226h151c108 0 167 31 167 117c0 73 -58 109 -164 109z" />
    <glyph glyph-name="afii10045" unicode="&#x42b;" horiz-adv-x="865" 
d="M675 0v700h121v-700h-121zM318 340h-127v-226h125c109 0 167 31 167 117c0 73 -57 109 -165 109zM191 700v-247h130c193 0 288 -87 288 -222c0 -153 -111 -231 -297 -231h-242v700h121z" />
    <glyph glyph-name="afii10046" unicode="&#x42c;" horiz-adv-x="661" 
d="M348 340h-157v-226h154c109 0 167 38 167 117c0 73 -57 109 -164 109zM191 700v-247h159c193 0 288 -79 288 -222c0 -153 -110 -231 -296 -231h-272v700h121z" />
    <glyph glyph-name="afii10047" unicode="&#x42d;" horiz-adv-x="701" 
d="M204 301v113h337c-19 110 -103 181 -234 181c-70 0 -159 -30 -214 -99l-80 78c68 91 187 134 300 134c219 0 355 -138 355 -355c0 -208 -132 -361 -363 -361c-100 0 -222 33 -298 141l82 69c50 -68 141 -97 221 -97c130 0 219 79 233 196h-339z" />
    <glyph glyph-name="afii10048" unicode="&#x42e;" horiz-adv-x="997" 
d="M70 0v700h121v-291h89c25 171 159 299 340 299c207 0 344 -150 344 -358c0 -206 -146 -358 -344 -358c-186 0 -320 121 -341 312h-88v-304h-121zM400 350c0 -145 95 -245 220 -245c133 0 218 100 218 245c0 146 -89 245 -218 245c-126 0 -220 -99 -220 -245z" />
    <glyph glyph-name="afii10049" unicode="&#x42f;" horiz-adv-x="691" 
d="M500 0v246h-155l-197 -246h-145l217 267c-106 27 -168 100 -168 205c0 127 92 228 284 228h285v-700h-121zM315 359h185v228h-173c-107 0 -149 -47 -149 -115c0 -61 52 -109 137 -113z" />
    <glyph glyph-name="afii10065" unicode="&#x430;" horiz-adv-x="534" 
d="M109 371l-56 84c49 48 133 77 218 77c137 0 213 -78 213 -214v-318h-114v57c-31 -34 -84 -63 -161 -63c-114 0 -189 64 -189 164c0 116 105 165 243 165c37 0 83 -6 107 -14c1 75 -28 117 -112 117c-57 0 -99 -17 -149 -55zM234 93c69 0 113 36 136 71v50
c-21 7 -58 14 -95 14c-82 0 -137 -17 -137 -69c0 -41 38 -66 96 -66z" />
    <glyph glyph-name="afii10066" unicode="&#x431;" horiz-adv-x="604" 
d="M508 743l19 -103c-88 -36 -208 -15 -285 -49c-66 -31 -92 -94 -97 -174c40 57 109 80 190 80c134 0 240 -83 240 -241c0 -152 -104 -266 -264 -266c-167 0 -279 110 -279 312c0 189 32 320 169 389c93 47 211 23 307 52zM150 283v-11c0 -99 65 -176 160 -176
c94 0 147 65 147 153c0 85 -50 142 -144 142c-85 0 -140 -51 -163 -108z" />
    <glyph glyph-name="afii10067" unicode="&#x432;" horiz-adv-x="536" 
d="M53 0v520h222c144 0 219 -37 219 -138c0 -48 -23 -80 -58 -106c49 -19 73 -65 73 -121c0 -102 -78 -155 -210 -155h-246zM291 215h-124v-112h121c68 0 103 16 103 55c0 41 -32 57 -100 57zM272 417h-105v-103h134c47 0 75 17 75 53c0 42 -38 50 -104 50z" />
    <glyph glyph-name="afii10068" unicode="&#x433;" horiz-adv-x="449" 
d="M53 0v520h392v-106h-278v-414h-114z" />
    <glyph glyph-name="afii10069" unicode="&#x434;" horiz-adv-x="599" 
d="M5 -119v225h60c47 82 59 189 59 324v90h398v-414h73v-225h-106v119h-378v-119h-106zM232 414v-43c0 -97 -18 -202 -49 -265h225v308h-176z" />
    <glyph glyph-name="afii10070" unicode="&#x435;" horiz-adv-x="569" 
d="M449 166l70 -69c-53 -71 -126 -106 -211 -106c-167 0 -279 106 -279 270c0 152 93 271 267 271c140 0 244 -94 244 -238c0 -17 -2 -42 -6 -73h-386c9 -82 76 -124 162 -124c56 0 108 27 139 69zM291 429c-77 0 -127 -42 -142 -109h273c-9 72 -58 109 -131 109z" />
    <glyph glyph-name="afii10072" unicode="&#x436;" horiz-adv-x="761" 
d="M213 283l-214 237h142l182 -203v203h114v-204l186 204h138l-216 -236l221 -284h-139l-168 220l-22 -23v-197h-114v196l-24 25l-166 -221h-136z" />
    <glyph glyph-name="afii10073" unicode="&#x437;" horiz-adv-x="510" 
d="M248 -12c-124 0 -194 48 -240 126l86 60c29 -50 82 -83 155 -83c68 0 116 27 116 72c0 35 -30 52 -83 52h-115v99h109c42 0 71 22 71 55c0 43 -47 63 -99 63c-78 0 -116 -32 -147 -70l-81 54c33 57 108 119 234 119c137 0 211 -62 211 -150c0 -39 -14 -75 -51 -104
c52 -30 69 -66 69 -117c0 -111 -101 -176 -235 -176z" />
    <glyph glyph-name="afii10074" unicode="&#x438;" horiz-adv-x="596" 
d="M152 0h-99v520h114v-339l276 339h99v-520h-114v338z" />
    <glyph glyph-name="afii10075" unicode="&#x439;" horiz-adv-x="596" 
d="M152 0h-99v520h114v-339l276 339h99v-520h-114v338zM132 741h105c1 -40 25 -68 72 -68c45 0 68 27 68 68h104c-2 -102 -81 -156 -172 -156c-98 0 -175 52 -177 156z" />
    <glyph glyph-name="afii10076" unicode="&#x43a;" horiz-adv-x="545" 
d="M53 0v520h114v-211l225 211h149l-253 -235l262 -285h-146l-199 214l-38 -37v-177h-114z" />
    <glyph glyph-name="afii10077" unicode="&#x43b;" horiz-adv-x="580" 
d="M413 0v414h-184v-81c0 -276 -90 -348 -219 -337l-9 106c55 -5 116 29 116 270v148h410v-520h-114z" />
    <glyph glyph-name="afii10078" unicode="&#x43c;" horiz-adv-x="667" 
d="M53 0v520h102l182 -236l182 236h94v-520h-114v323l-161 -209l-171 212v-326h-114z" />
    <glyph glyph-name="afii10079" unicode="&#x43d;" horiz-adv-x="585" 
d="M417 0v211h-250v-211h-114v520h114v-204h250v204h114v-520h-114z" />
    <glyph glyph-name="afii10080" unicode="&#x43e;" horiz-adv-x="615" 
d="M29 261c0 157 113 271 278 271c164 0 279 -114 279 -271c0 -156 -115 -270 -279 -270c-162 0 -278 114 -278 270zM147 261c0 -94 65 -164 160 -164s161 64 161 164c0 101 -71 165 -161 165c-91 0 -160 -63 -160 -165z" />
    <glyph glyph-name="afii10081" unicode="&#x43f;" horiz-adv-x="579" 
d="M411 0v414h-244v-414h-114v520h472v-520h-114z" />
    <glyph glyph-name="afii10082" unicode="&#x440;" horiz-adv-x="592" 
d="M53 -200v720h114v-47c33 41 92 59 144 59c156 0 252 -109 252 -263c0 -159 -104 -278 -260 -278c-58 0 -113 15 -136 43v-234h-114zM299 426c-66 0 -111 -40 -132 -85v-180c25 -42 72 -64 123 -64c93 0 155 66 155 163c0 105 -56 166 -146 166z" />
    <glyph glyph-name="afii10083" unicode="&#x441;" horiz-adv-x="538" 
d="M451 171l81 -52c-43 -84 -133 -128 -223 -128c-167 0 -280 106 -280 270c0 154 110 271 274 271c107 0 189 -49 223 -118l-85 -56c-35 47 -74 68 -133 68c-94 0 -161 -67 -161 -165c0 -94 68 -164 173 -164c59 0 102 30 131 74z" />
    <glyph glyph-name="afii10084" unicode="&#x442;" horiz-adv-x="496" 
d="M3 414v106h490v-106h-188v-414h-114v414h-188z" />
    <glyph glyph-name="afii10085" unicode="&#x443;" horiz-adv-x="548" 
d="M75 -194l45 97c7 -4 14 -6 23 -6c29 0 56 23 82 87l18 47l-256 489h132l179 -351l138 351h122l-204 -505c-70 -172 -123 -224 -207 -224c-28 0 -52 5 -72 15z" />
    <glyph glyph-name="afii10086" unicode="&#x444;" horiz-adv-x="734" 
d="M310 -200v190h-6c-177 0 -279 114 -279 269c0 142 101 270 278 270h7v201h114v-201h8c170 0 277 -116 277 -270c0 -155 -101 -269 -279 -269h-6v-190h-114zM143 259c0 -102 56 -163 161 -163h6v327h-7c-110 0 -160 -68 -160 -164zM430 423h-6v-327h6
c112 0 161 60 161 163c0 96 -50 164 -161 164z" />
    <glyph glyph-name="afii10087" unicode="&#x445;" horiz-adv-x="555" 
d="M548 520l-199 -251l209 -269h-141l-141 185l-144 -185h-135l208 267l-198 253h140l132 -167l132 167h137z" />
    <glyph glyph-name="afii10088" unicode="&#x446;" horiz-adv-x="598" 
d="M53 0v520h114v-414h241v414h114v-414h70v-225h-106v119h-433z" />
    <glyph glyph-name="afii10089" unicode="&#x447;" horiz-adv-x="546" 
d="M493 520v-520h-114v204c-33 -30 -85 -48 -140 -48c-136 0 -209 66 -209 207v157h114v-118c0 -103 36 -140 120 -140c47 0 92 26 115 57v201h114z" />
    <glyph glyph-name="afii10090" unicode="&#x448;" horiz-adv-x="748" 
d="M53 0v520h114v-414h150v414h114v-414h150v414h114v-520h-642z" />
    <glyph glyph-name="afii10091" unicode="&#x449;" horiz-adv-x="771" 
d="M53 0v520h114v-414h150v414h114v-414h150v414h114v-414h69v-225h-106v119h-605z" />
    <glyph glyph-name="afii10092" unicode="&#x44a;" horiz-adv-x="593" 
d="M3 414v106h241v-149h110c168 0 219 -87 219 -185c0 -96 -57 -186 -226 -186h-217v414h-127zM344 265h-100v-159h100c82 0 111 28 111 79s-31 80 -111 80z" />
    <glyph glyph-name="afii10093" unicode="&#x44b;" horiz-adv-x="696" 
d="M53 0v520h114v-151h90c168 0 220 -85 220 -183c0 -96 -59 -186 -228 -186h-196zM248 263h-81v-157h80c83 0 112 28 112 79s-31 78 -111 78zM529 0v520h114v-520h-114z" />
    <glyph glyph-name="afii10094" unicode="&#x44c;" horiz-adv-x="517" 
d="M53 0v520h114v-151h110c168 0 220 -85 220 -183c0 -96 -58 -186 -227 -186h-217zM267 263h-100v-157h99c83 0 113 28 113 79s-32 78 -112 78z" />
    <glyph glyph-name="afii10095" unicode="&#x44d;" horiz-adv-x="547" 
d="M155 216v99h243c-17 79 -75 111 -157 111c-52 0 -115 -20 -153 -76l-83 61c58 80 142 121 245 121c164 0 269 -105 269 -271c0 -153 -100 -270 -274 -270c-96 0 -195 32 -240 115l83 60c36 -50 89 -69 147 -69c93 0 152 47 165 119h-245z" />
    <glyph glyph-name="afii10096" unicode="&#x44e;" horiz-adv-x="815" 
d="M53 0v520h114v-202h90c24 127 121 214 260 214c159 0 269 -114 269 -271c0 -156 -111 -270 -269 -270c-144 0 -242 91 -262 224h-88v-215h-114zM370 261c0 -100 63 -164 148 -164c88 0 150 64 150 164s-61 165 -150 165c-82 0 -148 -65 -148 -165z" />
    <glyph glyph-name="afii10097" unicode="&#x44f;" horiz-adv-x="539" 
d="M272 520h214v-520h-114v171h-97l-132 -171h-133l150 190c-74 17 -119 78 -119 158c0 92 61 172 231 172zM159 344c0 -39 35 -67 100 -67h113v137h-110c-74 0 -103 -28 -103 -70z" />
    <glyph glyph-name="afii10071" unicode="&#x451;" horiz-adv-x="569" 
d="M449 166l70 -69c-53 -71 -126 -106 -211 -106c-167 0 -279 106 -279 270c0 152 93 271 267 271c140 0 244 -94 244 -238c0 -17 -2 -42 -6 -73h-386c9 -82 76 -124 162 -124c56 0 108 27 139 69zM291 429c-77 0 -127 -42 -142 -109h273c-9 72 -58 109 -131 109zM122 672
c0 34 30 58 63 58c31 0 64 -24 64 -58c0 -38 -33 -61 -64 -61c-33 0 -63 23 -63 61zM339 672c0 34 31 58 66 58c32 0 64 -24 64 -58c0 -38 -30 -61 -64 -61c-35 0 -66 23 -66 61z" />
    <glyph glyph-name="afii10099" unicode="&#x452;" horiz-adv-x="649" 
d="M0 520v103h128v107h114v-107h210v-103h-210v-156c39 38 91 57 150 57c139 0 224 -78 224 -243c0 -159 -69 -298 -227 -385l-66 79c134 80 176 172 176 292c0 85 -28 151 -128 151c-51 0 -107 -38 -129 -85v-230h-114v520h-128z" />
    <glyph glyph-name="afii10100" unicode="&#x453;" horiz-adv-x="449" 
d="M53 0v520h392v-106h-278v-414h-114zM398 755l-127 -157l-77 54l118 167z" />
    <glyph glyph-name="afii10101" unicode="&#x454;" horiz-adv-x="541" 
d="M371 315v-99h-224c16 -84 81 -119 163 -119c61 0 102 23 132 65l85 -48c-45 -86 -135 -123 -226 -123c-160 0 -272 112 -272 270c0 166 113 271 280 271c86 0 170 -31 217 -106l-86 -59c-34 44 -77 59 -132 59c-77 0 -140 -35 -159 -111h222z" />
    <glyph glyph-name="afii10102" unicode="&#x455;" horiz-adv-x="496" 
d="M356 148c0 78 -315 51 -315 229c0 96 80 155 214 155c92 0 176 -43 210 -92l-78 -74c-31 36 -86 60 -151 60c-42 0 -77 -11 -77 -47c0 -72 315 -47 315 -230c0 -109 -99 -158 -214 -158c-116 0 -204 54 -241 125l90 62c29 -46 94 -81 162 -81c44 0 85 14 85 51z" />
    <glyph glyph-name="afii10103" unicode="&#x456;" horiz-adv-x="239" 
d="M63 0v520h114v-520h-114zM53 669c0 34 29 60 67 60c37 0 66 -26 66 -60c0 -36 -29 -62 -66 -62c-40 0 -67 26 -67 62z" />
    <glyph glyph-name="afii10104" unicode="&#x457;" horiz-adv-x="247" 
d="M66 0v520h114v-520h-114zM-17 669c0 33 26 61 62 61c27 0 58 -26 58 -61c0 -37 -31 -63 -58 -63c-36 0 -62 27 -62 63zM144 669c0 35 29 61 61 61c31 0 60 -26 60 -61c0 -37 -29 -63 -60 -63c-32 0 -61 27 -61 63z" />
    <glyph glyph-name="afii10105" unicode="&#x458;" horiz-adv-x="239" 
d="M178 520v-521c0 -130 -55 -208 -172 -208c-74 0 -135 28 -166 100l97 43c12 -19 26 -37 60 -37c44 0 67 34 67 105v518h114zM54 670c0 34 27 60 67 60c37 0 65 -26 65 -60c0 -37 -26 -63 -65 -63c-40 0 -67 26 -67 63z" />
    <glyph glyph-name="afii10106" unicode="&#x459;" horiz-adv-x="831" 
d="M411 414h-182v-81c0 -276 -90 -348 -219 -337l-9 106c55 -5 116 29 116 270v148h408v-157h63c168 0 219 -82 219 -181c0 -95 -57 -182 -225 -182h-171v414zM580 256h-55v-150h62c80 0 102 29 102 75c0 52 -30 75 -109 75z" />
    <glyph glyph-name="afii10107" unicode="&#x45a;" horiz-adv-x="835" 
d="M53 0v520h114v-184h249v184h114v-184h62c169 0 220 -68 220 -166s-58 -170 -227 -170h-169v230h-249v-230h-114zM584 231h-54v-125h53c83 0 111 20 111 63c0 45 -30 62 -110 62z" />
    <glyph glyph-name="afii10108" unicode="&#x45b;" horiz-adv-x="647" 
d="M0 520v103h128v107h114v-107h210v-103h-210v-163c39 41 91 58 154 58c135 0 214 -72 214 -238v-177h-114v169c0 88 -30 140 -125 140c-51 0 -106 -30 -129 -84v-225h-114v520h-128z" />
    <glyph glyph-name="afii10109" unicode="&#x45c;" horiz-adv-x="545" 
d="M53 0v520h114v-211l225 211h149l-253 -235l262 -285h-146l-199 214l-38 -37v-177h-114zM409 755l-127 -157l-77 54l118 167z" />
    <glyph glyph-name="afii10110" unicode="&#x45e;" horiz-adv-x="548" 
d="M75 -193l45 97c7 -4 14 -6 23 -6c29 0 56 23 82 87l18 47l-256 489h132l179 -351l138 351h122l-204 -505c-70 -172 -123 -224 -207 -224c-28 0 -52 5 -72 15zM108 741h105c1 -40 25 -68 72 -68c45 0 68 27 68 68h104c-2 -102 -81 -156 -172 -156c-98 0 -175 52 -177 156z
" />
    <glyph glyph-name="afii10193" unicode="&#x45f;" horiz-adv-x="597" 
d="M62 0v520h114v-414h247v414h114v-520h-185v-138h-106v138h-184z" />
    <glyph glyph-name="afii10146" unicode="&#x462;" horiz-adv-x="717" 
d="M0 502v113h126v85h121v-85h227v-113h-227v-75h159c193 0 288 -66 288 -210c0 -152 -110 -217 -296 -217h-272v502h-126zM404 313h-157v-199h154c109 0 167 24 167 103c0 74 -57 96 -164 96z" />
    <glyph glyph-name="afii10194" unicode="&#x463;" horiz-adv-x="582" 
d="M402 419h-170v-76h110c168 0 220 -80 220 -171s-58 -172 -227 -172h-217v419h-115v101h115v210h114v-210h170v-101zM332 236h-100v-130h100c83 0 112 21 112 65c0 47 -31 65 -112 65z" />
    <glyph glyph-name="afii10147" unicode="&#x472;" horiz-adv-x="782" 
d="M33 350c0 202 157 358 358 358c199 0 358 -150 358 -358c0 -206 -159 -358 -358 -358c-198 0 -358 150 -358 358zM391 108c113 0 204 73 227 187h-454c24 -114 119 -187 227 -187zM391 592c-107 0 -201 -71 -226 -183h451c-25 112 -121 183 -225 183z" />
    <glyph glyph-name="afii10195" unicode="&#x473;" horiz-adv-x="615" 
d="M29 261c0 157 113 271 278 271c164 0 279 -114 279 -271c0 -156 -115 -270 -279 -270c-162 0 -278 114 -278 270zM307 97c78 0 137 44 155 116h-309c18 -69 76 -116 154 -116zM307 426c-74 0 -134 -42 -153 -112h307c-20 70 -81 112 -154 112z" />
    <glyph glyph-name="afii10148" unicode="&#x474;" horiz-adv-x="769" 
d="M645 514l-233 -514h-86l-333 700h131l246 -525l172 392c43 98 104 141 168 141c30 0 58 -9 86 -29l-47 -98c-8 7 -18 10 -30 10c-26 -1 -50 -23 -74 -77z" />
    <glyph glyph-name="afii10196" unicode="&#x475;" horiz-adv-x="568" 
d="M454 331l-147 -331h-84l-242 520h129l157 -347l103 237c35 82 81 117 140 116c36 -1 66 -12 91 -37l-50 -86c-8 8 -17 11 -28 11c-20 0 -43 -24 -69 -83z" />
    <glyph glyph-name="afii10050" unicode="&#x490;" horiz-adv-x="582" 
d="M70 0v700h396v121h114v-234h-389v-587h-121z" />
    <glyph glyph-name="afii10098" unicode="&#x491;" horiz-adv-x="445" 
d="M53 0v520h286v100h106v-206h-278v-414h-114z" />
    <glyph glyph-name="uni1E9E" unicode="&#x1e9e;" horiz-adv-x="656" 
d="M345 708c142 0 217 -74 242 -152l-136 -160c128 -16 169 -100 168 -189c0 -131 -92 -217 -238 -217c-56 0 -94 13 -122 27l37 107c24 -12 49 -20 81 -20c65 0 120 33 120 101c0 66 -48 98 -136 98h-44v91l133 153c-23 25 -55 48 -113 48c-89 0 -149 -44 -149 -166v-429
h-121v448c0 196 123 260 278 260z" />
    <glyph glyph-name="uni2010" unicode="&#x2010;" horiz-adv-x="416" 
d="M69 227v101h278v-101h-278z" />
    <glyph glyph-name="uni2011" unicode="&#x2011;" horiz-adv-x="416" 
d="M69 227v101h278v-101h-278z" />
    <glyph glyph-name="figuredash" unicode="&#x2012;" horiz-adv-x="607" 
d="M85 311v99h437v-99h-437z" />
    <glyph glyph-name="endash" unicode="&#x2013;" horiz-adv-x="607" 
d="M85 227v99h437v-99h-437z" />
    <glyph glyph-name="emdash" unicode="&#x2014;" horiz-adv-x="796" 
d="M85 227v99h626v-99h-626z" />
    <glyph glyph-name="quoteleft" unicode="&#x2018;" horiz-adv-x="247" 
d="M189 530l-96 -59c-23 26 -47 62 -47 99c0 82 58 134 111 165l49 -44c-30 -25 -46 -58 -46 -92c0 -29 15 -52 29 -69z" />
    <glyph glyph-name="quoteright" unicode="&#x2019;" horiz-adv-x="247" 
d="M58 677l95 60c24 -27 47 -63 47 -100c0 -82 -57 -133 -110 -165l-49 45c30 25 45 58 45 92c0 28 -14 51 -28 68z" />
    <glyph glyph-name="quotesinglbase" unicode="&#x201a;" horiz-adv-x="247" 
d="M58 71l95 60c24 -27 47 -63 47 -100c0 -82 -57 -133 -110 -165l-49 45c30 24 45 58 45 92c0 28 -14 51 -28 68z" />
    <glyph glyph-name="quotedblleft" unicode="&#x201c;" horiz-adv-x="424" 
d="M189 530l-96 -59c-23 26 -47 62 -47 99c0 82 58 134 111 165l49 -44c-30 -25 -46 -58 -46 -92c0 -29 15 -52 29 -69zM365 530l-95 -59c-23 26 -47 62 -47 99c0 82 58 134 111 165l49 -44c-30 -25 -46 -58 -46 -92c0 -29 15 -52 28 -69z" />
    <glyph glyph-name="quotedblright" unicode="&#x201d;" horiz-adv-x="424" 
d="M235 677l95 60c24 -27 47 -63 47 -100c0 -82 -57 -133 -110 -165l-50 45c30 25 46 58 46 92c0 28 -15 51 -28 68zM58 677l95 60c24 -27 47 -63 47 -100c0 -82 -57 -133 -110 -165l-49 45c30 25 45 58 45 92c0 28 -14 51 -28 68z" />
    <glyph glyph-name="quotedblbase" unicode="&#x201e;" horiz-adv-x="424" 
d="M235 71l95 60c24 -27 47 -63 47 -100c0 -82 -57 -133 -110 -165l-50 45c30 24 46 58 46 92c0 28 -15 51 -28 68zM58 71l95 60c24 -27 47 -63 47 -100c0 -82 -57 -133 -110 -165l-49 45c30 24 45 58 45 92c0 28 -14 51 -28 68z" />
    <glyph glyph-name="dagger" unicode="&#x2020;" horiz-adv-x="458" 
d="M33 386v106h139v208h114v-208h139v-106h-139v-478h-114v478h-139z" />
    <glyph glyph-name="daggerdbl" unicode="&#x2021;" horiz-adv-x="458" 
d="M33 386v106h139v208h114v-208h139v-106h-139v-137h139v-106h-139v-235h-114v235h-139v106h139v137h-139z" />
    <glyph glyph-name="bullet" unicode="&#x2022;" horiz-adv-x="302" 
d="M51 361c0 45 40 80 88 80c46 0 86 -35 86 -80c0 -44 -40 -81 -86 -81c-48 0 -88 37 -88 81z" />
    <glyph glyph-name="ellipsis" unicode="&#x2026;" horiz-adv-x="795" 
d="M604 62c0 30 28 62 70 62c38 0 67 -32 67 -62c0 -33 -29 -64 -67 -64c-42 0 -70 31 -70 64zM329 62c0 30 28 62 70 62c39 0 67 -32 67 -62c0 -33 -28 -64 -67 -64c-42 0 -70 31 -70 64zM54 62c0 30 28 62 70 62c38 0 68 -32 68 -62c0 -33 -30 -64 -68 -64
c-42 0 -70 31 -70 64z" />
    <glyph glyph-name="perthousand" unicode="&#x2030;" horiz-adv-x="1332" 
d="M37 525c0 105 83 178 192 178s191 -73 191 -178c0 -104 -82 -177 -191 -177s-192 73 -192 177zM150 525c0 -50 38 -82 79 -82c43 0 78 32 78 82c0 49 -36 81 -78 81s-79 -32 -79 -81zM157 34l515 689l82 -58l-515 -688zM487 174c0 105 83 177 192 177
c108 0 191 -72 191 -177c0 -104 -83 -178 -191 -178c-109 0 -192 74 -192 178zM600 174c0 -49 38 -81 79 -81c42 0 78 32 78 81c0 50 -37 82 -78 82c-42 0 -79 -32 -79 -82zM912 174c0 105 83 177 192 177s191 -72 191 -177c0 -104 -82 -178 -191 -178s-192 74 -192 178z
M1025 174c0 -49 38 -81 79 -81c43 0 78 32 78 81c0 50 -36 82 -78 82s-79 -32 -79 -82z" />
    <glyph glyph-name="guilsinglleft" unicode="&#x2039;" horiz-adv-x="342" 
d="M222 38l-185 218v6l185 212l78 -69l-127 -147l127 -148z" />
    <glyph glyph-name="guilsinglright" unicode="&#x203a;" horiz-adv-x="342" 
d="M301 256l-185 -218l-78 72l127 148l-127 147l77 69l186 -212v-6z" />
    <glyph glyph-name="fraction" unicode="&#x2044;" horiz-adv-x="332" 
d="M-150 48l549 672l83 -66l-547 -676z" />
    <glyph glyph-name="uni2070" unicode="&#x2070;" horiz-adv-x="483" 
d="M43 510c0 124 75 214 198 214s199 -90 199 -214s-74 -214 -197 -214s-200 90 -200 214zM149 510c0 -73 40 -117 94 -117s91 39 91 117c0 75 -32 117 -93 117c-58 0 -92 -41 -92 -117z" />
    <glyph glyph-name="uni2074" unicode="&#x2074;" horiz-adv-x="453" 
d="M258 300v76h-246v73l258 271h87v-253h76v-91h-76v-76h-99zM133 467h125v126z" />
    <glyph glyph-name="uni2075" unicode="&#x2075;" horiz-adv-x="416" 
d="M61 471l21 249h278v-94h-195l-9 -57c13 3 32 5 57 5c100 0 161 -56 161 -137c0 -87 -77 -142 -174 -142c-75 0 -136 25 -173 81l74 60c18 -27 55 -47 94 -47c49 0 74 20 74 48c0 35 -34 53 -90 53c-45 0 -83 -9 -118 -19z" />
    <glyph glyph-name="uni2076" unicode="&#x2076;" horiz-adv-x="469" 
d="M43 499c0 151 93 226 214 226c77 0 122 -20 151 -41l-42 -75c-29 16 -62 25 -111 25c-67 0 -109 -39 -109 -95c27 27 64 46 120 46c109 0 169 -58 169 -140c0 -89 -83 -150 -185 -150c-119 0 -207 72 -207 204zM159 457c3 -36 35 -68 90 -68c49 0 81 20 81 56
s-37 52 -84 52c-49 0 -75 -18 -87 -40z" />
    <glyph glyph-name="uni2077" unicode="&#x2077;" horiz-adv-x="386" 
d="M20 622v98h346v-75l-192 -345h-117l185 322h-222z" />
    <glyph glyph-name="uni2078" unicode="&#x2078;" horiz-adv-x="484" 
d="M232 556h20c34 0 61 13 61 41s-25 37 -72 37c-45 0 -70 -13 -70 -37c0 -28 25 -41 61 -41zM251 475h-17c-48 0 -78 -17 -78 -45s31 -44 86 -44c54 0 86 12 86 43s-30 46 -77 46zM242 295c-109 0 -192 46 -192 122c0 45 25 81 68 101c-40 20 -52 53 -52 89
c0 71 73 118 176 118s176 -47 176 -118c0 -37 -16 -66 -53 -87c51 -18 69 -54 69 -100c0 -80 -84 -125 -192 -125z" />
    <glyph glyph-name="uni2079" unicode="&#x2079;" horiz-adv-x="469" 
d="M425 521c0 -151 -93 -226 -213 -226c-78 0 -122 20 -151 41l42 75c29 -16 62 -25 110 -25c68 0 110 39 110 95c-27 -27 -65 -46 -120 -46c-109 0 -170 58 -170 140c0 89 84 150 186 150c119 0 206 -72 206 -204zM310 563c-3 36 -35 68 -91 68c-48 0 -80 -20 -80 -56
s37 -52 83 -52c50 0 76 18 88 40z" />
    <glyph glyph-name="uni207A" unicode="&#x207a;" horiz-adv-x="437" 
d="M53 468v94h114v113h101v-113h115v-94h-115v-113h-101v113h-114z" />
    <glyph glyph-name="uni207B" unicode="&#x207b;" horiz-adv-x="421" 
d="M53 469v94h315v-94h-315z" />
    <glyph glyph-name="uni207C" unicode="&#x207c;" horiz-adv-x="409" 
d="M53 541v88h303v-88h-303zM53 402v88h303v-88h-303z" />
    <glyph glyph-name="uni207D" unicode="&#x207d;" horiz-adv-x="276" 
d="M263 251l-65 -59c-116 86 -155 194 -155 279c0 84 39 189 156 279l59 -62c-75 -58 -109 -140 -109 -217c0 -84 50 -165 114 -220z" />
    <glyph glyph-name="uni207E" unicode="&#x207e;" horiz-adv-x="275" 
d="M77 193l-61 62c84 66 110 139 110 216s-26 146 -111 218l62 61c116 -90 155 -182 155 -279c0 -85 -39 -193 -155 -278z" />
    <glyph glyph-name="uni2080" unicode="&#x2080;" horiz-adv-x="483" 
d="M43 110c0 124 75 214 198 214s199 -90 199 -214s-74 -214 -197 -214s-200 90 -200 214zM149 110c0 -73 40 -117 94 -117s91 39 91 117c0 75 -32 117 -93 117c-58 0 -92 -41 -92 -117z" />
    <glyph glyph-name="uni2081" unicode="&#x2081;" horiz-adv-x="315" 
d="M10 253l162 68h77v-421h-105v305l-97 -40z" />
    <glyph glyph-name="uni2082" unicode="&#x2082;" horiz-adv-x="421" 
d="M110 168l-75 46c30 71 98 110 182 110c96 0 155 -50 155 -123c0 -81 -56 -137 -113 -174l-52 -33h181v-94h-345v81l88 54c73 45 136 94 136 142c0 35 -20 53 -59 53c-49 0 -80 -27 -98 -62z" />
    <glyph glyph-name="uni2083" unicode="&#x2083;" horiz-adv-x="429" 
d="M106 179l-70 54c33 54 94 92 180 92c99 0 161 -41 161 -105c0 -48 -22 -76 -63 -96c33 -10 73 -35 73 -99c0 -80 -76 -130 -177 -130c-75 0 -147 30 -183 104l78 48c14 -35 54 -58 105 -58c47 0 71 13 71 41c0 32 -31 41 -73 41h-47v81h39c46 0 71 15 71 43
c0 23 -19 36 -57 36c-54 0 -82 -17 -108 -52z" />
    <glyph glyph-name="uni2084" unicode="&#x2084;" horiz-adv-x="453" 
d="M258 -100v76h-246v73l258 271h87v-253h76v-91h-76v-76h-99zM133 67h125v126z" />
    <glyph glyph-name="uni2085" unicode="&#x2085;" horiz-adv-x="416" 
d="M61 71l21 249h278v-94h-195l-9 -57c13 3 32 5 57 5c100 0 161 -56 161 -137c0 -87 -77 -142 -174 -142c-75 0 -136 25 -173 81l74 60c18 -27 55 -47 94 -47c49 0 74 20 74 48c0 35 -34 53 -90 53c-45 0 -83 -9 -118 -19z" />
    <glyph glyph-name="uni2086" unicode="&#x2086;" horiz-adv-x="469" 
d="M43 99c0 151 93 226 214 226c77 0 122 -20 151 -41l-42 -75c-29 16 -62 25 -111 25c-67 0 -109 -39 -109 -95c27 27 64 46 120 46c109 0 169 -58 169 -140c0 -89 -83 -150 -185 -150c-119 0 -207 72 -207 204zM159 57c3 -36 35 -68 90 -68c49 0 81 20 81 56
s-37 52 -84 52c-49 0 -75 -18 -87 -40z" />
    <glyph glyph-name="uni2087" unicode="&#x2087;" horiz-adv-x="386" 
d="M20 222v98h346v-75l-192 -345h-117l185 322h-222z" />
    <glyph glyph-name="uni2088" unicode="&#x2088;" horiz-adv-x="484" 
d="M232 156h20c34 0 61 13 61 41s-25 37 -72 37c-45 0 -70 -13 -70 -37c0 -28 25 -41 61 -41zM251 75h-17c-48 0 -78 -17 -78 -45s31 -44 86 -44c54 0 86 12 86 43s-30 46 -77 46zM242 -105c-109 0 -192 46 -192 122c0 45 25 81 68 101c-40 20 -52 53 -52 89
c0 71 73 118 176 118s176 -47 176 -118c0 -37 -16 -66 -53 -87c51 -18 69 -54 69 -100c0 -80 -84 -125 -192 -125z" />
    <glyph glyph-name="uni2089" unicode="&#x2089;" horiz-adv-x="469" 
d="M425 121c0 -151 -93 -226 -213 -226c-78 0 -122 20 -151 41l42 75c29 -16 62 -25 110 -25c68 0 110 39 110 95c-27 -27 -65 -46 -120 -46c-109 0 -170 58 -170 140c0 89 84 150 186 150c119 0 206 -72 206 -204zM310 163c-3 36 -35 68 -91 68c-48 0 -80 -20 -80 -56
s37 -52 83 -52c50 0 76 18 88 40z" />
    <glyph glyph-name="uni208A" unicode="&#x208a;" horiz-adv-x="437" 
d="M53 68v94h114v113h101v-113h115v-94h-115v-113h-101v113h-114z" />
    <glyph glyph-name="uni208B" unicode="&#x208b;" horiz-adv-x="421" 
d="M53 69v94h315v-94h-315z" />
    <glyph glyph-name="uni208C" unicode="&#x208c;" horiz-adv-x="409" 
d="M53 141v88h303v-88h-303zM53 2v88h303v-88h-303z" />
    <glyph glyph-name="uni208D" unicode="&#x208d;" horiz-adv-x="276" 
d="M263 -149l-65 -59c-116 86 -155 194 -155 279c0 84 39 189 156 279l59 -62c-75 -58 -109 -140 -109 -217c0 -84 50 -165 114 -220z" />
    <glyph glyph-name="uni208E" unicode="&#x208e;" horiz-adv-x="275" 
d="M77 -207l-61 62c84 66 110 139 110 216s-26 146 -111 218l62 61c116 -90 155 -182 155 -279c0 -85 -39 -193 -155 -278z" />
    <glyph glyph-name="Euro" unicode="&#x20ac;" horiz-adv-x="660" 
d="M20 386l39 98h68c46 131 163 224 323 224c74 0 135 -16 178 -46l-43 -91c-35 21 -79 33 -135 33c-87 0 -157 -45 -193 -120h307l-37 -98h-299c-1 -13 -2 -34 -2 -49c0 -6 0 -10 1 -17h281l-32 -98h-226c30 -78 113 -127 211 -127c35 0 90 11 122 32l30 -93
c-28 -23 -96 -42 -155 -42c-170 0 -289 83 -336 230h-100l37 98c47 0 47 1 47 1c0 3 -1 11 -1 18c0 22 1 35 2 47h-87z" />
    <glyph glyph-name="uni20B4" unicode="&#x20b4;" horiz-adv-x="610" 
d="M51 397v95h326c9 12 16 25 16 46c0 34 -29 58 -89 58c-67 0 -115 -16 -151 -44l-50 93c48 40 116 64 209 64c108 0 204 -62 204 -148c0 -30 -8 -53 -20 -69h64v-95h-128c-39 -33 -92 -55 -124 -74h252v-95h-329c-11 -15 -23 -30 -23 -53c0 -49 49 -71 114 -71
c76 0 135 30 166 62l54 -80c-40 -62 -146 -95 -228 -95c-127 0 -226 57 -226 170c0 33 9 49 19 67h-56v95h120c65 38 104 53 138 74h-258z" />
    <glyph glyph-name="uni20BD" unicode="&#x20bd;" horiz-adv-x="615" 
d="M27 295v106h103v299c17 0 81 0 111 1c29 0 60 1 78 1c193 0 264 -88 264 -200c0 -115 -79 -207 -264 -207h-72v-65h168v-106h-168v-124h-117v124h-103v106h103v65h-103zM325 595h-78v-194h70c96 0 145 31 145 98s-45 96 -137 96z" />
    <glyph glyph-name="afii61352" unicode="&#x2116;" horiz-adv-x="1142" 
d="M655 0h-93l-369 483v-483h-116v700h93l369 -486v486h116v-700zM708 484c0 105 75 177 184 177c110 0 185 -72 185 -177c0 -104 -75 -178 -185 -178c-109 0 -184 74 -184 178zM814 484c0 -50 36 -81 78 -81c47 0 80 31 80 81c0 49 -37 80 -80 80c-44 0 -78 -31 -78 -80z
M732 154v102h322v-102h-322z" />
    <glyph glyph-name="trademark" unicode="&#x2122;" horiz-adv-x="831" 
d="M369 353v347h92l115 -132l110 132h92v-347h-114v170l-89 -108h-3l-89 108v-170h-114zM11 600v100h330v-100h-95v-247h-114v247h-121z" />
    <glyph glyph-name="partialdiff" unicode="&#x2202;" horiz-adv-x="592" 
d="M25 234c0 176 110 286 261 286c69 0 129 -31 157 -81c-5 120 -110 178 -245 167l17 105c214 0 339 -96 339 -323c0 -220 -97 -399 -285 -399c-148 0 -244 107 -244 245zM146 237c0 -99 65 -141 126 -141c85 0 144 84 153 193c-17 74 -70 125 -132 125
c-79 0 -147 -70 -147 -177z" />
    <glyph glyph-name="product" unicode="&#x220f;" horiz-adv-x="882" 
d="M658 -200v784h-434v-784h-124v900h682v-900h-124z" />
    <glyph glyph-name="summation" unicode="&#x2211;" horiz-adv-x="640" 
d="M323 250l-283 364v86h560v-116h-387l253 -334l-261 -334h395v-116h-560v86z" />
    <glyph glyph-name="minus" unicode="&#x2212;" horiz-adv-x="566" 
d="M44 309v101h478v-101h-478z" />
    <glyph glyph-name="uni2215" unicode="&#x2215;" horiz-adv-x="332" 
d="M-150 48l549 672l83 -66l-547 -676z" />
    <glyph glyph-name="radical" unicode="&#x221a;" horiz-adv-x="605" 
d="M1 367v104h178l134 -277l108 506h294v-97h-207l-140 -608h-75l-191 372h-101z" />
    <glyph glyph-name="infinity" unicode="&#x221e;" horiz-adv-x="701" 
d="M510 179c-71 0 -119 36 -159 79c-34 -39 -73 -70 -135 -76c-93 -11 -185 57 -185 160c0 85 66 163 170 163c64 0 109 -36 148 -78c34 38 76 70 141 75c100 12 180 -54 180 -164c0 -75 -52 -159 -160 -159zM502 406c-37 0 -62 -26 -87 -61c29 -37 58 -67 92 -67
c35 0 53 33 53 61c0 37 -19 67 -58 67zM202 278c34 0 59 29 83 62c-28 37 -54 66 -82 66c-38 0 -62 -29 -62 -64c0 -42 34 -64 61 -64z" />
    <glyph glyph-name="integral" unicode="&#x222b;" horiz-adv-x="343" 
d="M88 537c0 149 89 201 181 201c56 0 107 -23 134 -61l-64 -72c-12 15 -31 27 -64 27c-46 0 -74 -28 -74 -98v-541c0 -149 -89 -201 -181 -201c-56 0 -107 23 -134 61l64 73c13 -16 31 -28 64 -28c46 0 74 29 74 99v540z" />
    <glyph glyph-name="approxequal" unicode="&#x2248;" horiz-adv-x="576" 
d="M85 375l-46 76c44 48 97 70 137 70c80 0 137 -58 213 -58c36 0 71 17 104 48l44 -73c-47 -45 -98 -67 -142 -67c-87 0 -143 55 -208 55c-36 0 -71 -23 -102 -51zM85 191l-46 76c44 48 97 70 137 70c80 0 140 -59 213 -59c36 0 71 18 104 49l44 -73
c-47 -46 -98 -68 -142 -68c-87 0 -143 56 -208 56c-36 0 -71 -23 -102 -51z" />
    <glyph glyph-name="notequal" unicode="&#x2260;" horiz-adv-x="566" 
d="M51 402v99h224l81 216l101 -33l-68 -183h127v-99h-165l-32 -86h197v-99h-232l-89 -237l-100 38l76 199h-120v99h154l32 86h-186z" />
    <glyph glyph-name="lessequal" unicode="&#x2264;" horiz-adv-x="498" 
d="M42 245v116l400 -249v-119zM442 184l-400 253v47l400 249v-123l-243 -150l243 -153v-123z" />
    <glyph glyph-name="greaterequal" unicode="&#x2265;" horiz-adv-x="498" 
d="M442 361v-116l-400 -252v119zM442 437l-400 -253v123l243 153l-243 150v123l400 -249v-47z" />
    <glyph glyph-name="lozenge" unicode="&#x25ca;" horiz-adv-x="485" 
d="M194 -3l-167 255l168 268h96l167 -257l-168 -266h-96zM145 253l97 -150l98 160l-98 146z" />
    <glyph glyph-name="uniF350" unicode="&#xf350;" horiz-adv-x="605" 
d="M-2 0l261 560h88l261 -560h-123l-53 109h-261l-53 -109h-120zM301 387l-89 -179h177z" />
    <glyph glyph-name="uniF351" unicode="&#xf351;" horiz-adv-x="565" 
d="M499 560v-109h-324v-101h156c141 0 210 -64 210 -171c0 -124 -89 -179 -245 -179h-238v560h441zM307 241h-132v-132h127c79 0 117 20 117 69c0 44 -32 63 -112 63z" />
    <glyph glyph-name="uniF352" unicode="&#xf352;" horiz-adv-x="575" 
d="M58 0v560h259c157 0 206 -59 206 -142c0 -56 -26 -95 -64 -122c52 -20 84 -60 84 -130c0 -118 -96 -166 -232 -166h-253zM307 233h-132v-124h125c88 0 122 19 122 63c0 42 -32 61 -115 61zM299 451h-124v-112h135c59 0 92 20 92 52c0 40 -23 60 -103 60z" />
    <glyph glyph-name="uniF353" unicode="&#xf353;" horiz-adv-x="497" 
d="M58 0v560h439v-109h-322v-451h-117z" />
    <glyph glyph-name="uniF354" unicode="&#xf354;" horiz-adv-x="634" 
d="M0 -105v214h64c40 76 63 192 63 380v71h428v-451h71v-214h-114v105h-399v-105h-113zM240 451v-38c0 -133 -21 -245 -53 -304h251v342h-198z" />
    <glyph glyph-name="uniF355" unicode="&#xf355;" horiz-adv-x="550" 
d="M58 0v560h448v-109h-331v-114h309v-106h-309v-122h339v-109h-456z" />
    <glyph glyph-name="uniF356" unicode="&#xf356;" horiz-adv-x="814" 
d="M235 305l-236 255h147l202 -217v217h117v-218l206 218h144l-239 -254l240 -306h-140l-188 240l-23 -20v-220h-117v219l-22 23l-189 -242h-138z" />
    <glyph glyph-name="uniF357" unicode="&#xf357;" horiz-adv-x="554" 
d="M284 -8c-130 0 -221 35 -281 123l92 63c43 -52 100 -77 186 -77c92 0 127 35 127 71c0 39 -40 59 -132 59h-96v109h91c72 0 117 23 117 60c0 39 -44 59 -118 59c-61 0 -120 -22 -157 -64l-91 62c51 67 132 111 260 111c123 0 224 -59 224 -161c0 -47 -24 -88 -70 -113
c62 -22 90 -68 90 -121c0 -114 -95 -181 -242 -181z" />
    <glyph glyph-name="uniF358" unicode="&#xf358;" horiz-adv-x="638" 
d="M154 0h-96v560h117v-351l307 351h98v-560h-117v352z" />
    <glyph glyph-name="uniF359" unicode="&#xf359;" horiz-adv-x="638" 
d="M154 0h-96v560h117v-351l307 351h98v-560h-117v352zM145 761h105c1 -40 25 -68 72 -68c45 0 68 27 68 68h104c-2 -102 -81 -156 -172 -156c-98 0 -175 52 -177 156z" />
    <glyph glyph-name="uniF35A" unicode="&#xf35a;" horiz-adv-x="588" 
d="M58 0v560h117v-225l249 225h153l-265 -249l282 -311h-154l-217 233l-48 -43v-190h-117z" />
    <glyph glyph-name="uniF35B" unicode="&#xf35b;" horiz-adv-x="614" 
d="M439 0v451h-193v-65c0 -318 -109 -389 -212 -389c-11 0 -23 1 -34 2v113c62 -8 129 27 129 319v129h427v-560h-117z" />
    <glyph glyph-name="uniF35C" unicode="&#xf35c;" horiz-adv-x="720" 
d="M58 0v560h101l206 -242l198 242h100v-560h-117v363l-168 -207h-30l-173 208v-364h-117z" />
    <glyph glyph-name="uniF35D" unicode="&#xf35d;" horiz-adv-x="638" 
d="M463 0v228h-288v-228h-117v560h117v-222h288v222h117v-560h-117z" />
    <glyph glyph-name="uniF35E" unicode="&#xf35e;" horiz-adv-x="665" 
d="M27 280c0 161 134 286 306 286c169 0 305 -120 305 -286c0 -165 -136 -286 -305 -286s-306 120 -306 286zM149 280c0 -107 86 -173 184 -173c101 0 183 66 183 173c0 108 -88 173 -183 173c-98 0 -184 -65 -184 -173z" />
    <glyph glyph-name="uniF35F" unicode="&#xf35f;" horiz-adv-x="636" 
d="M461 0v451h-286v-451h-117v560h520v-560h-117z" />
    <glyph glyph-name="uniF360" unicode="&#xf360;" horiz-adv-x="581" 
d="M175 0h-117v560h246c201 0 250 -99 250 -190c0 -94 -64 -190 -250 -190h-129v-180zM308 451h-133v-162h127c91 0 130 31 130 82c0 46 -32 80 -124 80z" />
    <glyph glyph-name="uniF361" unicode="&#xf361;" horiz-adv-x="590" 
d="M511 179l68 -75c-51 -72 -143 -110 -246 -110c-187 0 -306 113 -306 286c0 160 122 286 306 286c108 0 196 -40 237 -101l-78 -73c-38 42 -95 61 -152 61c-115 0 -191 -65 -191 -173c0 -105 81 -173 193 -173c70 0 128 24 169 72z" />
    <glyph glyph-name="uniF362" unicode="&#xf362;" horiz-adv-x="515" 
d="M4 451v109h507v-109h-195v-451h-117v451h-195z" />
    <glyph glyph-name="uniF363" unicode="&#xf363;" horiz-adv-x="609" 
d="M168 13l44 102c4 -3 13 -5 18 -5c15 0 32 8 47 33l3 5l-280 412h144l196 -292l147 292h123l-218 -429c-43 -84 -86 -131 -159 -131c-24 0 -46 3 -65 13z" />
    <glyph glyph-name="uniF364" unicode="&#xf364;" horiz-adv-x="757" 
d="M319 -12v65h-2c-177 0 -295 93 -295 235c0 151 128 233 297 235v49h117v-49c159 0 299 -77 299 -235c0 -141 -119 -235 -295 -235h-4v-65h-117zM437 413h-1v-250h4c103 0 174 40 174 125c0 80 -56 125 -177 125zM143 288c0 -67 58 -125 175 -125h1v250
c-106 0 -176 -39 -176 -125z" />
    <glyph glyph-name="uniF365" unicode="&#xf365;" horiz-adv-x="590" 
d="M580 560l-215 -276l222 -284h-143l-149 189l-150 -189h-142l223 284l-214 276h141l143 -180l143 180h141z" />
    <glyph glyph-name="uniF366" unicode="&#xf366;" horiz-adv-x="636" 
d="M58 0v560h117v-451h265v451h117v-451h70v-214h-114v105h-455z" />
    <glyph glyph-name="uniF367" unicode="&#xf367;" horiz-adv-x="597" 
d="M540 560v-560h-118v214c-33 -16 -95 -32 -154 -32c-131 0 -233 54 -233 191v187h118v-115c0 -114 41 -153 132 -153c41 0 97 11 137 35v233h118z" />
    <glyph glyph-name="uniF368" unicode="&#xf368;" horiz-adv-x="789" 
d="M58 0v560h117v-451h161v451h117v-451h161v451h117v-560h-673z" />
    <glyph glyph-name="uniF369" unicode="&#xf369;" horiz-adv-x="810" 
d="M58 0v560h117v-451h161v451h117v-451h161v451h117v-451h71v-214h-114v105h-630z" />
    <glyph glyph-name="uniF36A" unicode="&#xf36a;" horiz-adv-x="637" 
d="M0 451v109h251v-189h121c166 0 247 -61 247 -183c0 -129 -95 -188 -255 -188h-230v451h-134zM370 261h-119v-152h117c85 0 129 19 129 79c0 50 -43 73 -127 73z" />
    <glyph glyph-name="uniF36B" unicode="&#xf36b;" horiz-adv-x="742" 
d="M568 0v560h117v-560h-117zM272 261h-97v-152h95c86 0 130 19 130 79c0 50 -43 73 -128 73zM175 560v-189h99c166 0 248 -73 248 -183c0 -125 -96 -188 -255 -188h-209v560h117z" />
    <glyph glyph-name="uniF36C" unicode="&#xf36c;" horiz-adv-x="564" 
d="M297 261h-122v-152h120c85 0 129 26 129 79c0 50 -43 73 -127 73zM175 560v-189h124c166 0 247 -63 247 -183c0 -125 -95 -188 -254 -188h-234v560h117z" />
    <glyph glyph-name="uniF36D" unicode="&#xf36d;" horiz-adv-x="598" 
d="M174 231v109h275c-17 72 -84 117 -185 117c-57 0 -131 -19 -177 -73l-78 75c59 74 161 107 260 107c186 0 302 -110 302 -284c0 -166 -112 -288 -309 -288c-85 0 -192 24 -259 117l78 67c43 -57 119 -75 185 -75c102 0 172 51 184 128h-276z" />
    <glyph glyph-name="uniF36E" unicode="&#xf36e;" horiz-adv-x="861" 
d="M58 0v560h117v-225h74c23 134 137 231 290 231c179 0 295 -120 295 -286c0 -165 -126 -286 -295 -286c-157 0 -272 89 -291 241h-73v-235h-117zM364 280c0 -107 76 -177 175 -177c106 0 173 70 173 177c0 108 -70 177 -173 177c-100 0 -175 -69 -175 -177z" />
    <glyph glyph-name="uniF36F" unicode="&#xf36f;" horiz-adv-x="591" 
d="M417 0v188h-117l-160 -188h-139l180 209c-87 25 -138 81 -138 163c0 106 81 188 245 188h246v-560h-117zM273 297h144v154h-136c-84 0 -117 -29 -117 -78c0 -41 42 -75 109 -76z" />
    <glyph glyph-name="uniF371" unicode="&#xf371;" horiz-adv-x="550" 
d="M107 656c0 33 28 58 66 58c30 0 63 -25 63 -58c0 -36 -33 -59 -63 -59c-38 0 -66 23 -66 59zM316 656c0 33 30 58 65 58c31 0 62 -24 62 -58c0 -36 -31 -59 -62 -59c-35 0 -65 23 -65 59zM58 0v560h448v-109h-331v-114h309v-106h-309v-122h339v-109h-456z" />
    <glyph glyph-name="uniF372" unicode="&#xf372;" horiz-adv-x="497" 
d="M58 0v560h439v-109h-322v-451h-117zM417 769l-127 -158l-76 54l118 168z" />
    <glyph glyph-name="uniF373" unicode="&#xf373;" horiz-adv-x="894" 
d="M638 257h-92v-148h88c78 0 121 19 121 79c0 51 -40 69 -117 69zM546 560v-194h94c169 0 236 -69 236 -178c0 -125 -97 -188 -246 -188h-201v451h-183v-65c0 -318 -109 -389 -212 -389c-11 0 -23 1 -34 2v113c62 -8 129 27 129 319v129h417z" />
    <glyph glyph-name="uniF374" unicode="&#xf374;" horiz-adv-x="890" 
d="M547 353h94c157 0 231 -62 231 -173c0 -125 -92 -180 -240 -180h-202v243h-255v-243h-117v560h117v-207h255v207h117v-207zM639 243h-92v-134h88c78 0 116 13 116 71c0 50 -35 63 -112 63z" />
    <glyph glyph-name="uniF375" unicode="&#xf375;" horiz-adv-x="588" 
d="M58 0v560h117v-225l249 225h153l-265 -249l282 -311h-154l-217 233l-48 -43v-190h-117zM411 769l-127 -158l-76 54l118 168z" />
    <glyph glyph-name="uniF376" unicode="&#xf376;" horiz-adv-x="627" 
d="M0 451v109h504v-109h-195v-116c26 15 61 29 106 29c111 0 184 -55 184 -191v-173h-117v158c0 48 -21 96 -84 96c-33 0 -68 -14 -89 -38v-216h-117v451h-192z" />
    <glyph glyph-name="uniF377" unicode="&#xf377;" horiz-adv-x="628" 
d="M58 0v560h117v-451h279v451h117v-560h-200v-111h-114v111h-199z" />
    <glyph glyph-name="uniF378" unicode="&#xf378;" horiz-adv-x="415" 
d="M361 560v-383c0 -119 -73 -183 -181 -183c-102 0 -159 51 -187 106l86 66c22 -33 52 -64 91 -63c51 0 74 21 74 97v360h117z" />
    <glyph glyph-name="uniF379" unicode="&#xf379;" horiz-adv-x="498" 
d="M58 0v560h329v93h110v-202h-322v-451h-117z" />
    <glyph glyph-name="uniF37A" unicode="&#xf37a;" horiz-adv-x="586" 
d="M412 340v-109h-266c17 -91 99 -128 189 -128c75 0 122 39 150 78l90 -47c-39 -97 -153 -140 -230 -140c-191 0 -318 113 -318 286c0 165 123 286 312 286c73 0 179 -30 224 -103l-86 -63c-30 36 -82 57 -145 57c-89 0 -161 -40 -183 -117h263z" />
    <glyph glyph-name="uniF37B" unicode="&#xf37b;" horiz-adv-x="243" 
d="M63 0v560h117v-560h-117z" />
    <glyph glyph-name="uniF37C" unicode="&#xf37c;" horiz-adv-x="243" 
d="M-16 645c0 31 27 54 62 54c31 0 61 -23 61 -54c0 -33 -30 -55 -61 -55c-35 0 -62 22 -62 55zM135 645c0 31 28 54 62 54c32 0 61 -23 61 -54c0 -33 -29 -55 -61 -55c-34 0 -62 22 -62 55zM63 0v560h117v-560h-117z" />
    <glyph glyph-name="uniF37E" unicode="&#xf37e;" horiz-adv-x="609" 
d="M168 13l44 102c4 -3 13 -5 18 -5c15 0 32 8 47 33l3 5l-280 412h144l196 -292l147 292h123l-218 -429c-43 -84 -86 -131 -159 -131c-24 0 -46 3 -65 13zM144 761h105c1 -40 25 -68 72 -68c45 0 68 27 68 68h104c-2 -102 -81 -156 -172 -156c-98 0 -175 52 -177 156z" />
    <glyph glyph-name="uniF37F" unicode="&#xf37f;" horiz-adv-x="539" 
d="M396 155c0 107 -361 45 -361 249c0 88 98 162 237 162c99 0 176 -21 229 -76l-62 -86c-43 31 -102 53 -178 53c-68 0 -105 -16 -105 -51c0 -93 361 -43 361 -243c0 -101 -97 -169 -233 -169c-107 0 -214 42 -266 99l64 87c62 -46 135 -77 218 -77c66 0 96 20 96 52z" />
    <glyph glyph-name="uniF381" unicode="&#xf381;" horiz-adv-x="609" 
d="M0 392v109h103v59h117v-59h188v-109h-188v-50h124c166 0 247 -49 247 -169c0 -124 -94 -173 -254 -173h-234v392h-103zM342 232h-122v-123h120c85 0 129 12 129 64c0 51 -43 59 -127 59z" />
    <glyph glyph-name="uniF389" unicode="&#xf389;" horiz-adv-x="665" 
d="M27 280c0 161 134 286 306 286c169 0 305 -120 305 -286c0 -165 -136 -286 -305 -286s-306 120 -306 286zM333 107c83 0 154 44 176 120h-353c23 -76 96 -120 177 -120zM333 453c-80 0 -152 -43 -176 -117h350c-25 74 -97 117 -174 117z" />
    <glyph glyph-name="uniF38A" unicode="&#xf38a;" horiz-adv-x="654" 
d="M550 399l-194 -399h-81l-282 560h127l197 -390l133 279c37 80 92 118 150 118c27 0 53 -8 78 -26l-44 -96c-7 5 -16 7 -25 7c-20 -1 -40 -14 -59 -53z" />
    <glyph glyph-name="uniF393" unicode="&#xf393;" horiz-adv-x="646" 
d="M501 162c0 63 -38 92 -92 93c-44 0 -81 -19 -100 -46v-209h-117v451h-192v109h504v-109h-195v-119c23 18 67 32 122 32c95 0 188 -48 188 -183s-87 -188 -169 -188c-51 0 -88 20 -109 49l63 79c12 -12 20 -19 45 -19c33 0 52 24 52 60z" />
    <glyph glyph-name="uniF3CF" unicode="&#xf3cf;" horiz-adv-x="966" 
d="M555 0h-89l-295 351v-351h-112v560h89l295 -353v353h112v-560zM594 384c0 86 64 146 159 146c96 0 160 -60 160 -146c0 -87 -64 -147 -160 -147c-95 0 -159 60 -159 147zM696 384c0 -33 26 -54 57 -54c36 0 59 21 59 54c0 31 -27 52 -59 52c-33 0 -57 -21 -57 -52z
M612 104v98h284v-98h-284z" />
    <glyph glyph-name="uniF3D0" unicode="&#xf3d0;" horiz-adv-x="501" 
d="M152 761h105c1 -40 25 -68 72 -68c45 0 68 27 68 68h104c-2 -102 -81 -156 -172 -156c-98 0 -175 52 -177 156z" />
    <glyph glyph-name="uniF3E4" unicode="&#xf3e4;" horiz-adv-x="0" 
d="M-188 769l-127 -158l-76 54l118 168z" />
    <glyph glyph-name="uniF400" unicode="&#xf400;" horiz-adv-x="0" 
d="M-168 755l-127 -157l-77 54l118 167z" />
    <glyph glyph-name="uniF401" unicode="&#xf401;" horiz-adv-x="0" 
d="M-198 849l-220 -104l-43 76l210 128z" />
    <glyph glyph-name="uniF406" unicode="&#xf406;" horiz-adv-x="562" 
d="M182 865l52 59c24 -26 67 -61 143 -61c66 0 113 30 140 61l45 -58c-34 -56 -106 -105 -185 -105c-95 0 -164 56 -195 104z" />
    <glyph glyph-name="uniF407" unicode="&#xf407;" horiz-adv-x="521" 
d="M252 -163l41 56c18 -14 46 -25 79 -25c29 0 39 7 39 21c0 17 -18 23 -50 23h-12v88h63v-32c77 -4 109 -36 109 -85c0 -51 -36 -90 -129 -90c-75 0 -115 22 -140 44z" />
    <glyph glyph-name="uniF408" unicode="&#xf408;" horiz-adv-x="531" 
d="M353 929l184 -111l-47 -69l-139 73l-138 -73l-40 67l176 113h4z" />
    <glyph glyph-name="uniF409" unicode="&#xf409;" horiz-adv-x="449" 
d="M310 -100l94 62c25 -20 45 -50 45 -87c0 -76 -52 -129 -92 -153l-53 41c21 21 35 49 35 78c0 26 -13 42 -29 59z" />
    <glyph glyph-name="uniF40A" unicode="&#xf40a;" horiz-adv-x="198" 
d="M58 677l95 60c31 -26 45 -62 45 -100c0 -75 -57 -133 -108 -165l-49 45c30 25 47 58 47 87s-16 56 -30 73z" />
    <glyph glyph-name="uniF40B" unicode="&#xf40b;" horiz-adv-x="450" 
d="M317 827c0 34 28 60 67 60c37 0 66 -26 66 -60c0 -36 -29 -62 -66 -62c-41 0 -67 26 -67 62z" />
    <glyph glyph-name="uniF40C" unicode="&#xf40c;" horiz-adv-x="522" 
d="M244 838c0 75 64 109 137 109c77 0 142 -33 142 -109c0 -72 -62 -111 -142 -111c-77 0 -137 38 -137 111zM331 838c0 -28 20 -45 52 -45s53 17 53 45s-22 42 -53 42c-32 0 -52 -15 -52 -42z" />
    <glyph glyph-name="uniF40D" unicode="&#xf40d;" horiz-adv-x="557" 
d="M226 779l-36 72c29 34 77 56 115 56c60 0 91 -36 145 -36c23 0 51 4 76 31l31 -72c-28 -41 -72 -60 -117 -60c-52 0 -91 36 -148 36c-21 0 -43 -8 -66 -27z" />
    <glyph glyph-name="uniF40E" unicode="&#xf40e;" horiz-adv-x="462" 
d="M443 -97l31 -73c-17 -16 -57 -30 -101 -30c-69 -1 -133 27 -133 93c0 86 113 129 222 129v-22c-56 0 -109 -35 -109 -70c0 -27 21 -37 44 -37c18 0 29 2 46 10z" />
    <glyph glyph-name="uniF410" unicode="&#xf410;" horiz-adv-x="0" 
d="M-272 745l-219 104l53 100l210 -128z" />
    <glyph glyph-name="uniF416" unicode="&#xf416;" horiz-adv-x="399" 
d="M260 -100l94 62c25 -20 45 -50 45 -87c0 -76 -52 -129 -92 -153l-53 41c21 21 35 49 35 78c0 26 -13 42 -29 59z" />
    <glyph glyph-name="uniF418" unicode="&#xf418;" horiz-adv-x="198" 
d="M58 517l95 60c31 -26 45 -62 45 -100c0 -75 -57 -133 -108 -165l-49 45c30 25 47 58 47 87s-16 56 -30 73z" />
    <glyph glyph-name="uniF447" unicode="&#xf447;" horiz-adv-x="515" 
d="M136 -166l35 59c18 -14 45 -25 78 -25c29 0 39 7 39 21c0 17 -17 23 -49 23h-13v88h-27v451h-195v109h507v-109h-195v-451h-27v-32c68 -4 103 -36 103 -85c0 -51 -44 -90 -137 -90c-60 0 -96 23 -119 41z" />
    <glyph glyph-name="uniF44E" unicode="&#xf44e;" horiz-adv-x="649" 
d="M22 246c0 29 7 72 16 94h461c-17 72 -84 117 -185 117c-56 0 -130 -19 -177 -73l-78 75c59 74 161 107 260 107c187 0 302 -110 302 -284c0 -166 -112 -288 -307 -288c-202 0 -292 136 -292 252zM501 231h-361c11 -74 67 -128 177 -128c102 0 174 51 184 128z" />
    <glyph glyph-name="uniF452" unicode="&#xf452;" horiz-adv-x="756" 
d="M58 0v560h443v-109h-326v-133h305v-109h-305v-209h-117zM576 0v560h117v-560h-117z" />
    <glyph glyph-name="uniF453" unicode="&#xf453;" horiz-adv-x="1030" 
d="M58 0v560h443v-109h-326v-133h305v-109h-305v-209h-117zM575 0v560h117v-451h329v-109h-446z" />
    <glyph glyph-name="zero.tab" unicode="&#xf4e0;" 
d="M36 350c0 206 96 357 272 357c180 0 274 -151 274 -357c0 -207 -99 -357 -272 -357c-172 0 -274 150 -274 357zM160 350c0 -155 55 -242 150 -242c89 0 148 87 148 242s-55 242 -150 242c-94 0 -148 -89 -148 -242z" />
    <glyph glyph-name="one.tab" unicode="&#xf4e1;" 
d="M71 0v112h241v447l-209 -93l-41 100l290 136h76v-590h143v-112h-500z" />
    <glyph glyph-name="two.tab" unicode="&#xf4e2;" 
d="M135 478l-105 42c35 122 145 187 279 187c161 0 252 -85 252 -207c0 -138 -78 -222 -252 -342l-80 -46h354v-112h-543v89l158 115c102 80 239 173 239 277c0 68 -49 110 -130 110c-93 0 -147 -54 -172 -113z" />
    <glyph glyph-name="three.tab" unicode="&#xf4e3;" 
d="M151 500l-103 46c36 103 145 163 263 163c146 0 253 -69 253 -176c0 -80 -47 -141 -113 -160c59 -14 128 -58 128 -164c0 -135 -119 -217 -263 -217c-113 0 -240 49 -282 174l110 46c29 -64 95 -104 162 -104c82 0 148 36 148 100c0 75 -72 95 -170 95h-68v110h72
c92 0 152 41 152 95c0 56 -60 87 -139 87c-75 0 -119 -37 -150 -95z" />
    <glyph glyph-name="four.tab" unicode="&#xf4e4;" 
d="M401 0v133h-376v78l393 489h100v-460h89v-107h-89v-133h-117zM185 240h216v269z" />
    <glyph glyph-name="five.tab" unicode="&#xf4e5;" 
d="M58 317l32 383h457v-113h-351l-15 -155c28 14 64 25 124 25c172 0 262 -94 262 -230c0 -143 -113 -235 -269 -235c-107 0 -231 41 -275 170l112 41c24 -62 95 -95 169 -95c88 0 139 48 139 115c0 79 -57 125 -152 125c-59 0 -100 -15 -132 -41z" />
    <glyph glyph-name="six.tab" unicode="&#xf4e6;" 
d="M32 331c0 252 128 378 315 378c111 0 163 -43 208 -91l-67 -85c-38 33 -74 59 -143 59c-113 0 -194 -74 -193 -221c43 63 105 107 192 107c151 0 247 -93 247 -236c0 -149 -110 -251 -260 -251c-176 0 -299 120 -299 340zM171 255c12 -73 43 -148 165 -148
c83 0 131 51 131 129c0 82 -48 129 -136 129c-87 0 -147 -65 -160 -110z" />
    <glyph glyph-name="seven.tab" unicode="&#xf4e7;" 
d="M39 587v113h544v-76l-330 -624h-127l314 587h-401z" />
    <glyph glyph-name="eight.tab" unicode="&#xf4e8;" 
d="M296 411h29c73 0 117 36 117 95c0 60 -35 92 -133 92c-85 0 -132 -32 -132 -91c0 -55 36 -96 119 -96zM323 308h-24c-88 0 -144 -46 -144 -102c0 -64 54 -105 155 -105c94 0 154 39 154 103c0 65 -51 104 -141 104zM311 -8c-176 0 -280 76 -280 203c0 76 41 141 117 168
c-67 34 -95 90 -95 155c0 112 82 190 257 190c180 0 257 -78 257 -188c0 -70 -44 -131 -105 -155c96 -24 127 -89 127 -166c0 -132 -110 -207 -278 -207z" />
    <glyph glyph-name="nine.tab" unicode="&#xf4e9;" 
d="M590 369c0 -256 -123 -378 -291 -378c-107 0 -177 43 -222 91l67 85c38 -33 74 -59 143 -59c115 0 182 79 182 207c-35 -53 -98 -89 -186 -89c-152 0 -246 95 -246 232c0 149 109 251 259 251c186 0 294 -120 294 -340zM455 432c-1 73 -44 161 -158 161
c-81 0 -136 -51 -136 -129c0 -82 52 -129 136 -129c77 0 145 52 158 97z" />
    <glyph glyph-name="dollar.tab" unicode="&#xf4ec;" 
d="M475 190c0 158 -432 64 -432 320c0 93 83 173 210 193v80h115v-78c91 -9 168 -45 220 -97l-66 -86c-60 50 -124 73 -208 73c-74 0 -146 -23 -146 -82c0 -141 432 -57 432 -314c0 -113 -102 -193 -232 -205v-86h-115v91c-97 17 -183 65 -230 121l72 85
c60 -63 149 -100 247 -100c84 0 133 32 133 85z" />
    <glyph glyph-name="Euro.tab" unicode="&#xf4ed;" 
d="M7 386l39 98h68c46 131 163 224 323 224c74 0 135 -16 178 -46l-43 -91c-35 21 -79 33 -135 33c-87 0 -157 -45 -193 -120h307l-37 -98h-299c-1 -13 -2 -34 -2 -49c0 -6 0 -10 1 -17h281l-32 -98h-226c30 -78 113 -127 211 -127c35 0 90 11 122 32l30 -93
c-28 -23 -96 -42 -155 -42c-170 0 -289 83 -336 230h-100l37 98c47 0 47 1 47 1c0 3 -1 11 -1 18c0 22 1 35 2 47h-87z" />
    <glyph glyph-name="cent.tab" unicode="&#xf4ee;" 
d="M476 171l81 -52c-35 -69 -101 -111 -173 -123v-196h-120v198c-128 25 -210 123 -210 263c0 133 82 238 210 264v175h120v-173c79 -14 139 -57 167 -113l-85 -56c-27 36 -56 57 -95 64v-323c46 7 80 34 105 72zM172 261c0 -72 40 -130 106 -153v309
c-64 -21 -106 -79 -106 -156z" />
    <glyph glyph-name="sterling.tab" unicode="&#xf4ef;" 
d="M77 260v96h57c-16 40 -36 79 -36 144c0 107 85 207 225 207c83 0 161 -30 213 -89l-64 -91c-52 52 -103 67 -151 67c-54 0 -101 -38 -101 -102c0 -47 24 -86 41 -136h168v-96h-148c1 -7 1 -13 1 -21c0 -39 -12 -77 -29 -98c57 -2 117 -41 176 -41c43 0 64 14 99 55
l59 -79c-42 -51 -95 -77 -157 -77c-84 0 -145 45 -223 45c-39 0 -77 -13 -119 -54l-53 85c33 33 66 52 96 62c22 28 33 60 33 98c0 10 -1 17 -2 25h-85z" />
    <glyph glyph-name="yen.tab" unicode="&#xf4fa;" 
d="M83 302v99h95l-181 299h140l173 -299l177 299h135l-183 -299h96v-99h-166v-85h166v-99h-166v-118h-121v118h-165v99h165v85h-165z" />
    <glyph glyph-name="florin.tab" unicode="&#xf4fb;" 
d="M390 481l-5 -24h144v-105h-162l-61 -342c-20 -111 -56 -218 -184 -218c-48 0 -92 18 -121 48l38 88c21 -20 47 -30 73 -30c42 0 65 29 76 89l66 365h-134v105h153l7 42c18 114 68 210 204 210c63 0 100 -17 127 -40l-41 -90c-22 15 -45 24 -78 24
c-60 0 -84 -36 -102 -122z" />
    <glyph glyph-name="uni20B4.tab" unicode="&#xf4fc;" 
d="M52 397v95h326c9 12 16 25 16 46c0 34 -29 58 -89 58c-67 0 -115 -16 -151 -44l-50 93c48 40 116 64 209 64c108 0 204 -62 204 -148c0 -30 -8 -53 -20 -69h64v-95h-128c-39 -33 -92 -55 -124 -74h252v-95h-329c-11 -15 -23 -30 -23 -53c0 -49 49 -71 114 -71
c76 0 135 30 166 62l54 -80c-40 -62 -146 -95 -228 -95c-127 0 -226 57 -226 170c0 33 9 49 19 67h-56v95h120c65 38 104 53 138 74h-258z" />
    <glyph glyph-name="uni20BD.tab" unicode="&#xf4fd;" 
d="M28 295v106h103v299c17 0 81 0 111 1c29 0 60 1 78 1c193 0 264 -88 264 -200c0 -115 -79 -207 -264 -207h-72v-65h168v-106h-168v-124h-117v124h-103v106h103v65h-103zM326 595h-78v-194h70c96 0 145 31 145 98s-45 96 -137 96z" />
    <glyph glyph-name="uniF66D" unicode="&#xf66d;" horiz-adv-x="605" 
d="M-2 0l261 560h88l261 -560h-123l-53 109h-261l-53 -109h-120zM301 387l-89 -179h177zM143 717l51 58c21 -24 60 -55 112 -55c51 0 93 26 115 53l40 -55c-29 -44 -76 -95 -159 -95c-86 0 -141 64 -159 94z" />
    <glyph glyph-name="uniF66E" unicode="&#xf66e;" horiz-adv-x="605" 
d="M-2 0l261 560h88l261 -560h-123l-53 109h-261l-53 -109h-120zM301 387l-89 -179h177zM162 638v96h281v-96h-281z" />
    <glyph glyph-name="uniF66F" unicode="&#xf66f;" horiz-adv-x="605" 
d="M582 -96l35 -73c-17 -16 -56 -31 -101 -31c-67 0 -130 29 -130 96c0 56 44 90 96 109l-50 104h-261l-53 -109h-120l261 560h88l261 -560h-39c-33 -3 -66 -32 -66 -66c0 -23 16 -39 37 -39c15 0 25 1 42 9zM301 387l-89 -179h177z" />
    <glyph glyph-name="uniF671" unicode="&#xf671;" horiz-adv-x="590" 
d="M511 179l68 -75c-51 -72 -143 -110 -246 -110c-187 0 -306 113 -306 286c0 160 122 286 306 286c108 0 196 -40 237 -101l-78 -73c-38 42 -95 61 -152 61c-115 0 -191 -65 -191 -173c0 -105 81 -173 193 -173c70 0 128 24 169 72zM454 769l-127 -158l-76 54l118 168z" />
    <glyph glyph-name="uniF672" unicode="&#xf672;" horiz-adv-x="590" 
d="M511 179l68 -75c-51 -72 -143 -110 -246 -110c-187 0 -306 113 -306 286c0 160 122 286 306 286c108 0 196 -40 237 -101l-78 -73c-38 42 -95 61 -152 61c-115 0 -191 -65 -191 -173c0 -105 81 -173 193 -173c70 0 128 24 169 72zM314 609l-156 131l56 69l103 -87l105 85
l52 -68l-156 -130h-4z" />
    <glyph glyph-name="uniF673" unicode="&#xf673;" horiz-adv-x="590" 
d="M511 179l68 -75c-51 -72 -143 -110 -246 -110c-187 0 -306 113 -306 286c0 160 122 286 306 286c108 0 196 -40 237 -101l-78 -73c-38 42 -95 61 -152 61c-115 0 -191 -65 -191 -173c0 -105 81 -173 193 -173c70 0 128 24 169 72zM314 803l157 -131l-57 -69l-102 87
l-106 -85l-52 68l156 130h4z" />
    <glyph glyph-name="uniF674" unicode="&#xf674;" horiz-adv-x="590" 
d="M511 179l68 -75c-51 -72 -143 -110 -246 -110c-187 0 -306 113 -306 286c0 160 122 286 306 286c108 0 196 -40 237 -101l-78 -73c-38 42 -95 61 -152 61c-115 0 -191 -65 -191 -173c0 -105 81 -173 193 -173c70 0 128 24 169 72zM253 697c0 34 29 60 67 60
s66 -26 66 -60c0 -36 -28 -62 -66 -62c-40 0 -67 26 -67 62z" />
    <glyph glyph-name="uniF675" unicode="&#xf675;" horiz-adv-x="611" 
d="M58 0v560h187c251 0 339 -126 339 -273c0 -160 -105 -287 -351 -287h-175zM243 451h-68v-342h68c156 0 219 71 219 178c0 98 -57 164 -219 164zM264 609l-156 131l56 69l103 -87l105 85l52 -68l-156 -130h-4z" />
    <glyph glyph-name="uniF676" unicode="&#xf676;" horiz-adv-x="665" 
d="M15 231v97h97v232h187c251 0 339 -126 339 -273c0 -160 -105 -287 -350 -287h-176v231h-97zM297 451h-68v-123h142v-97h-142v-122h68c157 0 219 71 219 178c0 98 -56 164 -219 164z" />
    <glyph glyph-name="uniF678" unicode="&#xf678;" horiz-adv-x="550" 
d="M58 0v560h448v-109h-331v-114h309v-106h-309v-122h339v-109h-456zM281 609l-156 131l56 69l103 -87l105 85l52 -68l-156 -130h-4z" />
    <glyph glyph-name="uniF679" unicode="&#xf679;" horiz-adv-x="550" 
d="M58 0v560h448v-109h-331v-114h309v-106h-309v-122h339v-109h-456zM220 697c0 34 29 60 67 60s66 -26 66 -60c0 -36 -28 -62 -66 -62c-40 0 -67 26 -67 62z" />
    <glyph glyph-name="uniF67A" unicode="&#xf67a;" horiz-adv-x="550" 
d="M58 0v560h448v-109h-331v-114h309v-106h-309v-122h339v-109h-456zM147 638v96h281v-96h-281z" />
    <glyph glyph-name="uniF67C" unicode="&#xf67c;" horiz-adv-x="550" 
d="M58 0v560h448v-109h-331v-114h309v-106h-309v-122h339v-109h-11c-33 -3 -66 -32 -66 -66c0 -23 16 -39 37 -39c15 0 25 1 42 9l35 -73c-17 -16 -56 -31 -101 -31c-67 0 -130 29 -130 96c0 51 37 84 83 104h-345z" />
    <glyph glyph-name="uniF67D" unicode="&#xf67d;" horiz-adv-x="611" 
d="M317 204v106h266v-224c-56 -59 -144 -92 -236 -92c-186 0 -320 113 -320 286c0 160 126 286 307 286c101 0 193 -36 236 -95l-80 -73c-33 36 -85 55 -151 55c-115 0 -190 -64 -190 -173c0 -113 83 -173 199 -173c42 0 89 8 123 31v66h-154zM160 717l51 58
c21 -24 60 -55 112 -55c51 0 93 26 115 53l40 -55c-29 -44 -76 -95 -159 -95c-86 0 -141 64 -159 94z" />
    <glyph glyph-name="uniF67E" unicode="&#xf67e;" horiz-adv-x="611" 
d="M317 204v106h266v-224c-56 -59 -144 -92 -236 -92c-186 0 -320 113 -320 286c0 160 126 286 307 286c101 0 193 -36 236 -95l-80 -73c-33 36 -85 55 -151 55c-115 0 -190 -64 -190 -173c0 -113 83 -173 199 -173c42 0 89 8 123 31v66h-154zM327 803l157 -131l-57 -69
l-102 87l-106 -85l-52 68l156 130h4z" />
    <glyph glyph-name="uniF67F" unicode="&#xf67f;" horiz-adv-x="611" 
d="M317 204v106h266v-224c-56 -59 -144 -92 -236 -92c-186 0 -320 113 -320 286c0 160 126 286 307 286c101 0 193 -36 236 -95l-80 -73c-33 36 -85 55 -151 55c-115 0 -190 -64 -190 -173c0 -113 83 -173 199 -173c42 0 89 8 123 31v66h-154zM270 -100l94 62
c25 -20 45 -50 45 -87c0 -76 -52 -129 -92 -153l-53 41c21 21 35 49 35 78c0 26 -13 42 -29 59z" />
    <glyph glyph-name="uniF680" unicode="&#xf680;" horiz-adv-x="611" 
d="M317 204v106h266v-224c-56 -59 -144 -92 -236 -92c-186 0 -320 113 -320 286c0 160 126 286 307 286c101 0 193 -36 236 -95l-80 -73c-33 36 -85 55 -151 55c-115 0 -190 -64 -190 -173c0 -113 83 -173 199 -173c42 0 89 8 123 31v66h-154zM263 697c0 34 29 60 67 60
s66 -26 66 -60c0 -36 -28 -62 -66 -62c-40 0 -67 26 -67 62z" />
    <glyph glyph-name="uniF681" unicode="&#xf681;" horiz-adv-x="637" 
d="M0 403v91h58v66h117v-66h288v66h117v-66h57v-91h-57v-403h-117v228h-288v-228h-117v403h-58zM175 337h288v66h-288v-66z" />
    <glyph glyph-name="uniF682" unicode="&#xf682;" horiz-adv-x="638" 
d="M463 0v228h-288v-228h-117v560h117v-222h288v222h117v-560h-117zM321 803l157 -131l-57 -69l-102 87l-106 -85l-52 68l156 130h4z" />
    <glyph glyph-name="uniF685" unicode="&#xf685;" horiz-adv-x="243" 
d="M63 0v560h117v-560h-117zM-19 638v96h281v-96h-281z" />
    <glyph glyph-name="uniF686" unicode="&#xf686;" horiz-adv-x="243" 
d="M63 0v560h117v-560h-9c-33 -3 -66 -32 -66 -66c0 -23 16 -39 37 -39c15 0 25 1 42 9l35 -73c-17 -16 -56 -31 -101 -31c-67 0 -130 29 -130 96c0 51 37 84 83 104h-8z" />
    <glyph glyph-name="uniF688" unicode="&#xf688;" horiz-adv-x="415" 
d="M361 560v-383c0 -119 -73 -183 -181 -183c-102 0 -159 51 -187 106l86 66c22 -33 52 -64 91 -63c51 0 74 21 74 97v360h117zM290 803l157 -131l-57 -69l-102 87l-106 -85l-52 68l156 130h4z" />
    <glyph glyph-name="uniF689" unicode="&#xf689;" horiz-adv-x="588" 
d="M58 0v560h117v-225l249 225h153l-265 -249l282 -311h-154l-217 233l-48 -43v-190h-117zM210 -100l94 62c25 -20 45 -50 45 -87c0 -76 -52 -129 -92 -153l-53 41c21 21 35 49 35 78c0 26 -13 42 -29 59z" />
    <glyph glyph-name="uniF68A" unicode="&#xf68a;" horiz-adv-x="513" 
d="M58 0v560h117v-451h329v-109h-446zM341 769l-127 -158l-76 54l118 168z" />
    <glyph glyph-name="uniF68B" unicode="&#xf68b;" horiz-adv-x="513" 
d="M58 0v560h117v-451h329v-109h-446zM329 560h119c9 -16 13 -39 13 -67c0 -75 -57 -136 -108 -168l-49 45c34 30 48 76 48 105c0 35 -10 68 -23 85z" />
    <glyph glyph-name="uniF68C" unicode="&#xf68c;" horiz-adv-x="513" 
d="M58 0v560h117v-451h329v-109h-446zM213 -100l94 62c25 -20 45 -50 45 -87c0 -76 -52 -129 -92 -153l-53 41c21 21 35 49 35 78c0 26 -13 42 -29 59z" />
    <glyph glyph-name="uniF68D" unicode="&#xf68d;" horiz-adv-x="513" 
d="M58 0v560h117v-451h329v-109h-446zM297 309c0 35 32 73 81 73c46 0 80 -38 80 -73c0 -39 -34 -75 -80 -75c-49 0 -81 36 -81 75z" />
    <glyph glyph-name="uniF68E" unicode="&#xf68e;" horiz-adv-x="629" 
d="M571 0h-91l-308 357v-357h-114v560h90l309 -359v359h114v-560zM441 769l-127 -158l-76 54l118 168z" />
    <glyph glyph-name="uniF68F" unicode="&#xf68f;" horiz-adv-x="629" 
d="M571 0h-91l-308 357v-357h-114v560h90l309 -359v359h114v-560zM312 609l-156 131l56 69l103 -87l105 85l52 -68l-156 -130h-4z" />
    <glyph glyph-name="uniF690" unicode="&#xf690;" horiz-adv-x="629" 
d="M571 0h-91l-308 357v-357h-114v560h90l309 -359v359h114v-560zM247 -100l94 62c25 -20 45 -50 45 -87c0 -76 -52 -129 -92 -153l-53 41c21 21 35 49 35 78c0 26 -13 42 -29 59z" />
    <glyph glyph-name="uniF692" unicode="&#xf692;" horiz-adv-x="665" 
d="M27 280c0 161 134 286 306 286c169 0 305 -120 305 -286c0 -165 -136 -286 -305 -286s-306 120 -306 286zM149 280c0 -107 86 -173 184 -173c101 0 183 66 183 173c0 108 -88 173 -183 173c-98 0 -184 -65 -184 -173zM544 769l-138 -158l-61 45l124 170zM380 779
l-127 -168l-62 46l114 176z" />
    <glyph glyph-name="uniF693" unicode="&#xf693;" horiz-adv-x="665" 
d="M27 280c0 161 134 286 306 286c169 0 305 -120 305 -286c0 -165 -136 -286 -305 -286s-306 120 -306 286zM149 280c0 -107 86 -173 184 -173c101 0 183 66 183 173c0 108 -88 173 -183 173c-98 0 -184 -65 -184 -173zM192 638v96h281v-96h-281z" />
    <glyph glyph-name="uniF695" unicode="&#xf695;" horiz-adv-x="583" 
d="M175 0h-117v560h237c187 0 237 -88 237 -180c0 -74 -48 -138 -124 -163l173 -217h-142l-154 195h-110v-195zM292 451h-117v-147h122c72 0 114 28 114 76c0 42 -26 71 -119 71zM394 769l-127 -158l-76 54l118 168z" />
    <glyph glyph-name="uniF696" unicode="&#xf696;" horiz-adv-x="583" 
d="M175 0h-117v560h237c187 0 237 -88 237 -180c0 -74 -48 -138 -124 -163l173 -217h-142l-154 195h-110v-195zM292 451h-117v-147h122c72 0 114 28 114 76c0 42 -26 71 -119 71zM267 609l-156 131l56 69l103 -87l105 85l52 -68l-156 -130h-4z" />
    <glyph glyph-name="uniF697" unicode="&#xf697;" horiz-adv-x="583" 
d="M175 0h-117v560h237c187 0 237 -88 237 -180c0 -74 -48 -138 -124 -163l173 -217h-142l-154 195h-110v-195zM292 451h-117v-147h122c72 0 114 28 114 76c0 42 -26 71 -119 71zM213 -100l94 62c25 -20 45 -50 45 -87c0 -76 -52 -129 -92 -153l-53 41c21 21 35 49 35 78
c0 26 -13 42 -29 59z" />
    <glyph glyph-name="uniF698" unicode="&#xf698;" horiz-adv-x="539" 
d="M396 155c0 107 -361 45 -361 249c0 88 98 162 237 162c99 0 176 -21 229 -76l-62 -86c-43 31 -102 53 -178 53c-68 0 -105 -16 -105 -51c0 -93 361 -43 361 -243c0 -101 -97 -169 -233 -169c-107 0 -214 42 -266 99l64 87c62 -46 135 -77 218 -77c66 0 96 20 96 52z
M397 769l-127 -158l-76 54l118 168z" />
    <glyph glyph-name="uniF699" unicode="&#xf699;" horiz-adv-x="519" 
d="M142 -166l35 59c18 -14 45 -25 78 -25c29 0 39 7 39 21c0 17 -17 23 -49 23h-13v85c-92 11 -177 59 -212 111l71 85c47 -56 116 -90 199 -90c51 0 86 20 86 52c0 98 -341 45 -341 249c0 88 88 162 227 162c99 0 179 -31 229 -94l-78 -76c-34 35 -86 61 -162 61
c-49 0 -95 -16 -95 -51c0 -93 341 -50 341 -243c0 -96 -78 -162 -202 -168v-27c68 -4 103 -36 103 -85c0 -51 -44 -90 -137 -90c-60 0 -96 23 -119 41z" />
    <glyph glyph-name="uniF69A" unicode="&#xf69a;" horiz-adv-x="539" 
d="M396 155c0 107 -361 45 -361 249c0 88 98 162 237 162c99 0 176 -21 229 -76l-62 -86c-43 31 -102 53 -178 53c-68 0 -105 -16 -105 -51c0 -93 361 -43 361 -243c0 -101 -97 -169 -233 -169c-107 0 -214 42 -266 99l64 87c62 -46 135 -77 218 -77c66 0 96 20 96 52z
M271 803l157 -131l-57 -69l-102 87l-106 -85l-52 68l156 130h4z" />
    <glyph glyph-name="uniF69B" unicode="&#xf69b;" horiz-adv-x="539" 
d="M396 155c0 107 -361 45 -361 249c0 88 98 162 237 162c99 0 176 -21 229 -76l-62 -86c-43 31 -102 53 -178 53c-68 0 -105 -16 -105 -51c0 -93 361 -43 361 -243c0 -101 -97 -169 -233 -169c-107 0 -214 42 -266 99l64 87c62 -46 135 -77 218 -77c66 0 96 20 96 52z
M210 -100l94 62c25 -20 45 -50 45 -87c0 -76 -52 -129 -92 -153l-53 41c21 21 35 49 35 78c0 26 -13 42 -29 59z" />
    <glyph glyph-name="uniF69D" unicode="&#xf69d;" horiz-adv-x="515" 
d="M4 451v109h507v-109h-195v-451h-117v451h-195zM255 609l-156 131l56 69l103 -87l105 85l52 -68l-156 -130h-4z" />
    <glyph glyph-name="uniF69E" unicode="&#xf69e;" horiz-adv-x="515" 
d="M4 451v109h507v-109h-195v-451h-117v451h-195zM193 -100l94 62c25 -20 45 -50 45 -87c0 -76 -52 -129 -92 -153l-53 41c21 21 35 49 35 78c0 26 -13 42 -29 59z" />
    <glyph glyph-name="uniF69F" unicode="&#xf69f;" horiz-adv-x="618" 
d="M566 560v-320c0 -176 -126 -245 -250 -245c-140 0 -264 83 -264 249v316h117v-302c0 -85 55 -154 147 -154c93 0 133 67 133 151v305h117zM150 717l51 58c21 -24 60 -55 112 -55c51 0 93 26 115 53l40 -55c-29 -44 -76 -95 -159 -95c-86 0 -141 64 -159 94z" />
    <glyph glyph-name="uniF6A0" unicode="&#xf6a0;" horiz-adv-x="618" 
d="M566 560v-320c0 -176 -126 -245 -250 -245c-140 0 -264 83 -264 249v316h117v-302c0 -85 55 -154 147 -154c93 0 133 67 133 151v305h117zM520 769l-138 -158l-61 45l124 170zM356 779l-127 -168l-62 46l114 176z" />
    <glyph glyph-name="uniF6A1" unicode="&#xf6a1;" horiz-adv-x="618" 
d="M566 560v-320c0 -176 -126 -245 -250 -245c-140 0 -264 83 -264 249v316h117v-302c0 -85 55 -154 147 -154c93 0 133 67 133 151v305h117zM169 638v96h281v-96h-281z" />
    <glyph glyph-name="uniF6A2" unicode="&#xf6a2;" horiz-adv-x="618" 
d="M566 560v-320c0 -126 -65 -197 -146 -227c-41 -26 -63 -54 -63 -81c0 -23 16 -37 37 -37c15 0 25 1 42 9l35 -73c-17 -16 -56 -31 -101 -31c-67 0 -130 29 -130 96c0 45 32 75 76 99c-140 0 -264 83 -264 249v316h117v-302c0 -85 55 -154 147 -154c93 0 133 67 133 151
v305h117z" />
    <glyph glyph-name="uniF6A3" unicode="&#xf6a3;" horiz-adv-x="618" 
d="M566 560v-320c0 -176 -126 -245 -250 -245c-140 0 -264 83 -264 249v316h117v-302c0 -85 55 -154 147 -154c93 0 133 67 133 151v305h117zM186 721c0 64 52 117 122 117c71 0 124 -53 124 -117s-53 -115 -124 -115c-70 0 -122 51 -122 115zM263 722c0 -27 19 -46 47 -46
c27 0 45 17 45 46s-18 46 -45 46c-28 0 -47 -18 -47 -46z" />
    <glyph glyph-name="uniF6AB" unicode="&#xf6ab;" horiz-adv-x="539" 
d="M24 451v109h490v-78l-337 -373h345v-109h-512v78l335 373h-321zM394 769l-127 -158l-76 54l118 168z" />
    <glyph glyph-name="uniF6AC" unicode="&#xf6ac;" horiz-adv-x="539" 
d="M24 451v109h490v-78l-337 -373h345v-109h-512v78l335 373h-321zM203 697c0 34 29 60 67 60s66 -26 66 -60c0 -36 -28 -62 -66 -62c-40 0 -67 26 -67 62z" />
    <glyph glyph-name="uniF6AD" unicode="&#xf6ad;" horiz-adv-x="243" 
d="M63 0v560h117v-560h-117zM55 697c0 34 29 60 67 60s66 -26 66 -60c0 -36 -28 -62 -66 -62c-40 0 -67 26 -67 62z" />
    <glyph glyph-name="uniF6BA" unicode="&#xf6ba;" horiz-adv-x="416" 
d="M69 309v101h278v-101h-278z" />
    <glyph glyph-name="uniF6BB" unicode="&#xf6bb;" horiz-adv-x="607" 
d="M85 311v99h437v-99h-437z" />
    <glyph glyph-name="uniF6BC" unicode="&#xf6bc;" horiz-adv-x="796" 
d="M85 311v99h626v-99h-626z" />
    <glyph glyph-name="uniF6C3" unicode="&#xf6c3;" horiz-adv-x="366" 
d="M226 -100l95 62c24 -20 45 -50 45 -87c0 -76 -52 -129 -92 -153l-53 41c21 21 35 49 35 78c0 26 -14 42 -30 59z" />
    <glyph glyph-name="uniF6C9" unicode="&#xf6c9;" horiz-adv-x="572" 
d="M572 849l-220 -104l-43 76l210 128z" />
    <glyph glyph-name="uniF6CA" unicode="&#xf6ca;" horiz-adv-x="529" 
d="M352 750l-183 111l46 68l139 -79l138 79l41 -67l-177 -112h-4z" />
    <glyph glyph-name="uniF6CB" unicode="&#xf6cb;" horiz-adv-x="513" 
d="M136 828c0 36 30 62 70 62c32 0 66 -26 66 -62c0 -38 -34 -62 -66 -62c-40 0 -70 24 -70 62zM379 828c0 36 32 62 69 62c33 0 66 -25 66 -62c0 -38 -33 -62 -66 -62c-37 0 -69 24 -69 62z" />
    <glyph glyph-name="uniF6CE" unicode="&#xf6ce;" horiz-adv-x="471" 
d="M428 745l-219 104l53 100l210 -128z" />
    <glyph glyph-name="uniF6CF" unicode="&#xf6cf;" horiz-adv-x="643" 
d="M643 845l-187 -106l-47 53l157 129zM440 864l-163 -125l-48 49l117 133z" />
    <glyph glyph-name="uniF6D0" unicode="&#xf6d0;" horiz-adv-x="527" 
d="M220 780v95h307v-95h-307z" />
    <glyph glyph-name="uniF6D1" unicode="&#xf6d1;" horiz-adv-x="574" 
d="M174 908h114c15 -41 44 -59 86 -59c43 0 77 18 86 59h114c-7 -90 -90 -158 -196 -158c-121 0 -187 67 -204 158z" />
    <glyph glyph-name="uniF6D4" unicode="&#xf6d4;" horiz-adv-x="481" 
d="M132 741h105c1 -40 25 -68 72 -68c45 0 68 27 68 68h104c-2 -102 -81 -156 -172 -156c-98 0 -175 52 -177 156z" />
    <glyph glyph-name="uniF6F4" unicode="&#xf6f4;" horiz-adv-x="496" 
d="M177 717l51 58c21 -24 60 -55 112 -55c51 0 93 26 115 53l40 -55c-29 -44 -76 -95 -159 -95c-86 0 -141 64 -159 94z" />
    <glyph glyph-name="uniF6F5" unicode="&#xf6f5;" horiz-adv-x="484" 
d="M324 609l-156 131l56 69l103 -87l105 85l52 -68l-156 -130h-4z" />
    <glyph glyph-name="uniF6F6" unicode="&#xf6f6;" horiz-adv-x="481" 
d="M324 803l157 -131l-57 -69l-102 87l-106 -85l-52 68l156 130h4z" />
    <glyph glyph-name="uniF6F7" unicode="&#xf6f7;" horiz-adv-x="396" 
d="M263 697c0 34 29 60 67 60s66 -26 66 -60c0 -36 -28 -62 -66 -62c-40 0 -67 26 -67 62z" />
    <glyph glyph-name="uniF6F8" unicode="&#xf6f8;" horiz-adv-x="537" 
d="M537 769l-138 -158l-61 45l124 170zM373 779l-127 -168l-62 46l114 176z" />
    <glyph glyph-name="uniF6F9" unicode="&#xf6f9;" horiz-adv-x="523" 
d="M0 91v118l68 47v304h117v-224l160 111v-118l-160 -111v-109h330v-109h-447v138z" />
    <glyph glyph-name="uniF6FA" unicode="&#xf6fa;" horiz-adv-x="972" 
d="M480 0v35c-42 -26 -93 -41 -147 -41c-169 0 -306 120 -306 286c0 161 134 286 306 286c55 0 105 -14 147 -39v33h449v-109h-332v-114h309v-106h-309v-122h339v-109h-456zM333 107c60 0 114 23 147 63v217c-35 42 -90 66 -147 66c-98 0 -184 -65 -184 -173
c0 -107 86 -173 184 -173z" />
    <glyph glyph-name="uniF6FB" unicode="&#xf6fb;" horiz-adv-x="393" 
d="M396 -96l35 -73c-17 -16 -56 -31 -101 -31c-67 0 -130 29 -130 96c0 88 113 124 189 127v-23c-35 0 -72 -30 -72 -66c0 -23 16 -39 37 -39c15 0 25 1 42 9z" />
    <glyph glyph-name="uniF6FC" unicode="&#xf6fc;" horiz-adv-x="464" 
d="M217 721c0 64 52 117 122 117c71 0 124 -53 124 -117s-53 -115 -124 -115c-70 0 -122 51 -122 115zM294 722c0 -27 19 -46 47 -46c27 0 45 17 45 46s-18 46 -45 46c-28 0 -47 -18 -47 -46z" />
    <glyph glyph-name="uniF6FD" unicode="&#xf6fd;" horiz-adv-x="539" 
d="M396 155c0 107 -361 45 -361 249c0 88 98 162 237 162c99 0 176 -21 229 -76l-62 -86c-43 31 -102 53 -178 53c-68 0 -105 -16 -105 -51c0 -93 361 -43 361 -243c0 -101 -97 -169 -233 -169c-107 0 -214 42 -266 99l64 87c62 -46 135 -77 218 -77c66 0 96 20 96 52z
M267 609l-156 131l56 69l103 -87l105 85l52 -68l-156 -130h-4z" />
    <glyph glyph-name="uniF6FE" unicode="&#xf6fe;" horiz-adv-x="506" 
d="M207 632l-49 53c37 47 82 71 122 71c47 0 78 -43 120 -43c28 0 46 10 66 30l40 -59c-35 -43 -78 -66 -116 -66c-48 0 -77 44 -119 44c-22 0 -45 -14 -64 -30z" />
    <glyph glyph-name="uniF6FF" unicode="&#xf6ff;" horiz-adv-x="539" 
d="M24 451v109h490v-78l-337 -373h345v-109h-512v78l335 373h-321zM267 609l-156 131l56 69l103 -87l105 85l52 -68l-156 -130h-4z" />
    <glyph glyph-name="uniF760" unicode="&#xf760;" horiz-adv-x="401" 
d="M333 612l-136 154l88 67l116 -168z" />
    <glyph glyph-name="uniF761" unicode="&#xf761;" horiz-adv-x="605" 
d="M-2 0l261 560h88l261 -560h-123l-53 109h-261l-53 -109h-120zM301 387l-89 -179h177z" />
    <glyph glyph-name="uniF762" unicode="&#xf762;" horiz-adv-x="575" 
d="M58 0v560h259c157 0 206 -59 206 -142c0 -56 -26 -95 -64 -122c52 -20 84 -60 84 -130c0 -118 -96 -166 -232 -166h-253zM307 233h-132v-124h125c88 0 122 19 122 63c0 42 -32 61 -115 61zM299 451h-124v-112h135c59 0 92 20 92 52c0 40 -23 60 -103 60z" />
    <glyph glyph-name="uniF763" unicode="&#xf763;" horiz-adv-x="590" 
d="M511 179l68 -75c-51 -72 -143 -110 -246 -110c-187 0 -306 113 -306 286c0 160 122 286 306 286c108 0 196 -40 237 -101l-78 -73c-38 42 -95 61 -152 61c-115 0 -191 -65 -191 -173c0 -105 81 -173 193 -173c70 0 128 24 169 72z" />
    <glyph glyph-name="uniF764" unicode="&#xf764;" horiz-adv-x="611" 
d="M58 0v560h187c251 0 339 -126 339 -273c0 -160 -105 -287 -351 -287h-175zM243 451h-68v-342h68c156 0 219 71 219 178c0 98 -57 164 -219 164z" />
    <glyph glyph-name="uniF765" unicode="&#xf765;" horiz-adv-x="550" 
d="M58 0v560h448v-109h-331v-114h309v-106h-309v-122h339v-109h-456z" />
    <glyph glyph-name="uniF766" unicode="&#xf766;" horiz-adv-x="525" 
d="M58 0v560h443v-109h-326v-133h305v-109h-305v-209h-117z" />
    <glyph glyph-name="uniF767" unicode="&#xf767;" horiz-adv-x="611" 
d="M317 204v106h266v-224c-56 -59 -144 -92 -236 -92c-186 0 -320 113 -320 286c0 160 126 286 307 286c101 0 193 -36 236 -95l-80 -73c-33 36 -85 55 -151 55c-115 0 -190 -64 -190 -173c0 -113 83 -173 199 -173c42 0 89 8 123 31v66h-154z" />
    <glyph glyph-name="uniF768" unicode="&#xf768;" horiz-adv-x="638" 
d="M463 0v228h-288v-228h-117v560h117v-222h288v222h117v-560h-117z" />
    <glyph glyph-name="uniF769" unicode="&#xf769;" horiz-adv-x="243" 
d="M63 0v560h117v-560h-117z" />
    <glyph glyph-name="uniF76A" unicode="&#xf76a;" horiz-adv-x="415" 
d="M361 560v-383c0 -119 -73 -183 -181 -183c-102 0 -159 51 -187 106l86 66c22 -33 52 -64 91 -63c51 0 74 21 74 97v360h117z" />
    <glyph glyph-name="uniF76B" unicode="&#xf76b;" horiz-adv-x="588" 
d="M58 0v560h117v-225l249 225h153l-265 -249l282 -311h-154l-217 233l-48 -43v-190h-117z" />
    <glyph glyph-name="uniF76C" unicode="&#xf76c;" horiz-adv-x="513" 
d="M58 0v560h117v-451h329v-109h-446z" />
    <glyph glyph-name="uniF76D" unicode="&#xf76d;" horiz-adv-x="720" 
d="M58 0v560h101l206 -242l198 242h100v-560h-117v363l-168 -207h-30l-173 208v-364h-117z" />
    <glyph glyph-name="uniF76E" unicode="&#xf76e;" horiz-adv-x="629" 
d="M571 0h-91l-308 357v-357h-114v560h90l309 -359v359h114v-560z" />
    <glyph glyph-name="uniF76F" unicode="&#xf76f;" horiz-adv-x="665" 
d="M27 280c0 161 134 286 306 286c169 0 305 -120 305 -286c0 -165 -136 -286 -305 -286s-306 120 -306 286zM149 280c0 -107 86 -173 184 -173c101 0 183 66 183 173c0 108 -88 173 -183 173c-98 0 -184 -65 -184 -173z" />
    <glyph glyph-name="uniF770" unicode="&#xf770;" horiz-adv-x="581" 
d="M175 0h-117v560h246c201 0 250 -99 250 -190c0 -94 -64 -190 -250 -190h-129v-180zM308 451h-133v-162h127c91 0 130 31 130 82c0 46 -32 80 -124 80z" />
    <glyph glyph-name="uniF771" unicode="&#xf771;" horiz-adv-x="665" 
d="M27 280c0 161 134 286 306 286c169 0 305 -120 305 -286c0 -74 -27 -142 -83 -196l54 -61l-82 -65l-56 64c-41 -19 -88 -28 -138 -28c-179 0 -306 120 -306 286zM149 280c0 -107 79 -173 184 -173c24 0 48 4 70 12l-46 49l73 64l50 -56c24 26 36 63 36 104
c0 108 -79 173 -183 173c-105 0 -184 -65 -184 -173z" />
    <glyph glyph-name="uniF772" unicode="&#xf772;" horiz-adv-x="583" 
d="M175 0h-117v560h237c187 0 237 -88 237 -180c0 -74 -48 -138 -124 -163l173 -217h-142l-154 195h-110v-195zM292 451h-117v-147h122c72 0 114 28 114 76c0 42 -26 71 -119 71z" />
    <glyph glyph-name="uniF773" unicode="&#xf773;" horiz-adv-x="539" 
d="M396 155c0 107 -361 45 -361 249c0 88 98 162 237 162c99 0 176 -21 229 -76l-62 -86c-43 31 -102 53 -178 53c-68 0 -105 -16 -105 -51c0 -93 361 -43 361 -243c0 -101 -97 -169 -233 -169c-107 0 -214 42 -266 99l64 87c62 -46 135 -77 218 -77c66 0 96 20 96 52z" />
    <glyph glyph-name="uniF774" unicode="&#xf774;" horiz-adv-x="515" 
d="M4 451v109h507v-109h-195v-451h-117v451h-195z" />
    <glyph glyph-name="uniF775" unicode="&#xf775;" horiz-adv-x="618" 
d="M566 560v-320c0 -176 -126 -245 -250 -245c-140 0 -264 83 -264 249v316h117v-302c0 -85 55 -154 147 -154c93 0 133 67 133 151v305h117z" />
    <glyph glyph-name="uniF776" unicode="&#xf776;" horiz-adv-x="618" 
d="M624 560l-268 -560h-81l-282 560h127l197 -390l183 390h124z" />
    <glyph glyph-name="uniF777" unicode="&#xf777;" horiz-adv-x="823" 
d="M823 560l-176 -560h-97l-136 353l-132 -353h-97l-185 560h121l118 -361l129 361h95l131 -359l113 359h116z" />
    <glyph glyph-name="uniF778" unicode="&#xf778;" horiz-adv-x="590" 
d="M580 560l-215 -276l222 -284h-143l-149 189l-150 -189h-142l223 284l-214 276h141l143 -180l143 180h141z" />
    <glyph glyph-name="uniF779" unicode="&#xf779;" horiz-adv-x="583" 
d="M589 560l-241 -319v-241h-117v241l-238 319h145l155 -205l156 205h140z" />
    <glyph glyph-name="uniF77A" unicode="&#xf77a;" horiz-adv-x="539" 
d="M24 451v109h490v-78l-337 -373h345v-109h-512v78l335 373h-321z" />
    <glyph glyph-name="uniF7A1" unicode="&#xf7a1;" horiz-adv-x="263" 
d="M75 0v403h114v-403h-114zM66 503c0 31 26 59 67 59c35 0 63 -28 63 -59c0 -27 -28 -57 -63 -57c-41 0 -67 30 -67 57z" />
    <glyph glyph-name="uniF7A8" unicode="&#xf7a8;" horiz-adv-x="492" 
d="M146 698c0 34 30 58 63 58c31 0 64 -24 64 -58c0 -37 -33 -60 -64 -60c-33 0 -63 23 -63 60zM363 698c0 34 31 58 66 58c32 0 64 -24 64 -58c0 -37 -30 -60 -64 -60c-35 0 -66 23 -66 60z" />
    <glyph glyph-name="uniF7AF" unicode="&#xf7af;" horiz-adv-x="451" 
d="M170 638v96h281v-96h-281z" />
    <glyph glyph-name="uniF7B4" unicode="&#xf7b4;" horiz-adv-x="474" 
d="M474 769l-127 -158l-76 54l118 168z" />
    <glyph glyph-name="uniF7B8" unicode="&#xf7b8;" horiz-adv-x="467" 
d="M212 -166l35 59c18 -14 45 -25 78 -25c29 0 39 7 39 21c0 17 -17 23 -49 23h-13v88h63v-32c68 -4 103 -36 103 -85c0 -51 -44 -90 -137 -90c-60 0 -96 23 -119 41z" />
    <glyph glyph-name="uniF7BF" unicode="&#xf7bf;" horiz-adv-x="421" 
d="M132 158c0 -31 24 -51 68 -51c36 0 75 14 101 66l94 -44c-37 -101 -121 -135 -197 -135c-119 0 -186 63 -186 145c0 91 53 131 101 163c29 21 54 38 54 67c0 20 -3 24 -4 35l106 1c4 -12 7 -31 7 -42c-1 -66 -45 -97 -90 -128c-30 -20 -54 -41 -54 -77zM284 503
c0 -27 -25 -57 -66 -57c-36 0 -63 30 -63 57c0 31 27 59 63 59c41 0 66 -28 66 -59z" />
    <glyph glyph-name="uniF7E0" unicode="&#xf7e0;" horiz-adv-x="605" 
d="M-2 0l261 560h88l261 -560h-123l-53 109h-261l-53 -109h-120zM301 387l-89 -179h177zM310 612l-136 154l88 67l116 -168z" />
    <glyph glyph-name="uniF7E1" unicode="&#xf7e1;" horiz-adv-x="605" 
d="M-2 0l261 560h88l261 -560h-123l-53 109h-261l-53 -109h-120zM301 387l-89 -179h177zM437 769l-127 -158l-76 54l118 168z" />
    <glyph glyph-name="uniF7E2" unicode="&#xf7e2;" horiz-adv-x="605" 
d="M-2 0l261 560h88l261 -560h-123l-53 109h-261l-53 -109h-120zM301 387l-89 -179h177zM304 803l157 -131l-57 -69l-102 87l-106 -85l-52 68l156 130h4z" />
    <glyph glyph-name="uniF7E3" unicode="&#xf7e3;" horiz-adv-x="605" 
d="M-2 0l261 560h88l261 -560h-123l-53 109h-261l-53 -109h-120zM301 387l-89 -179h177zM178 632l-49 53c37 47 82 71 122 71c47 0 78 -43 120 -43c28 0 46 10 66 30l40 -59c-35 -43 -78 -66 -116 -66c-48 0 -77 44 -119 44c-22 0 -45 -14 -64 -30z" />
    <glyph glyph-name="uniF7E4" unicode="&#xf7e4;" horiz-adv-x="605" 
d="M-2 0l261 560h88l261 -560h-123l-53 109h-261l-53 -109h-120zM301 387l-89 -179h177zM129 698c0 34 30 58 63 58c31 0 64 -24 64 -58c0 -37 -33 -60 -64 -60c-33 0 -63 23 -63 60zM346 698c0 34 31 58 66 58c32 0 64 -24 64 -58c0 -37 -30 -60 -64 -60
c-35 0 -66 23 -66 60z" />
    <glyph glyph-name="uniF7E5" unicode="&#xf7e5;" horiz-adv-x="605" 
d="M-2 0l261 560h88l261 -560h-123l-53 109h-261l-53 -109h-120zM301 387l-89 -179h177zM179 729c0 64 52 117 122 117c71 0 124 -53 124 -117s-53 -115 -124 -115c-70 0 -122 51 -122 115zM256 730c0 -27 19 -46 47 -46c27 0 45 17 45 46s-18 46 -45 46
c-28 0 -47 -18 -47 -46z" />
    <glyph glyph-name="uniF7E6" unicode="&#xf7e6;" horiz-adv-x="972" 
d="M479 0v109h-258l-93 -109h-128l445 560h483v-109h-332v-114h310v-106h-310v-122h340v-109h-457zM292 208h187v232z" />
    <glyph glyph-name="uniF7E7" unicode="&#xf7e7;" horiz-adv-x="590" 
d="M205 -166l35 59c18 -14 45 -25 78 -25c29 0 39 7 39 21c0 17 -17 23 -49 23h-13v84c-165 14 -268 123 -268 284c0 160 122 286 306 286c108 0 196 -40 237 -101l-78 -73c-38 42 -95 61 -152 61c-115 0 -191 -65 -191 -173c0 -105 81 -173 193 -173c70 0 128 24 169 72
l68 -75c-47 -66 -128 -104 -221 -109v-27c68 -4 103 -36 103 -85c0 -51 -44 -90 -137 -90c-60 0 -96 23 -119 41z" />
    <glyph glyph-name="uniF7E8" unicode="&#xf7e8;" horiz-adv-x="550" 
d="M58 0v560h448v-109h-331v-114h309v-106h-309v-122h339v-109h-456zM310 612l-136 154l88 67l116 -168z" />
    <glyph glyph-name="uniF7E9" unicode="&#xf7e9;" horiz-adv-x="550" 
d="M58 0v560h448v-109h-331v-114h309v-106h-309v-122h339v-109h-456zM417 769l-127 -158l-76 54l118 168z" />
    <glyph glyph-name="uniF7EA" unicode="&#xf7ea;" horiz-adv-x="550" 
d="M58 0v560h448v-109h-331v-114h309v-106h-309v-122h339v-109h-456zM289 803l157 -131l-57 -69l-102 87l-106 -85l-52 68l156 130h4z" />
    <glyph glyph-name="uniF7EB" unicode="&#xf7eb;" horiz-adv-x="550" 
d="M58 0v560h448v-109h-331v-114h309v-106h-309v-122h339v-109h-456zM103 698c0 34 30 58 63 58c31 0 64 -24 64 -58c0 -37 -33 -60 -64 -60c-33 0 -63 23 -63 60zM320 698c0 34 31 58 66 58c32 0 64 -24 64 -58c0 -37 -30 -60 -64 -60c-35 0 -66 23 -66 60z" />
    <glyph glyph-name="uniF7EC" unicode="&#xf7ec;" horiz-adv-x="243" 
d="M63 0v560h117v-560h-117zM133 612l-136 154l88 67l116 -168z" />
    <glyph glyph-name="uniF7ED" unicode="&#xf7ed;" horiz-adv-x="243" 
d="M63 0v560h117v-560h-117zM257 769l-127 -158l-76 54l118 168z" />
    <glyph glyph-name="uniF7EE" unicode="&#xf7ee;" horiz-adv-x="243" 
d="M63 0v560h117v-560h-117zM123 803l157 -131l-57 -69l-102 87l-106 -85l-52 68l156 130h4z" />
    <glyph glyph-name="uniF7EF" unicode="&#xf7ef;" horiz-adv-x="243" 
d="M63 0v560h117v-560h-117zM-52 698c0 34 30 58 63 58c31 0 64 -24 64 -58c0 -37 -33 -60 -64 -60c-33 0 -63 23 -63 60zM165 698c0 34 31 58 66 58c32 0 64 -24 64 -58c0 -37 -30 -60 -64 -60c-35 0 -66 23 -66 60z" />
    <glyph glyph-name="uniF7F0" unicode="&#xf7f0;" horiz-adv-x="665" 
d="M15 231v97h97v232h187c251 0 339 -126 339 -273c0 -160 -105 -287 -350 -287h-176v231h-97zM297 451h-68v-123h142v-97h-142v-122h68c157 0 219 71 219 178c0 98 -56 164 -219 164z" />
    <glyph glyph-name="uniF7F1" unicode="&#xf7f1;" horiz-adv-x="629" 
d="M571 0h-91l-308 357v-357h-114v560h90l309 -359v359h114v-560zM183 632l-49 53c37 47 82 71 122 71c47 0 78 -43 120 -43c28 0 46 10 66 30l40 -59c-35 -43 -78 -66 -116 -66c-48 0 -77 44 -119 44c-22 0 -45 -14 -64 -30z" />
    <glyph glyph-name="uniF7F2" unicode="&#xf7f2;" horiz-adv-x="665" 
d="M27 280c0 161 134 286 306 286c169 0 305 -120 305 -286c0 -165 -136 -286 -305 -286s-306 120 -306 286zM149 280c0 -107 86 -173 184 -173c101 0 183 66 183 173c0 108 -88 173 -183 173c-98 0 -184 -65 -184 -173zM326 612l-136 154l88 67l116 -168z" />
    <glyph glyph-name="uniF7F3" unicode="&#xf7f3;" horiz-adv-x="665" 
d="M27 280c0 161 134 286 306 286c169 0 305 -120 305 -286c0 -165 -136 -286 -305 -286s-306 120 -306 286zM149 280c0 -107 86 -173 184 -173c101 0 183 66 183 173c0 108 -88 173 -183 173c-98 0 -184 -65 -184 -173zM474 769l-127 -158l-76 54l118 168z" />
    <glyph glyph-name="uniF7F4" unicode="&#xf7f4;" horiz-adv-x="665" 
d="M27 280c0 161 134 286 306 286c169 0 305 -120 305 -286c0 -165 -136 -286 -305 -286s-306 120 -306 286zM149 280c0 -107 86 -173 184 -173c101 0 183 66 183 173c0 108 -88 173 -183 173c-98 0 -184 -65 -184 -173zM334 803l157 -131l-57 -69l-102 87l-106 -85l-52 68
l156 130h4z" />
    <glyph glyph-name="uniF7F5" unicode="&#xf7f5;" horiz-adv-x="665" 
d="M27 280c0 161 134 286 306 286c169 0 305 -120 305 -286c0 -165 -136 -286 -305 -286s-306 120 -306 286zM149 280c0 -107 86 -173 184 -173c101 0 183 66 183 173c0 108 -88 173 -183 173c-98 0 -184 -65 -184 -173zM208 632l-49 53c37 47 82 71 122 71
c47 0 78 -43 120 -43c28 0 46 10 66 30l40 -59c-35 -43 -78 -66 -116 -66c-48 0 -77 44 -119 44c-22 0 -45 -14 -64 -30z" />
    <glyph glyph-name="uniF7F6" unicode="&#xf7f6;" horiz-adv-x="665" 
d="M27 280c0 161 134 286 306 286c169 0 305 -120 305 -286c0 -165 -136 -286 -305 -286s-306 120 -306 286zM149 280c0 -107 86 -173 184 -173c101 0 183 66 183 173c0 108 -88 173 -183 173c-98 0 -184 -65 -184 -173zM159 698c0 34 30 58 63 58c31 0 64 -24 64 -58
c0 -37 -33 -60 -64 -60c-33 0 -63 23 -63 60zM376 698c0 34 31 58 66 58c32 0 64 -24 64 -58c0 -37 -30 -60 -64 -60c-35 0 -66 23 -66 60z" />
    <glyph glyph-name="uniF7F8" unicode="&#xf7f8;" horiz-adv-x="665" 
d="M56 44l42 49c-44 49 -71 113 -71 187c0 161 134 286 306 286c53 0 104 -12 148 -34l43 49l80 -64l-40 -47c46 -49 74 -115 74 -190c0 -165 -136 -286 -305 -286c-55 0 -106 12 -150 35l-45 -52zM516 280c0 39 -12 72 -31 99l-224 -260c22 -8 47 -12 72 -12
c101 0 183 66 183 173zM149 280c0 -38 10 -70 28 -97l225 258c-22 8 -45 12 -69 12c-98 0 -184 -65 -184 -173z" />
    <glyph glyph-name="uniF7F9" unicode="&#xf7f9;" horiz-adv-x="618" 
d="M566 560v-320c0 -176 -126 -245 -250 -245c-140 0 -264 83 -264 249v316h117v-302c0 -85 55 -154 147 -154c93 0 133 67 133 151v305h117zM306 612l-136 154l88 67l116 -168z" />
    <glyph glyph-name="uniF7FA" unicode="&#xf7fa;" horiz-adv-x="618" 
d="M566 560v-320c0 -176 -126 -245 -250 -245c-140 0 -264 83 -264 249v316h117v-302c0 -85 55 -154 147 -154c93 0 133 67 133 151v305h117zM444 769l-127 -158l-76 54l118 168z" />
    <glyph glyph-name="uniF7FB" unicode="&#xf7fb;" horiz-adv-x="618" 
d="M566 560v-320c0 -176 -126 -245 -250 -245c-140 0 -264 83 -264 249v316h117v-302c0 -85 55 -154 147 -154c93 0 133 67 133 151v305h117zM311 803l157 -131l-57 -69l-102 87l-106 -85l-52 68l156 130h4z" />
    <glyph glyph-name="uniF7FC" unicode="&#xf7fc;" horiz-adv-x="618" 
d="M566 560v-320c0 -176 -126 -245 -250 -245c-140 0 -264 83 -264 249v316h117v-302c0 -85 55 -154 147 -154c93 0 133 67 133 151v305h117zM136 698c0 34 30 58 63 58c31 0 64 -24 64 -58c0 -37 -33 -60 -64 -60c-33 0 -63 23 -63 60zM353 698c0 34 31 58 66 58
c32 0 64 -24 64 -58c0 -37 -30 -60 -64 -60c-35 0 -66 23 -66 60z" />
    <glyph glyph-name="uniF7FD" unicode="&#xf7fd;" horiz-adv-x="583" 
d="M589 560l-241 -319v-241h-117v241l-238 319h145l155 -205l156 205h140zM417 769l-127 -158l-76 54l118 168z" />
    <glyph glyph-name="uniF7FE" unicode="&#xf7fe;" horiz-adv-x="561" 
d="M175 0h-117v560h117v-82h109c201 0 250 -99 250 -190c0 -94 -64 -189 -250 -189h-109v-99zM288 369h-113v-161h107c91 0 130 31 130 81c0 46 -32 80 -124 80z" />
    <glyph glyph-name="uniF7FF" unicode="&#xf7ff;" horiz-adv-x="583" 
d="M589 560l-241 -319v-241h-117v241l-238 319h145l155 -205l156 205h140zM117 698c0 34 30 58 63 58c31 0 64 -24 64 -58c0 -37 -33 -60 -64 -60c-33 0 -63 23 -63 60zM334 698c0 34 31 58 66 58c32 0 64 -24 64 -58c0 -37 -30 -60 -64 -60c-35 0 -66 23 -66 60z" />
    <glyph glyph-name="uniFE56" unicode="&#xfe56;" horiz-adv-x="421" 
d="M275 402c0 31 -24 51 -68 51c-35 0 -74 -13 -100 -65l-95 44c37 101 121 134 198 134c118 0 185 -62 185 -145c0 -91 -53 -131 -101 -163c-29 -21 -53 -37 -53 -66c0 -20 2 -25 4 -35l-106 -1c-4 12 -8 31 -8 42c2 66 45 97 90 127c30 21 54 41 54 77zM123 57
c0 28 26 58 66 58c36 0 64 -30 64 -58c0 -30 -28 -59 -64 -59c-40 0 -66 29 -66 59z" />
    <glyph glyph-name="uniFE57" unicode="&#xfe57;" horiz-adv-x="263" 
d="M75 157v403h114v-403h-114zM66 57c0 28 26 58 67 58c35 0 63 -30 63 -58c0 -30 -28 -59 -63 -59c-41 0 -67 29 -67 59z" />
    <glyph glyph-name="uniFEFF" unicode="&#xfeff;" horiz-adv-x="0" 
 />
    <glyph glyph-name="nbspace" horiz-adv-x="236" 
 />
    <glyph glyph-name="caron.l" horiz-adv-x="210" 
d="M66 711h119c9 -16 13 -40 13 -67c0 -75 -57 -137 -108 -168l-49 44c34 30 48 76 48 106c0 34 -10 68 -23 85z" />
    <glyph glyph-name="caron.lsmall" horiz-adv-x="210" 
d="M66 560h119c9 -16 13 -39 13 -67c0 -75 -57 -136 -108 -168l-49 45c34 30 48 76 48 105c0 35 -10 68 -23 85z" />
    <glyph glyph-name="a.ss02" horiz-adv-x="593" 
d="M426 0v57c-18 -25 -69 -65 -146 -65c-147 0 -251 97 -251 267c0 167 113 273 255 273c74 0 117 -18 142 -44v32h114v-520h-114zM301 98c59 0 108 42 125 87v170c-27 45 -69 71 -130 71c-85 0 -149 -61 -149 -165c0 -102 64 -163 154 -163z" />
    <glyph glyph-name="uniF35A.ss01" horiz-adv-x="588" 
d="M58 0v560h117v-222h61l188 222h153l-233 -267l250 -293h-154l-194 228h-71v-228h-117z" />
    <glyph glyph-name="afii10028.ss01" horiz-adv-x="680" 
d="M70 0v700h121v-300h65l249 300h158l-295 -345l318 -355h-161l-260 286h-74v-286h-121z" />
    <glyph glyph-name="abreve.ss02" horiz-adv-x="593" 
d="M426 0v57c-18 -25 -69 -65 -146 -65c-147 0 -251 97 -251 267c0 167 113 273 255 273c74 0 117 -18 142 -44v32h114v-520h-114zM301 98c59 0 108 42 125 87v170c-27 45 -69 71 -130 71c-85 0 -149 -61 -149 -165c0 -102 64 -163 154 -163zM158 717l51 58
c21 -24 60 -55 112 -55c51 0 92 26 115 53l40 -55c-29 -44 -76 -95 -159 -95c-86 0 -141 64 -159 94z" />
    <glyph glyph-name="uniF356.ss01" horiz-adv-x="834" 
d="M476 228v-228h-117v228h-40l-180 -228h-140l221 293l-210 267h144l175 -222h30v222h117v-222h30l175 222h144l-211 -267l222 -293h-140l-180 228h-40z" />
    <glyph glyph-name="afii10024.ss01" horiz-adv-x="957" 
d="M539 286v-286h-121v286h-51l-217 -286h-150l264 350l-252 350h150l214 -300h42v300h121v-300h42l214 300h150l-252 -350l264 -350h-150l-217 286h-51z" />
    <glyph glyph-name="aogonek.ss02" horiz-adv-x="608" 
d="M537 -96l34 -73c-17 -16 -55 -31 -101 -31c-67 0 -130 29 -130 96c0 49 51 89 86 103v58c-25 -25 -69 -65 -146 -65c-147 0 -251 97 -251 267c0 167 113 273 255 273c74 0 117 -18 142 -44v32h114v-520c-44 -6 -83 -36 -83 -68c0 -23 16 -37 37 -37c15 0 26 1 43 9z
M301 98c59 0 108 42 125 87v170c-27 45 -69 71 -130 71c-85 0 -149 -61 -149 -165c0 -102 64 -163 154 -163z" />
    <glyph glyph-name="adieresis.ss02" horiz-adv-x="593" 
d="M426 0v57c-18 -25 -69 -65 -146 -65c-147 0 -251 97 -251 267c0 167 113 273 255 273c74 0 117 -18 142 -44v32h114v-520h-114zM301 98c59 0 108 42 125 87v170c-27 45 -69 71 -130 71c-85 0 -149 -61 -149 -165c0 -102 64 -163 154 -163zM132 672c0 34 30 58 63 58
c31 0 64 -24 64 -58c0 -38 -33 -61 -64 -61c-33 0 -63 23 -63 61zM349 672c0 34 31 58 66 58c32 0 64 -24 64 -58c0 -38 -30 -61 -64 -61c-35 0 -66 23 -66 61z" />
    <glyph glyph-name="aring.ss02" horiz-adv-x="593" 
d="M426 0v57c-18 -25 -69 -65 -146 -65c-147 0 -251 97 -251 267c0 167 113 273 255 273c74 0 117 -18 142 -44v32h114v-520h-114zM301 98c59 0 108 42 125 87v170c-27 45 -69 71 -130 71c-85 0 -149 -61 -149 -165c0 -102 64 -163 154 -163zM194 701c0 64 52 117 122 117
c71 0 124 -53 124 -117s-53 -115 -124 -115c-70 0 -122 51 -122 115zM271 702c0 -27 18 -46 46 -46c27 0 46 17 46 46s-18 46 -46 46s-46 -18 -46 -46z" />
    <glyph glyph-name="atilde.ss02" horiz-adv-x="593" 
d="M426 0v57c-18 -25 -69 -65 -146 -65c-147 0 -251 97 -251 267c0 167 113 273 255 273c74 0 117 -18 142 -44v32h114v-520h-114zM301 98c59 0 108 42 125 87v170c-27 45 -69 71 -130 71c-85 0 -149 -61 -149 -165c0 -102 64 -163 154 -163zM199 612l-49 53
c37 47 82 71 122 71c47 0 78 -44 120 -44c28 0 46 11 66 30l40 -58c-35 -43 -78 -66 -116 -66c-48 0 -77 43 -119 43c-22 0 -45 -13 -64 -29z" />
    <glyph glyph-name="kcommaaccent.ss01" horiz-adv-x="528" 
d="M53 0v730h114v-412h30l180 202h147l-221 -240l233 -280h-145l-179 213h-45v-213h-114zM206 -100l95 62c24 -20 45 -50 45 -87c0 -76 -52 -129 -92 -153l-53 41c21 21 35 49 35 78c0 26 -14 42 -30 59z" />
    <glyph glyph-name="afii10072.ss01" horiz-adv-x="769" 
d="M441 207v-207h-114v207h-41l-151 -207h-139l195 265l-188 255h138l157 -212h29v212h114v-212h30l157 212h138l-187 -253l194 -267h-139l-151 207h-42z" />
    <glyph glyph-name="K.ss01" horiz-adv-x="680" 
d="M70 0v700h121v-300h65l249 300h158l-295 -345l318 -355h-161l-260 286h-74v-286h-121z" />
    <glyph glyph-name="afii10065.var.accented.ss02" horiz-adv-x="593" 
d="M426 0v57c-18 -25 -69 -65 -146 -65c-147 0 -251 97 -251 267c0 167 113 273 255 273c74 0 117 -18 142 -44v32h114v-520h-114zM301 98c59 0 108 42 125 87v170c-27 45 -69 71 -130 71c-85 0 -149 -61 -149 -165c0 -102 64 -163 154 -163zM461 755l-127 -157l-77 54
l118 167z" />
    <glyph glyph-name="Kcommaaccent.ss01" horiz-adv-x="680" 
d="M70 0v700h121v-300h65l249 300h158l-295 -345l318 -355h-161l-260 286h-74v-286h-121zM276 -100l95 62c24 -20 45 -50 45 -87c0 -76 -52 -129 -92 -153l-53 41c21 21 35 49 35 78c0 26 -14 42 -30 59z" />
    <glyph glyph-name="uniF689.ss01" horiz-adv-x="588" 
d="M58 0v560h117v-222h61l188 222h153l-233 -267l250 -293h-154l-194 228h-71v-228h-117zM220 -100l95 62c24 -20 45 -50 45 -87c0 -76 -52 -129 -92 -153l-53 41c21 21 35 49 35 78c0 26 -14 42 -30 59z" />
    <glyph glyph-name="uniF76B.ss01" horiz-adv-x="588" 
d="M58 0v560h117v-222h61l188 222h153l-233 -267l250 -293h-154l-194 228h-71v-228h-117z" />
    <glyph glyph-name="afii10065.ss02" horiz-adv-x="593" 
d="M426 0v57c-18 -25 -69 -65 -146 -65c-147 0 -251 97 -251 267c0 167 113 273 255 273c74 0 117 -18 142 -44v32h114v-520h-114zM301 98c59 0 108 42 125 87v170c-27 45 -69 71 -130 71c-85 0 -149 -61 -149 -165c0 -102 64 -163 154 -163z" />
    <glyph glyph-name="afii10076.ss01" horiz-adv-x="545" 
d="M53 0v520h114v-212h34l191 212h149l-233 -251l242 -269h-146l-189 203h-48v-203h-114z" />
    <glyph glyph-name="afii10109.ss01" horiz-adv-x="545" 
d="M53 0v520h114v-212h34l191 212h149l-233 -251l242 -269h-146l-189 203h-48v-203h-114zM433 755l-127 -157l-77 54l118 167z" />
    <glyph glyph-name="afii10061.ss01" horiz-adv-x="680" 
d="M70 0v700h121v-300h65l249 300h158l-295 -345l318 -355h-161l-260 286h-74v-286h-121zM512 849l-220 -104l-43 76l210 128z" />
    <glyph glyph-name="uniF37C.ss01" horiz-adv-x="588" 
d="M58 0v560h117v-222h61l188 222h153l-233 -267l250 -293h-154l-194 228h-71v-228h-117zM432 769l-127 -158l-76 54l118 168z" />
    <glyph glyph-name="agrave.ss02" horiz-adv-x="593" 
d="M426 0v57c-18 -25 -69 -65 -146 -65c-147 0 -251 97 -251 267c0 167 113 273 255 273c74 0 117 -18 142 -44v32h114v-520h-114zM301 98c59 0 108 42 125 87v170c-27 45 -69 71 -130 71c-85 0 -149 -61 -149 -165c0 -102 64 -163 154 -163zM320 598l-137 154l89 67
l115 -167z" />
    <glyph glyph-name="amacron.ss02" horiz-adv-x="593" 
d="M426 0v57c-18 -25 -69 -65 -146 -65c-147 0 -251 97 -251 267c0 167 113 273 255 273c74 0 117 -18 142 -44v32h114v-520h-114zM301 98c59 0 108 42 125 87v170c-27 45 -69 71 -130 71c-85 0 -149 -61 -149 -165c0 -102 64 -163 154 -163zM178 625v95h281v-95h-281z" />
    <glyph glyph-name="k.ss01" horiz-adv-x="528" 
d="M53 0v730h114v-412h30l180 202h147l-221 -240l233 -280h-145l-179 213h-45v-213h-114z" />
    <glyph glyph-name="aacute.ss02" horiz-adv-x="593" 
d="M426 0v57c-18 -25 -69 -65 -146 -65c-147 0 -251 97 -251 267c0 167 113 273 255 273c74 0 117 -18 142 -44v32h114v-520h-114zM301 98c59 0 108 42 125 87v170c-27 45 -69 71 -130 71c-85 0 -149 -61 -149 -165c0 -102 64 -163 154 -163zM461 755l-127 -157l-77 54
l118 167z" />
    <glyph glyph-name="acircumflex.ss02" horiz-adv-x="593" 
d="M426 0v57c-18 -25 -69 -65 -146 -65c-147 0 -251 97 -251 267c0 167 113 273 255 273c74 0 117 -18 142 -44v32h114v-520h-114zM301 98c59 0 108 42 125 87v170c-27 45 -69 71 -130 71c-85 0 -149 -61 -149 -165c0 -102 64 -163 154 -163zM312 790l157 -131l-57 -70
l-102 88l-106 -85l-52 68l156 130h4z" />
    </font>
</defs>
</svg>
